<svg width="32" height="32" viewBox="0 0 8.467 8.467" xmlns="http://www.w3.org/2000/svg"><path style="fill:#000;stroke:none;stroke-width:.264594px;stroke-linecap:butt;stroke-linejoin:miter;stroke-opacity:1" d="M6.35 4.234 4.234 6.35V4.234H6.35M8.467 6.35 6.35 4.234V6.35h2.117m-4.233 0L2.117 4.234V6.35h2.117M0 6.35l2.117 2.117V6.35H0m4.234 0L6.35 8.467V6.35H4.234m1.058-5.292L4.234 2.117V1.058h1.058M2.117 4.233l2.116-2.116v2.116H2.117m1.058-3.175L4.233 0v1.058H3.175m1.059 1.059 1.058 1.058V2.117H4.234m-.001 0L3.175 1.058v1.059h1.058m-2.116 6.35L4.233 6.35v2.117H2.117"/></svg>