<svg width="32" height="32" viewBox="0 0 8.467 8.467" xmlns="http://www.w3.org/2000/svg"><path style="fill:#000;stroke:none;stroke-width:.264594px;stroke-linecap:butt;stroke-linejoin:miter;stroke-opacity:1" d="M2.117 4.234 4.234 6.35V4.234H2.117M0 6.35l2.117-2.116V6.35H0m4.234 0L6.35 4.234V6.35H4.234m4.233 0L6.35 8.467V6.35h2.117m-4.233 0L2.117 8.467V6.35h2.117M3.175 1.058l1.059 1.059V1.058H3.175M6.35 4.233 4.234 2.117v2.116H6.35M5.292 1.058 4.234 0v1.058h1.058M4.234 2.117 3.175 3.175V2.117h1.059m0 0 1.058-1.059v1.059H4.234m2.116 6.35L4.234 6.35v2.117H6.35"/></svg>