<svg width="32" height="32" viewBox="0 0 8.467 8.467" xmlns="http://www.w3.org/2000/svg"><circle style="fill:#000;stroke-width:0" cx="-6.085" cy="6.085" r="1.852" transform="scale(-1 1)"/><circle style="fill:#000;stroke-width:0" cx="-2.381" cy="2.381" r="1.852" transform="scale(-1 1)"/><path style="fill:#000;stroke-width:0" d="M2.381 7.938a.53.53 0 0 1 .53.529h-1.06a.53.53 0 0 1 .53-.53ZM6.085.53a.53.53 0 0 0 .53-.53H5.556a.53.53 0 0 0 .53.53Zm1.852 1.851a.53.53 0 0 0 .53.53v-1.06a.53.53 0 0 0-.53.53ZM.53 6.085a.53.53 0 0 1-.53.53V5.556a.53.53 0 0 1 .53.53Zm7.937 1.853a.53.53 0 0 0-.53.529h.53zM0 .53A.53.53 0 0 0 .53 0H0Z"/></svg>