<svg width="32" height="32" viewBox="0 0 8.467 8.467" xmlns="http://www.w3.org/2000/svg"><path style="fill:#000;stroke-width:0" d="M6.085.53a1.852 1.852 0 0 1 1.853 1.85 1.852 1.852 0 0 1-1.853 1.852A1.852 1.852 0 0 1 4.233 2.38 1.852 1.852 0 0 1 6.085.53Zm0 .528a1.323 1.323 0 0 0-1.322 1.323 1.323 1.323 0 0 0 1.322 1.323 1.323 1.323 0 0 0 1.323-1.323 1.323 1.323 0 0 0-1.323-1.323Zm0 6.88a.53.53 0 0 0-.529.529h1.059a.53.53 0 0 0-.53-.53ZM2.381.53A.53.53 0 0 1 1.852 0H2.91a.53.53 0 0 1-.529.53ZM.53 2.381a.53.53 0 0 1-.53.53v-1.06a.53.53 0 0 1 .53.53Zm7.407 3.704a.53.53 0 0 0 .53.53V5.556a.53.53 0 0 0-.53.53ZM0 7.938a.53.53 0 0 1 .53.529H0ZM8.467.53a.53.53 0 0 1-.53-.53h.53zM2.381 4.233a1.852 1.852 0 0 1 1.852 1.852 1.852 1.852 0 0 1-1.852 1.852A1.852 1.852 0 0 1 .53 6.085a1.852 1.852 0 0 1 1.852-1.852Zm0 .53a1.323 1.323 0 0 0-1.323 1.322 1.323 1.323 0 0 0 1.323 1.323 1.323 1.323 0 0 0 1.323-1.323 1.323 1.323 0 0 0-1.323-1.323Z"/></svg>