<svg width="32" height="32" viewBox="0 0 8.467 8.467" xmlns="http://www.w3.org/2000/svg"><path style="fill:#000;stroke-width:0" d="M-2.381.53A1.852 1.852 0 0 1-.53 2.38a1.852 1.852 0 0 1-1.852 1.852A1.852 1.852 0 0 1-4.234 2.38 1.852 1.852 0 0 1-2.381.53zm0 .528a1.323 1.323 0 0 0-1.323 1.323 1.323 1.323 0 0 0 1.323 1.323 1.323 1.323 0 0 0 1.323-1.323 1.323 1.323 0 0 0-1.323-1.323z" transform="scale(-1 1)"/><path style="fill:#000;stroke-width:0" d="M2.381 7.938a.53.53 0 0 1 .53.529h-1.06a.53.53 0 0 1 .53-.53ZM6.085.53a.53.53 0 0 0 .53-.53H5.556a.53.53 0 0 0 .53.53Zm1.852 1.851a.53.53 0 0 0 .53.53v-1.06a.53.53 0 0 0-.53.53ZM.53 6.085a.53.53 0 0 1-.53.53V5.556a.53.53 0 0 1 .53.53Zm7.937 1.853a.53.53 0 0 0-.53.529h.53zM0 .53A.53.53 0 0 0 .53 0H0Zm6.085 3.703a1.852 1.852 0 0 0-1.852 1.852 1.852 1.852 0 0 0 1.852 1.852 1.852 1.852 0 0 0 1.852-1.852 1.852 1.852 0 0 0-1.852-1.852Zm0 .53a1.323 1.323 0 0 1 1.323 1.322 1.323 1.323 0 0 1-1.323 1.323 1.323 1.323 0 0 1-1.323-1.323 1.323 1.323 0 0 1 1.323-1.323Z"/></svg>