<svg width="32" height="32" viewBox="0 0 8.467 8.467" xmlns="http://www.w3.org/2000/svg"><path style="fill:#000;fill-opacity:1;stroke:none;stroke-width:0" d="M5.556 1.058a.794.794 0 0 0-.793.794.794.794 0 0 0 .232.561L2.413 4.995a.794.794 0 0 0-.56-.232.794.794 0 0 0-.795.793.794.794 0 0 0 .794.794.794.794 0 0 0 .342-.078.794.794 0 0 0-.077.343.794.794 0 0 0 .793.793.794.794 0 0 0 .794-.793.794.794 0 0 0-.232-.562l2.581-2.581a.794.794 0 0 0 .562.232.794.794 0 0 0 .793-.794.794.794 0 0 0-.793-.793.794.794 0 0 0-.343.077.794.794 0 0 0 .078-.342.794.794 0 0 0-.794-.794z"/></svg>