<svg width="32" height="32" viewBox="0 0 8.467 8.467" xmlns="http://www.w3.org/2000/svg"><path style="fill:#000;fill-opacity:1;stroke:none;stroke-width:0" d="M5.292 4.233 4.233 5.292l.762.761a.794.794 0 0 0-.232.562.794.794 0 0 0 .793.793.794.794 0 0 0 .794-.793.794.794 0 0 0-.078-.343.794.794 0 0 0 .343.078.794.794 0 0 0 .793-.794.794.794 0 0 0-.793-.793.794.794 0 0 0-.562.232ZM2.91 1.058a.794.794 0 0 0-.793.794.794.794 0 0 0 .077.342.794.794 0 0 0-.342-.077.794.794 0 0 0-.794.793.794.794 0 0 0 .794.794.794.794 0 0 0 .561-.232l.762.761 1.058-1.058-.761-.762a.794.794 0 0 0 .232-.56.794.794 0 0 0-.794-.795Z"/></svg>