<svg width="32" height="32" viewBox="0 0 8.467 8.467" xmlns="http://www.w3.org/2000/svg"><path style="fill:#000;fill-opacity:1;stroke:none;stroke-width:0" d="M2.91 1.058a.794.794 0 0 1 .794.794.794.794 0 0 1-.232.561l2.581 2.582a.794.794 0 0 1 .562-.232.794.794 0 0 1 .793.793.794.794 0 0 1-.793.794.794.794 0 0 1-.343-.078.794.794 0 0 1 .078.343.794.794 0 0 1-.794.793.794.794 0 0 1-.793-.793.794.794 0 0 1 .232-.562L2.413 3.472a.794.794 0 0 1-.56.232.794.794 0 0 1-.795-.794.794.794 0 0 1 .794-.793.794.794 0 0 1 .342.077.794.794 0 0 1-.077-.342.794.794 0 0 1 .793-.794z"/></svg>