<svg width="32" height="32" viewBox="0 0 8.467 8.467" xmlns="http://www.w3.org/2000/svg"><path style="fill:#000;fill-opacity:1;stroke:none;stroke-width:0" d="M2.91 1.058a.794.794 0 0 0-.793.794.794.794 0 0 0 .077.342.794.794 0 0 0-.342-.077.794.794 0 0 0-.794.793.794.794 0 0 0 .794.794.794.794 0 0 0 .561-.232l.762.761 1.058-1.058-.761-.762a.794.794 0 0 0 .232-.56.794.794 0 0 0-.794-.795zm1.323 2.117 1.059 1.058.761-.761a.794.794 0 0 0 .562.232.794.794 0 0 0 .793-.794.794.794 0 0 0-.793-.793.794.794 0 0 0-.343.077.794.794 0 0 0 .078-.342.794.794 0 0 0-.794-.794.794.794 0 0 0-.793.794.794.794 0 0 0 .232.561l-.762.762zm1.059 1.058L4.233 5.292l.762.761a.794.794 0 0 0-.232.562.794.794 0 0 0 .793.793.794.794 0 0 0 .794-.793.794.794 0 0 0-.078-.343.794.794 0 0 0 .343.078.794.794 0 0 0 .793-.794.794.794 0 0 0-.793-.793.794.794 0 0 0-.562.232l-.761-.762zM4.233 5.292 3.175 4.233l-.762.762a.794.794 0 0 0-.56-.232.794.794 0 0 0-.795.793.794.794 0 0 0 .794.794.794.794 0 0 0 .342-.078.794.794 0 0 0-.077.343.794.794 0 0 0 .793.793.794.794 0 0 0 .794-.793.794.794 0 0 0-.232-.562l.761-.761z"/></svg>