<svg width="32" height="32" viewBox="0 0 8.467 8.467" xmlns="http://www.w3.org/2000/svg"><circle style="fill:#7b7b9d;fill-opacity:1;stroke-width:0" cx="6.879" cy="6.35" r="1.058"/><circle style="fill:#7b7b9d;fill-opacity:1;stroke-width:0" cx="6.879" cy="5.292" r="1.058"/><circle style="fill:#7b7b9d;fill-opacity:1;stroke-width:0" cx="6.879" cy="4.233" r="1.058"/><circle style="fill:#7b7b9d;fill-opacity:1;stroke-width:0" cx="6.879" cy="3.175" r="1.058"/><circle style="fill:#fff;fill-opacity:1;stroke-width:0" cx="6.879" cy="3.175" r=".529"/><circle style="fill:#fff;fill-opacity:1;stroke-width:0" cx="6.879" cy="4.233" r=".529"/><circle style="fill:#fff;fill-opacity:1;stroke-width:0" cx="6.879" cy="5.292" r=".529"/><circle style="fill:#fff;fill-opacity:1;stroke-width:0" cx="6.879" cy="6.35" r=".529"/><circle style="fill:#7b7b9d;fill-opacity:1;stroke-width:0" cx="6.35" cy="1.587" r="1.058"/><circle style="fill:#7b7b9d;fill-opacity:1;stroke-width:0" cx="5.292" cy="1.587" r="1.058"/><circle style="fill:#7b7b9d;fill-opacity:1;stroke-width:0" cx="4.233" cy="1.587" r="1.058"/><circle style="fill:#7b7b9d;fill-opacity:1;stroke-width:0" cx="3.175" cy="1.587" r="1.058"/><circle style="fill:#b9b9cb;fill-opacity:1;stroke-width:0" cx="3.175" cy="1.587" r=".529"/><circle style="fill:#b9b9cb;fill-opacity:1;stroke-width:0" cx="4.233" cy="1.587" r=".529"/><circle style="fill:#b9b9cb;fill-opacity:1;stroke-width:0" cx="5.292" cy="1.587" r=".529"/><circle style="fill:#7b7b9d;fill-opacity:1;stroke-width:0" cx="-6.879" cy="5.292" r="1.058" transform="rotate(-90)"/><circle style="fill:#7b7b9d;fill-opacity:1;stroke-width:0" cx="-6.879" cy="4.233" r="1.058" transform="rotate(-90)"/><circle style="fill:#7b7b9d;fill-opacity:1;stroke-width:0" cx="-6.879" cy="3.175" r="1.058" transform="rotate(-90)"/><circle style="fill:#7b7b9d;fill-opacity:1;stroke-width:0" cx="-6.879" cy="2.117" r="1.058" transform="rotate(-90)"/><circle style="fill:#b9b9cb;fill-opacity:1;stroke-width:0" cx="-6.879" cy="2.117" r=".529" transform="rotate(-90)"/><circle style="fill:#b9b9cb;fill-opacity:1;stroke-width:0" cx="-6.879" cy="3.175" r=".529" transform="rotate(-90)"/><circle style="fill:#b9b9cb;fill-opacity:1;stroke-width:0" cx="-6.879" cy="4.233" r=".529" transform="rotate(-90)"/><circle style="fill:#b9b9cb;fill-opacity:1;stroke-width:0" cx="-6.879" cy="5.292" r=".529" transform="rotate(-90)"/><circle style="fill:#7b7b9d;fill-opacity:1;stroke-width:0" cx="1.587" cy="5.292" r="1.058"/><circle style="fill:#7b7b9d;fill-opacity:1;stroke-width:0" cx="1.587" cy="4.233" r="1.058"/><circle style="fill:#7b7b9d;fill-opacity:1;stroke-width:0" cx="1.587" cy="3.175" r="1.058"/><circle style="fill:#7b7b9d;fill-opacity:1;stroke-width:0" cx="1.587" cy="2.117" r="1.058"/><path style="fill:#b9b9cb;fill-opacity:1;stroke-width:0" d="M2.117 5.292h1.058v1.587H2.117z"/><path style="fill:#fff;fill-opacity:1;stroke-width:0" d="M3.175 2.117h2.117V6.35H3.175z"/><path style="fill:#b9b9cb;fill-opacity:1;stroke-width:0" d="M3.175 4.233h1.058v1.058H3.175zm1.058 1.059h1.058V6.88H4.233zm1.059-1.059H6.35v1.058H5.292zM2.117 3.175h1.058v1.058H2.117zm1.058-1.588h1.058v1.588H3.175zm1.058 1.588h1.058v1.058H4.233zm1.059-1.588H6.35v1.588H5.292z"/><path style="fill:#fff;fill-opacity:1;stroke-width:0" d="M1.587 2.117h1.587v1.058H1.587z"/><circle style="fill:#fff;fill-opacity:1;stroke-width:0" cx="1.587" cy="2.117" r=".529"/><circle style="fill:#fff;fill-opacity:1;stroke-width:0" cx="1.587" cy="3.175" r=".529"/><circle style="fill:#fff;fill-opacity:1;stroke-width:0" cx="1.587" cy="4.233" r=".529"/><circle style="fill:#fff;fill-opacity:1;stroke-width:0" cx="1.587" cy="5.292" r=".529"/><path style="fill:#fff;fill-opacity:1;stroke-width:0" d="M1.587 4.233h1.587v1.058H1.587zm3.705 1.059h1.587V6.35H5.292z"/><path style="fill:#b9b9cb;fill-opacity:1;stroke-width:0" d="M5.292 2.117H6.35v1.058H5.292z"/><circle style="fill:#b9b9cb;fill-opacity:1;stroke-width:0" cx="6.35" cy="1.587" r=".529"/><path style="fill:#fff;fill-opacity:1;stroke-width:0" d="M5.292 3.175h1.587v1.058H5.292z"/></svg>