<svg width="32" height="32" viewBox="0 0 8.467 8.467" xmlns="http://www.w3.org/2000/svg"><path style="fill:#000;fill-opacity:.996078;stroke:none;stroke-width:0;stroke-dasharray:none" d="M.529.529h7.408v3.44H.529zm0 3.969h7.408v3.44H.529z"/><path style="fill:#0000c0;fill-opacity:.99607801;stroke:none;stroke-width:0;stroke-dasharray:none" d="M1.058 1.058h.529v2.381h-.529z"/><path style="fill:maroon;fill-opacity:.996078;stroke:none;stroke-width:0;stroke-dasharray:none" d="M1.587 1.587h.529v1.852h-.529z"/><path style="fill:green;fill-opacity:.99607801;stroke:none;stroke-width:0;stroke-dasharray:none" d="M2.117 2.117h.529V3.44h-.529z"/><path style="fill:#0000c0;fill-opacity:.996078;stroke:none;stroke-width:0;stroke-dasharray:none" d="M2.646 1.058h.529v2.381h-.529z"/><path style="fill:maroon;fill-opacity:.996078;stroke:none;stroke-width:0;stroke-dasharray:none" d="M3.175 1.587h.529v1.852h-.529z"/><path style="fill:green;fill-opacity:.996078;stroke:none;stroke-width:0;stroke-dasharray:none" d="M3.704 2.117h.529V3.44h-.529z"/><path style="fill:#0000c0;fill-opacity:.996078;stroke:none;stroke-width:0;stroke-dasharray:none" d="M4.233 1.058h.529v2.381h-.529z"/><path style="fill:maroon;fill-opacity:.996078;stroke:none;stroke-width:0;stroke-dasharray:none" d="M4.762 1.587h.529v1.852h-.529z"/><path style="fill:green;fill-opacity:.996078;stroke:none;stroke-width:0;stroke-dasharray:none" d="M5.292 2.117h.529V3.44h-.529z"/><path style="fill:#0000c0;fill-opacity:.996078;stroke:none;stroke-width:0;stroke-dasharray:none" d="M5.821 1.058h.529v2.381h-.529z"/><path style="fill:maroon;fill-opacity:.996078;stroke:none;stroke-width:0;stroke-dasharray:none" d="M6.35 1.587h.529v1.852H6.35z"/><path style="fill:green;fill-opacity:.996078;stroke:none;stroke-width:0;stroke-dasharray:none" d="M6.879 2.117h.529V3.44h-.529z"/><path style="fill:#0000c0;fill-opacity:.996078;stroke:none;stroke-width:0;stroke-dasharray:none" transform="scale(-1 1)" d="M-6.35 6.085h.529v1.323h-.529z"/><path style="fill:maroon;fill-opacity:.996078;stroke:none;stroke-width:0;stroke-dasharray:none" transform="scale(-1 1)" d="M-7.408 5.027h.529v2.381h-.529z"/><path style="fill:green;fill-opacity:.996078;stroke:none;stroke-width:0;stroke-dasharray:none" transform="scale(-1 1)" d="M-6.879 5.556h.529v1.852h-.529z"/><path style="fill:#0000c0;fill-opacity:.996078;stroke:none;stroke-width:0;stroke-dasharray:none" transform="scale(-1 1)" d="M-4.762 6.085h.529v1.323h-.529z"/><path style="fill:maroon;fill-opacity:.996078;stroke:none;stroke-width:0;stroke-dasharray:none" transform="scale(-1 1)" d="M-5.821 5.027h.529v2.381h-.529z"/><path style="fill:green;fill-opacity:.996078;stroke:none;stroke-width:0;stroke-dasharray:none" transform="scale(-1 1)" d="M-5.292 5.556h.529v1.852h-.529z"/><path style="fill:#0000c0;fill-opacity:.996078;stroke:none;stroke-width:0;stroke-dasharray:none" transform="scale(-1 1)" d="M-3.175 6.085h.529v1.323h-.529z"/><path style="fill:maroon;fill-opacity:.996078;stroke:none;stroke-width:0;stroke-dasharray:none" transform="scale(-1 1)" d="M-4.233 5.027h.529v2.381h-.529z"/><path style="fill:green;fill-opacity:.996078;stroke:none;stroke-width:0;stroke-dasharray:none" transform="scale(-1 1)" d="M-3.704 5.556h.529v1.852h-.529z"/><path style="fill:#0000c0;fill-opacity:.996078;stroke:none;stroke-width:0;stroke-dasharray:none" transform="scale(-1 1)" d="M-1.588 6.085h.529v1.323h-.529z"/><path style="fill:maroon;fill-opacity:.996078;stroke:none;stroke-width:0;stroke-dasharray:none" transform="scale(-1 1)" d="M-2.646 5.027h.529v2.381h-.529z"/><path style="fill:green;fill-opacity:.996078;stroke:none;stroke-width:0;stroke-dasharray:none" transform="scale(-1 1)" d="M-2.117 5.556h.529v1.852h-.529z"/></svg>