<svg width="32" height="32" viewBox="0 0 8.467 8.467" xmlns="http://www.w3.org/2000/svg"><path style="fill:#000;fill-opacity:1;stroke:none;stroke-width:.264583" d="M7.938.529h.529v.529h-.529zM7.938 1.587h.529v.529h-.529zM7.938 2.646h.529v.529h-.529zM7.938 3.704h.529v.529h-.529zM7.938 4.762h.529v.529h-.529zM7.938 5.821h.529v.529h-.529zM.529 7.938h.529v.529H.529zM1.587 7.938h.529v.529h-.529zM2.646 7.938h.529v.529h-.529zM3.704 7.938h.529v.529h-.529zM4.762 7.938h.529v.529h-.529zM5.821 7.938h.529v.529h-.529zM6.879 7.938h.529v.529h-.529zM7.938 7.938h.529v.529h-.529zM7.938 6.879h.529v.529h-.529z"/></svg>