<svg width="32" height="32" viewBox="0 0 8.467 8.467" xmlns="http://www.w3.org/2000/svg"><path style="fill:#000;fill-opacity:1;stroke:none;stroke-width:.264583" d="M0 0h.529v.529H0zM1.058 0h.529v.529h-.529zM2.117 0h.529v.529h-.529zM3.175 0h.529v.529h-.529zM4.233 0h.529v.529h-.529zM5.292 0h.529v.529h-.529zM6.35 0h.529v.529H6.35zM7.408 0h.529v.529h-.529zM0 1.058h.529v.529H0zM0 2.117h.529v.529H0zM7.938.529h.529v.529h-.529zM7.938 1.587h.529v.529h-.529zM7.938 2.646h.529v.529h-.529zM7.938 3.704h.529v.529h-.529zM7.938 4.762h.529v.529h-.529zM0 3.175h.529v.529H0zM0 4.233h.529v.529H0zM0 5.292h.529v.529H0zM0 6.35h.529v.529H0zM0 7.408h.529v.529H0zM7.938 5.821h.529v.529h-.529zM.529 7.938h.529v.529H.529zM1.587 7.938h.529v.529h-.529zM2.646 7.938h.529v.529h-.529zM3.704 7.938h.529v.529h-.529zM4.762 7.938h.529v.529h-.529zM5.821 7.938h.529v.529h-.529zM6.879 7.938h.529v.529h-.529zM7.938 7.938h.529v.529h-.529zM7.938 6.879h.529v.529h-.529z"/></svg>