<svg width="32" height="32" viewBox="0 0 8.467 8.467" xmlns="http://www.w3.org/2000/svg"><path style="fill:#000;fill-opacity:1;stroke:none;stroke-width:.264583" d="M7.938.529h.529v.529h-.529zm0 1.058h.529v.529h-.529zm0 1.059h.529v.529h-.529zm0 1.058h.529v.529h-.529zm0 1.058h.529v.529h-.529zm0 1.059h.529v.529h-.529zM.529 7.938h.529v.529H.529zm1.058 0h.529v.529h-.529zm1.059 0h.529v.529h-.529zm1.058 0h.529v.529h-.529zm1.058 0h.529v.529h-.529zm1.059 0h.529v.529h-.529zm1.058 0h.529v.529h-.529zm1.059 0h.529v.529h-.529zm0-1.059h.529v.529h-.529z"/></svg>