<svg width="32" height="32" viewBox="0 0 8.467 8.467" xmlns="http://www.w3.org/2000/svg"><path style="fill:#000;stroke-width:0" d="M16 30a2 2 0 0 0-2 2h4a2 2 0 0 0-2-2z" transform="scale(.26458)"/><path style="fill:#000;stroke-width:0" d="M0 7.937v.53h.53a.53.53 0 0 0-.53-.53Zm8.467 0v.53h-.53a.53.53 0 0 1 .53-.53ZM4.233.53A.53.53 0 0 1 3.704 0h1.058a.53.53 0 0 1-.529.53ZM0 .53V0h.53A.53.53 0 0 1 0 .53Zm8.467 0V0h-.53a.53.53 0 0 0 .53.53Zm-.529 3.703a.53.53 0 0 1 .529-.529v1.058a.53.53 0 0 1-.53-.529Zm-7.408 0A.53.53 0 0 0 0 3.704v1.058a.53.53 0 0 0 .53-.529Z"/></svg>