<svg width="32" height="32" viewBox="0 0 8.467 8.467" xmlns="http://www.w3.org/2000/svg"><path style="fill:#000;stroke-width:0" d="M0 7.937v.53h.53a.53.53 0 0 0-.53-.53Zm8.467 0v.53h-.53a.53.53 0 0 1 .53-.53ZM4.233 1.058A1.058 1.058 0 0 1 3.175 0h2.117a1.058 1.058 0 0 1-1.059 1.058ZM0 .53V0h.53A.53.53 0 0 1 0 .53Zm8.467 0V0h-.53a.53.53 0 0 0 .53.53ZM4.233 7.408a1.058 1.058 0 0 0-1.058 1.059h2.117a1.058 1.058 0 0 0-1.059-1.059ZM1.058 4.233A1.058 1.058 0 0 0 0 3.175v2.117a1.058 1.058 0 0 0 1.058-1.059Zm6.35 0a1.058 1.058 0 0 1 1.059-1.058v2.117a1.058 1.058 0 0 1-1.059-1.059Z"/></svg>