<svg width="32" height="32" viewBox="0 0 8.467 8.467" xmlns="http://www.w3.org/2000/svg"><path style="fill:#666;stroke:none;stroke-width:0" d="M4.233 4.763c-.584 0-1.058.473-1.058 1.058v.529a1.058 1.058 0 1 0 2.117 0v-.53c0-.584-.474-1.058-1.059-1.057zm0 .529a.53.53 0 0 1 .53.529v.529a.53.53 0 1 1-1.059 0v-.53a.53.53 0 0 1 .53-.528zm0-4.234c-.584 0-1.058.474-1.058 1.059v.529a1.058 1.058 0 0 0 2.117 0v-.53c0-.584-.474-1.058-1.059-1.058zm0 .53a.53.53 0 0 1 .53.529v.529a.53.53 0 0 1-1.059 0v-.53a.53.53 0 0 1 .53-.528z"/><path style="fill:#b3b3b3;stroke:none;stroke-width:0" d="M3.969 6.615h.529v1.852h-.529zm0-6.615h.529v1.852h-.529zm0 2.91h.529v2.646h-.529z"/></svg>