<svg width="32" height="32" viewBox="0 0 8.467 8.467" xmlns="http://www.w3.org/2000/svg"><path style="fill:#000;fill-opacity:1;stroke:none;stroke-width:.264583" d="M0 2.117v2.116h.53a.53 2.117 0 0 0 0-.045A.53 2.117 0 0 0 0 2.117zM4.234.53v3.704h3.704v-.096A3.704 3.704 0 0 0 4.234.53Z"/><path style="fill:#000;stroke-width:.476269;stop-color:#000" d="M6.35 0a2.117 2.117 0 0 0 2.117 2.117V0H6.35z"/><path style="fill:#000;fill-opacity:1;stroke:none;stroke-width:.264583" d="M8.467 6.35V4.234h-.53a.53 2.117 0 0 0 0 .045.53 2.117 0 0 0 .53 2.071ZM4.233 7.938V4.234H.53v.095a3.704 3.704 0 0 0 3.704 3.609zM2.117.001l2.116-.002v.53a.53 2.117 89.947 0 1-.045 0A.53 2.117 89.947 0 1 2.117 0ZM6.35 8.464l-2.116.002v-.53a.53 2.117 89.947 0 1 .045 0 .53 2.117 89.947 0 1 2.071.528z"/><path style="fill:#000;stroke-width:.476269;stop-color:#000" d="M2.117 8.467A2.117 2.117 0 0 0 0 6.35v2.117z"/></svg>