<svg width="32" height="32" viewBox="0 0 8.467 8.467" xmlns="http://www.w3.org/2000/svg"><path style="fill:#000;stroke-width:.187088" d="M.529 0h1.852v.529H.529zM0 .529h.529v1.852H0z"/><path style="fill:#000;stroke-width:.264583" d="M0 7.938h.529v.529H0z"/><path style="fill:#000;stroke-width:.187088" d="M6.085 7.938h1.852v.529H6.085zM7.938 6.085h.529v1.852h-.529z"/><path style="fill:#000;stroke-width:.264583" d="M7.938 0h.529v.529h-.529zM.529 2.381h1.852v1.852H.529z"/><path style="fill:#000;stroke-width:.264583" d="M2.381.529h1.852v1.852H2.381zM0 4.233h.529v1.852H0zM.529 6.085h1.852v1.852H.529zM2.381 4.233h1.852v1.852H2.381zM2.381 7.938h1.852v.529H2.381zM4.233 6.085h1.852v1.852H4.233zM6.085 4.233h1.852v1.852H6.085zM4.233 2.381h1.852v1.852H4.233zM4.233 0h1.852v.529H4.233zM6.085.529h1.852v1.852H6.085zM7.938 2.381h.529v1.852h-.529z"/></svg>