<svg width="32" height="32" viewBox="0 0 8.467 8.467" xmlns="http://www.w3.org/2000/svg"><path style="fill:#000;stroke-width:.34335;stop-color:#000" d="M.529 0h.529v.529H.529zm1.059 0h.529v.529h-.529zm1.058 0h.529v.529h-.529zm1.058 0h.529v.529h-.529zm1.059 0h.529v.529h-.529zm1.058 0h.529v.529h-.529zm1.058 0h.529v.529h-.529zm1.059 0h.529v.529h-.529zM0 .529h.529v.529H0zm1.058 0h.529v.529h-.529zm1.059 0h.529v.529h-.529zm1.058 0h.529v.529h-.529zm1.059 0h.529v.529h-.529zm1.058 0h.529v.529h-.529zm1.058 0h.529v.529H6.35zm1.059 0h.529v.529h-.529zm-6.88.529h.529v.529H.529zm1.059 0h.529v.529h-.529zm1.058 0h.529v.529h-.529zm1.058 0h.529v.529h-.529zm1.059 0h.529v.529h-.529zm1.058 0h.529v.529h-.529zm1.058 0h.529v.529h-.529zm1.059 0h.529v.529h-.529zM0 1.588h.529v.529H0zm1.058 0h.529v.529h-.529zm1.059 0h.529v.529h-.529zm1.058 0h.529v.529h-.529zm1.059 0h.529v.529h-.529zm1.058 0h.529v.529h-.529zm1.058 0h.529v.529H6.35zm1.059 0h.529v.529h-.529zm-6.88.529h.529v.529H.529zm1.059 0h.529v.529h-.529zm1.058 0h.529v.529h-.529zm1.058 0h.529v.529h-.529zm1.059 0h.529v.529h-.529zm1.058 0h.529v.529h-.529zm1.058 0h.529v.529h-.529zm1.059 0h.529v.529h-.529zM0 2.646h.529v.529H0zm1.058 0h.529v.529h-.529zm1.059 0h.529v.529h-.529zm1.058 0h.529v.529h-.529zm1.059 0h.529v.529h-.529zm1.058 0h.529v.529h-.529zm1.058 0h.529v.529H6.35zm1.059 0h.529v.529h-.529zm-6.88.529h.529v.529H.529zm1.059 0h.529v.529h-.529zm1.058 0h.529v.529h-.529zm1.058 0h.529v.529h-.529zm1.059 0h.529v.529h-.529zm1.058 0h.529v.529h-.529zm1.058 0h.529v.529h-.529zm1.059 0h.529v.529h-.529zM0 3.704h.529v.529H0zm1.058 0h.529v.529h-.529zm1.059 0h.529v.529h-.529zm1.058 0h.529v.529h-.529zm1.059 0h.529v.529h-.529zm1.058 0h.529v.529h-.529zm1.058 0h.529v.529H6.35zm1.059 0h.529v.529h-.529zm-6.88.53h.529v.529H.529zm1.059 0h.529v.529h-.529zm1.058 0h.529v.529h-.529zm1.058 0h.529v.529h-.529zm1.059 0h.529v.529h-.529zm1.058 0h.529v.529h-.529zm1.058 0h.529v.529h-.529zm1.059 0h.529v.529h-.529zM0 4.763h.529v.529H0zm1.058 0h.529v.529h-.529zm1.059 0h.529v.529h-.529zm1.058 0h.529v.529h-.529zm1.059 0h.529v.529h-.529zm1.058 0h.529v.529h-.529zm1.058 0h.529v.529H6.35zm1.059 0h.529v.529h-.529zm-6.88.529h.529v.529H.529zm1.059 0h.529v.529h-.529zm1.058 0h.529v.529h-.529zm1.058 0h.529v.529h-.529zm1.059 0h.529v.529h-.529zm1.058 0h.529v.529h-.529zm1.058 0h.529v.529h-.529zm1.059 0h.529v.529h-.529zM0 5.821h.529v.529H0zm1.058 0h.529v.529h-.529zm1.059 0h.529v.529h-.529zm1.058 0h.529v.529h-.529zm1.059 0h.529v.529h-.529zm1.058 0h.529v.529h-.529zm1.058 0h.529v.529H6.35zm1.059 0h.529v.529h-.529zm-6.88.529h.529v.529H.529zm1.059 0h.529v.529h-.529zm1.058 0h.529v.529h-.529zm1.058 0h.529v.529h-.529zm1.059 0h.529v.529h-.529zm1.058 0h.529v.529h-.529zm1.058 0h.529v.529h-.529zm1.059 0h.529v.529h-.529zM0 6.879h.529v.529H0zm1.058 0h.529v.529h-.529zm1.059 0h.529v.529h-.529zm1.058 0h.529v.529h-.529zm1.059 0h.529v.529h-.529zm1.058 0h.529v.529h-.529zm1.058 0h.529v.529H6.35zm1.059 0h.529v.529h-.529zm-6.88.53h.529v.529H.529zm1.059 0h.529v.529h-.529zm1.058 0h.529v.529h-.529zm1.058 0h.529v.529h-.529zm1.059 0h.529v.529h-.529zm1.058 0h.529v.529h-.529zm1.058 0h.529v.529h-.529zm1.059 0h.529v.529h-.529zM0 7.938h.529v.529H0zm1.058 0h.529v.529h-.529zm1.059 0h.529v.529h-.529zm1.058 0h.529v.529h-.529zm1.059 0h.529v.529h-.529zm1.058 0h.529v.529h-.529zm1.058 0h.529v.529H6.35zm1.059 0h.529v.529h-.529z"/></svg>