<svg width="32" height="32" viewBox="0 0 8.467 8.467" xmlns="http://www.w3.org/2000/svg"><path style="fill:#000;stroke-width:.34335;stop-color:#000" d="M.529 0h.529v.529H.529zM1.588 0h.529v.529h-.529zM2.646 0h.529v.529h-.529zM3.704 0h.529v.529h-.529zM4.763 0h.529v.529h-.529zM5.821 0h.529v.529h-.529zM6.879 0h.529v.529h-.529zM7.938 0h.529v.529h-.529zM0 .529h.529v.529H0zM1.058.529h.529v.529h-.529zM2.117.529h.529v.529h-.529zM3.175.529h.529v.529h-.529zM4.234.529h.529v.529h-.529zM5.292.529h.529v.529h-.529zM6.35.529h.529v.529H6.35zM7.409.529h.529v.529h-.529zM.529 1.058h.529v.529H.529zM1.588 1.058h.529v.529h-.529zM2.646 1.058h.529v.529h-.529zM3.704 1.058h.529v.529h-.529zM4.763 1.058h.529v.529h-.529zM5.821 1.058h.529v.529h-.529zM6.879 1.058h.529v.529h-.529zM7.938 1.058h.529v.529h-.529zM0 1.588h.529v.529H0zM1.058 1.588h.529v.529h-.529zM2.117 1.588h.529v.529h-.529zM3.175 1.588h.529v.529h-.529zM4.234 1.588h.529v.529h-.529zM5.292 1.588h.529v.529h-.529zM6.35 1.588h.529v.529H6.35zM7.409 1.588h.529v.529h-.529zM.529 2.117h.529v.529H.529zM1.588 2.117h.529v.529h-.529zM2.646 2.117h.529v.529h-.529zM3.704 2.117h.529v.529h-.529zM4.763 2.117h.529v.529h-.529zM5.821 2.117h.529v.529h-.529zM6.879 2.117h.529v.529h-.529zM7.938 2.117h.529v.529h-.529zM0 2.646h.529v.529H0zM1.058 2.646h.529v.529h-.529zM2.117 2.646h.529v.529h-.529zM3.175 2.646h.529v.529h-.529zM4.234 2.646h.529v.529h-.529zM5.292 2.646h.529v.529h-.529zM6.35 2.646h.529v.529H6.35zM7.409 2.646h.529v.529h-.529zM.529 3.175h.529v.529H.529zM1.588 3.175h.529v.529h-.529zM2.646 3.175h.529v.529h-.529zM3.704 3.175h.529v.529h-.529zM4.763 3.175h.529v.529h-.529zM5.821 3.175h.529v.529h-.529zM6.879 3.175h.529v.529h-.529zM7.938 3.175h.529v.529h-.529zM0 3.704h.529v.529H0zM1.058 3.704h.529v.529h-.529zM2.117 3.704h.529v.529h-.529zM3.175 3.704h.529v.529h-.529zM4.234 3.704h.529v.529h-.529zM5.292 3.704h.529v.529h-.529zM6.35 3.704h.529v.529H6.35zM7.409 3.704h.529v.529h-.529zM.529 4.234h.529v.529H.529zM1.588 4.234h.529v.529h-.529zM2.646 4.234h.529v.529h-.529zM3.704 4.234h.529v.529h-.529zM4.763 4.234h.529v.529h-.529zM5.821 4.234h.529v.529h-.529zM6.879 4.234h.529v.529h-.529zM7.938 4.234h.529v.529h-.529zM0 4.763h.529v.529H0zM1.058 4.763h.529v.529h-.529zM2.117 4.763h.529v.529h-.529zM3.175 4.763h.529v.529h-.529zM4.234 4.763h.529v.529h-.529zM5.292 4.763h.529v.529h-.529zM6.35 4.763h.529v.529H6.35zM7.409 4.763h.529v.529h-.529zM.529 5.292h.529v.529H.529zM1.588 5.292h.529v.529h-.529zM2.646 5.292h.529v.529h-.529zM3.704 5.292h.529v.529h-.529zM4.763 5.292h.529v.529h-.529zM5.821 5.292h.529v.529h-.529zM6.879 5.292h.529v.529h-.529zM7.938 5.292h.529v.529h-.529zM0 5.821h.529v.529H0zM1.058 5.821h.529v.529h-.529zM2.117 5.821h.529v.529h-.529zM3.175 5.821h.529v.529h-.529zM4.234 5.821h.529v.529h-.529zM5.292 5.821h.529v.529h-.529zM6.35 5.821h.529v.529H6.35zM7.409 5.821h.529v.529h-.529zM.529 6.35h.529v.529H.529zM1.588 6.35h.529v.529h-.529zM2.646 6.35h.529v.529h-.529zM3.704 6.35h.529v.529h-.529zM4.763 6.35h.529v.529h-.529zM5.821 6.35h.529v.529h-.529zM6.879 6.35h.529v.529h-.529zM7.938 6.35h.529v.529h-.529zM0 6.879h.529v.529H0zM1.058 6.879h.529v.529h-.529zM2.117 6.879h.529v.529h-.529zM3.175 6.879h.529v.529h-.529zM4.234 6.879h.529v.529h-.529zM5.292 6.879h.529v.529h-.529zM6.35 6.879h.529v.529H6.35zM7.409 6.879h.529v.529h-.529zM.529 7.409h.529v.529H.529zM1.588 7.409h.529v.529h-.529zM2.646 7.409h.529v.529h-.529zM3.704 7.409h.529v.529h-.529zM4.763 7.409h.529v.529h-.529zM5.821 7.409h.529v.529h-.529zM6.879 7.409h.529v.529h-.529zM7.938 7.409h.529v.529h-.529zM0 7.938h.529v.529H0zM1.058 7.938h.529v.529h-.529zM2.117 7.938h.529v.529h-.529zM3.175 7.938h.529v.529h-.529zM4.234 7.938h.529v.529h-.529zM5.292 7.938h.529v.529h-.529zM6.35 7.938h.529v.529H6.35zM7.409 7.938h.529v.529h-.529z"/></svg>