<svg width="32" height="32" viewBox="0 0 8.467 8.467" xmlns="http://www.w3.org/2000/svg"><path style="fill:#000;stroke-width:.264583" d="M2.381.529h1.852v1.852H2.381ZM0 4.233h.529v1.852H0Zm.529 1.852h1.852v1.852H.529Zm1.852-1.852h1.852v1.852H2.381Zm0 3.705h1.852v.529H2.381Zm1.852-1.853h1.852v1.852H4.233Zm1.852-1.852h1.852v1.852H6.085ZM4.233 2.381h1.852v1.852H4.233Zm0-2.381h1.852v.529H4.233Zm1.852.529h1.852v1.852H6.085Zm1.853 1.852h.529v1.852h-.529Zm0-2.381h.529v.529h-.529ZM.529 2.381h1.852v1.852H.529Zm5.556 5.557h1.852v.529H6.085Zm1.853-1.853h.529v1.852h-.529ZM0 7.938h.529v.529H0ZM.529 0h1.852v.529H.529ZM0 .529h.529v1.852H0Z"/></svg>