<svg width="32" height="32" viewBox="0 0 8.467 8.467" xmlns="http://www.w3.org/2000/svg"><path style="fill:#000;fill-opacity:1;stroke:none;stroke-width:.264583" d="M8.467 2.117v2.116h-.53a.53 2.117 0 0 1 0-.045.53 2.117 0 0 1 .53-2.071ZM4.233.53v3.704H.53v-.096A3.704 3.704 0 0 1 4.233.53Z"/><path style="fill:#000;stroke-width:.476269;stop-color:#000" d="M2.117 0A2.117 2.117 0 0 1 0 2.117V0Z"/><path style="fill:#000;fill-opacity:1;stroke:none;stroke-width:.264583" d="M0 6.35V4.234h.53a.53 2.117 0 0 1 0 .045A.53 2.117 0 0 1 0 6.35ZM4.234 7.938V4.234h3.704v.095a3.704 3.704 0 0 1-3.704 3.609ZM6.35.001 4.234-.001v.53a2.117.53.053 0 0 .045 0A2.117.53.053 0 0 6.35 0ZM2.117 8.464l2.116.002v-.53a2.117.53.053 0 0-.045 0 2.117.53.053 0 0-2.071.528z"/><path style="fill:#000;stroke-width:.476269;stop-color:#000" d="M6.35 8.467A2.117 2.117 0 0 1 8.467 6.35v2.117Z"/></svg>