<svg width="32" height="32" viewBox="0 0 8.467 8.467" xmlns="http://www.w3.org/2000/svg"><path style="fill:#000;stroke-width:.187088" d="M.529 0h1.852v.529H.529zM0 .529h.529v1.852H0z"/><path style="fill:#000;stroke-width:.264583" d="M0 7.938h.529v.529H0z"/><path style="fill:#000;stroke-width:.187088" d="M6.085 7.938h1.852v.529H6.085zm1.853-1.853h.529v1.852h-.529z"/><path style="fill:#000;stroke-width:.264583" d="M7.938 0h.529v.529h-.529zM0 4.233h.529v1.852H0z"/><path style="fill:#000;stroke-width:.999999" d="M9 2v7h7V2Zm2 2h3v3h-3z" transform="scale(.26458)"/><path style="fill:#000;stroke-width:.264583" d="M2.381 7.938h1.852v.529H2.381zM4.233 0h1.852v.529H4.233zm3.705 2.381h.529v1.852h-.529zm-7.408 0v1.852h1.85V2.381Zm.528.53h.794v.793h-.794zM6.085.53v1.85h1.852V.53Zm.53.528h.793v.794h-.793zM4.233 2.381v1.852h1.852V2.381Zm.53.53h.793v.793h-.794zM2.381 4.233v1.852h1.852V4.233Zm.53.53h.793v.793H2.91zM.53 6.085v1.852h1.85V6.085Zm.528.53h.794v.793h-.794zm5.027-2.382v1.852h1.852V4.233Zm.53.53h.793v.793h-.793zM4.233 6.085v1.852h1.852V6.085Zm.53.53h.793v.793h-.794z"/></svg>