<svg width="32" height="32" viewBox="0 0 8.467 8.467" xmlns="http://www.w3.org/2000/svg"><path style="stroke-width:0" d="M6.88 2.91a1.323 1.323 0 0 1-1.324 1.324A1.323 1.323 0 0 1 4.234 2.91a1.323 1.323 0 0 1 1.322-1.323A1.323 1.323 0 0 1 6.88 2.91Z"/><path style="stroke-width:0" d="M4.234 2.91A1.323 1.323 0 0 1 2.91 4.235 1.323 1.323 0 0 1 1.588 2.91 1.323 1.323 0 0 1 2.91 1.588 1.323 1.323 0 0 1 4.234 2.91ZM6.88 5.556A1.323 1.323 0 0 1 5.555 6.88a1.323 1.323 0 0 1-1.322-1.323 1.323 1.323 0 0 1 1.322-1.322A1.323 1.323 0 0 1 6.88 5.556Z"/><path style="stroke-width:0" d="M4.234 5.556A1.323 1.323 0 0 1 2.91 6.88a1.323 1.323 0 0 1-1.323-1.323A1.323 1.323 0 0 1 2.91 4.234a1.323 1.323 0 0 1 1.323 1.322Z"/><path style="stroke-width:0" d="M2.91 2.91h2.646v2.646H2.911Z"/></svg>