<?xml version="1.0" encoding="UTF-8" standalone="no"?>
<svg
   width="32"
   height="32"
   viewBox="0 0 8.467 8.467"
   version="1.1"
   id="svg1513"
   sodipodi:docname="coalBorder.svg"
   inkscape:version="1.2 (dc2aeda, 2022-05-15)"
   xmlns:inkscape="http://www.inkscape.org/namespaces/inkscape"
   xmlns:sodipodi="http://sodipodi.sourceforge.net/DTD/sodipodi-0.dtd"
   xmlns="http://www.w3.org/2000/svg"
   xmlns:svg="http://www.w3.org/2000/svg">
  <defs
     id="defs1517" />
  <sodipodi:namedview
     id="namedview1515"
     pagecolor="#505050"
     bordercolor="#ffffff"
     borderopacity="1"
     inkscape:showpageshadow="0"
     inkscape:pageopacity="0"
     inkscape:pagecheckerboard="1"
     inkscape:deskcolor="#505050"
     showgrid="true"
     inkscape:zoom="32.09375"
     inkscape:cx="15.984421"
     inkscape:cy="16"
     inkscape:window-width="1390"
     inkscape:window-height="1205"
     inkscape:window-x="0"
     inkscape:window-y="25"
     inkscape:window-maximized="0"
     inkscape:current-layer="svg1513">
    <inkscape:grid
       type="xygrid"
       id="grid2051"
       empspacing="4" />
  </sodipodi:namedview>
  <path
     id="circle2109"
     style="stroke-width:0"
     d="M 6.8794377,2.9105318 A 1.3229687,1.3229687 0 0 1 5.556469,4.2335005 1.3229687,1.3229687 0 0 1 4.2335002,2.9105318 1.3229687,1.3229687 0 0 1 5.556469,1.587563 1.3229687,1.3229687 0 0 1 6.8794377,2.9105318 Z" />
  <path
     id="circle2111"
     style="stroke-width:0"
     d="M 4.2335,2.9105318 A 1.3229687,1.3229687 0 0 1 2.9105313,4.2335005 1.3229687,1.3229687 0 0 1 1.5875626,2.9105318 1.3229687,1.3229687 0 0 1 2.9105313,1.587563 1.3229687,1.3229687 0 0 1 4.2335,2.9105318 Z" />
  <path
     id="path2107"
     style="stroke-width:0"
     d="M 6.8794377,5.556469 A 1.3229687,1.3229687 0 0 1 5.556469,6.8794377 1.3229687,1.3229687 0 0 1 4.2335002,5.556469 1.3229687,1.3229687 0 0 1 5.556469,4.2335002 1.3229687,1.3229687 0 0 1 6.8794377,5.556469 Z" />
  <path
     id="path2105"
     style="stroke-width:0"
     d="M 4.2335,5.556469 A 1.3229687,1.3229687 0 0 1 2.9105313,6.8794377 1.3229687,1.3229687 0 0 1 1.5875626,5.556469 1.3229687,1.3229687 0 0 1 2.9105313,4.2335002 1.3229687,1.3229687 0 0 1 4.2335,5.556469 Z" />
  <path
     id="rect2165"
     style="stroke-width:0"
     d="M 2.9105313,2.9105313 H 5.5564687 V 5.5564687 H 2.9105313 Z" />
</svg>
