<?xml version="1.0" encoding="UTF-8" standalone="no"?>
<!-- Created with Inkscape (http://www.inkscape.org/) -->

<svg
   width="32"
   height="32"
   viewBox="0 0 8.4666666 8.4666668"
   version="1.1"
   id="svg5"
   inkscape:version="1.2 (dc2aeda, 2022-05-15)"
   sodipodi:docname="commandBlockChains.svg"
   xmlns:inkscape="http://www.inkscape.org/namespaces/inkscape"
   xmlns:sodipodi="http://sodipodi.sourceforge.net/DTD/sodipodi-0.dtd"
   xmlns="http://www.w3.org/2000/svg"
   xmlns:svg="http://www.w3.org/2000/svg"
   xmlns:rdf="http://www.w3.org/1999/02/22-rdf-syntax-ns#"
   xmlns:cc="http://creativecommons.org/ns#">
  <sodipodi:namedview
     id="namedview7"
     pagecolor="#ffffff"
     bordercolor="#111111"
     borderopacity="1"
     inkscape:pageshadow="0"
     inkscape:pageopacity="0"
     inkscape:pagecheckerboard="1"
     inkscape:document-units="mm"
     showgrid="true"
     width="32mm"
     units="px"
     objecttolerance="10000"
     guidetolerance="10000"
     inkscape:snap-perpendicular="true"
     inkscape:snap-tangential="true"
     inkscape:zoom="35.09375"
     inkscape:cx="15.985752"
     inkscape:cy="16"
     inkscape:window-width="2560"
     inkscape:window-height="1301"
     inkscape:window-x="0"
     inkscape:window-y="25"
     inkscape:window-maximized="0"
     inkscape:current-layer="layer1"
     inkscape:showpageshadow="0"
     inkscape:deskcolor="#d1d1d1">
    <inkscape:grid
       type="xygrid"
       id="grid9"
       units="px"
       empspacing="4" />
  </sodipodi:namedview>
  <defs
     id="defs2" />
  <g
     inkscape:label="Layer 1"
     inkscape:groupmode="layer"
     id="layer1">
    <path
       style="fill:#000000;stroke:none;stroke-width:0.264583px;stroke-linecap:butt;stroke-linejoin:miter;stroke-opacity:1"
       d="M 6.6145826,0.52916664 6.3499993,1.0583333 7.4083326,2.1166666 7.9374992,1.8520833 Z"
       id="path6342"
       sodipodi:nodetypes="ccccc" />
    <path
       style="fill:#000000;stroke:none;stroke-width:0.264583px;stroke-linecap:butt;stroke-linejoin:miter;stroke-opacity:1"
       d="M 6.6145826,7.9374992 6.3499993,7.4083326 7.4083326,6.3499993 7.9374992,6.6145826 Z"
       id="path6319"
       sodipodi:nodetypes="ccccc" />
    <path
       style="fill:#000000;stroke:none;stroke-width:0.264583px;stroke-linecap:butt;stroke-linejoin:miter;stroke-opacity:1"
       d="M 1.8520833,7.9374992 2.1166666,7.4083326 1.0583333,6.3499993 0.52916667,6.6145826 Z"
       id="path6317"
       sodipodi:nodetypes="ccccc" />
    <rect
       style="fill:#000000;stroke:none;stroke-width:0"
       id="rect6311"
       width="0.52916664"
       height="1.5875"
       x="0.52916664"
       y="3.4395833" />
    <rect
       style="fill:#000000;stroke:none;stroke-width:0"
       id="rect6313"
       width="1.5875"
       height="0.52916664"
       x="3.4395833"
       y="7.4083333" />
    <rect
       style="fill:#000000;stroke:none;stroke-width:0"
       id="rect6315"
       width="0.52916664"
       height="1.5875"
       x="7.4083333"
       y="3.4395833" />
    <rect
       style="fill:#000000;stroke:none;stroke-width:0"
       id="rect6309"
       width="1.5875"
       height="0.52916664"
       x="3.4395833"
       y="0.52916664" />
    <path
       style="fill:#000000;stroke:none;stroke-width:0.264583px;stroke-linecap:butt;stroke-linejoin:miter;stroke-opacity:1"
       d="M 1.8520833,0.52916667 2.1166666,1.0583333 1.0583333,2.1166666 0.52916667,1.8520833 Z"
       id="path6271"
       sodipodi:nodetypes="ccccc" />
    <path
       id="path5984"
       style="fill:#666666;stroke-width:0"
       d="M 0.79375,1.5874999 A 0.79374999,0.79374999 0 0 0 0,2.3812498 v 0.5291667 a 0.79374999,0.79374999 0 0 0 0.79375,0.79375 0.79374999,0.79374999 0 0 0 0.79375,-0.79375 V 2.3812498 a 0.79374999,0.79374999 0 0 0 0,-0.018087 A 0.79374999,0.79374999 0 0 0 1.541508,2.1156327 0.79374999,0.79374999 0 0 0 1.535308,2.0985797 0.79374999,0.79374999 0 0 0 1.521872,2.0649897 0.79374999,0.79374999 0 0 0 1.514642,2.0484537 0.79374999,0.79374999 0 0 0 1.498622,2.0158977 0.79374999,0.79374999 0 0 0 1.489832,1.9998777 0.79374999,0.79374999 0 0 0 1.471745,1.9688717 0.79374999,0.79374999 0 0 0 1.462445,1.9533687 0.79374999,0.79374999 0 0 0 1.442289,1.9233966 0.79374999,0.79374999 0 0 0 1.431437,1.9089272 0.79374999,0.79374999 0 0 0 1.409216,1.8805052 0.79374999,0.79374999 0 0 0 1.397847,1.8665525 0.79374999,0.79374999 0 0 0 1.374076,1.8396808 0.79374999,0.79374999 0 0 0 1.361157,1.8262449 0.79374999,0.79374999 0 0 0 1.335319,1.8009235 0.79374999,0.79374999 0 0 0 1.3224,1.789038 0.79374999,0.79374999 0 0 0 1.294495,1.7657836 0.79374999,0.79374999 0 0 0 1.280542,1.7544148 0.79374999,0.79374999 0 0 0 1.251603,1.7327107 0.79374999,0.79374999 0 0 0 1.236617,1.7223754 0.79374999,0.79374999 0 0 0 1.206128,1.7032554 0.79374999,0.79374999 0 0 0 1.190625,1.6939554 0.79374999,0.79374999 0 0 0 1.159102,1.6763854 0.79374999,0.79374999 0 0 0 1.142565,1.6681154 0.79374999,0.79374999 0 0 0 1.110009,1.6531294 0.79374999,0.79374999 0 0 0 1.093473,1.6464094 0.79374999,0.79374999 0 0 0 1.059367,1.6334904 a 0.79374999,0.79374999 0 0 0 -0.017053,-0.0062 0.79374999,0.79374999 0 0 0 -0.034623,-0.010335 0.79374999,0.79374999 0 0 0 -0.0170532,-0.00465 0.79374999,0.79374999 0 0 0 -0.03514,-0.00827 0.79374999,0.79374999 0 0 0 -0.0180867,-0.00362 0.79374999,0.79374999 0 0 0 -0.0356567,-0.00568 0.79374999,0.79374999 0 0 0 -0.0180867,-0.00207 0.79374999,0.79374999 0 0 0 -0.089917,-0.00517 z m 0,0.5291666 A 0.26458332,0.26458332 0 0 1 1.0583333,2.3812498 V 2.9104165 A 0.26458332,0.26458332 0 0 1 0.79375,3.1749998 0.26458332,0.26458332 0 0 1 0.52916667,2.9104165 V 2.3812498 a 0.26458332,0.26458332 0 0 1 0.00155,-0.029456 A 0.26458332,0.26458332 0 0 1 0.79375,2.1166665 Z" />
    <path
       id="path6269"
       style="fill:#666666;stroke-width:0"
       d="M 1.587528,0.79377357 A 0.79374999,0.79374999 0 0 0 2.3812778,1.5875236 H 2.9104445 A 0.79374999,0.79374999 0 0 0 3.7041945,0.79377357 0.79374999,0.79374999 0 0 0 2.9104445,2.3466667e-5 H 2.3812778 a 0.79374999,0.79374999 0 0 0 -0.018087,0 0.79374999,0.79374999 0 0 0 -0.24753,0.04599200333 0.79374999,0.79374999 0 0 0 -0.017053,0.0062 0.79374999,0.79374999 0 0 0 -0.03359,0.013436 0.79374999,0.79374999 0 0 0 -0.016536,0.00723 0.79374999,0.79374999 0 0 0 -0.032556,0.01602 0.79374999,0.79374999 0 0 0 -0.01602,0.00879 0.79374999,0.79374999 0 0 0 -0.031006,0.018087 0.79374999,0.79374999 0 0 0 -0.015503,0.0093 0.79374999,0.79374999 0 0 0 -0.029972,0.020156 0.79374999,0.79374999 0 0 0 -0.014469,0.010852 0.79374999,0.79374999 0 0 0 -0.028422,0.022221 0.79374999,0.79374999 0 0 0 -0.013953,0.011369 0.79374999,0.79374999 0 0 0 -0.026872,0.023771 0.79374999,0.79374999 0 0 0 -0.013436,0.012919 0.79374999,0.79374999 0 0 0 -0.025321,0.025838 0.79374999,0.79374999 0 0 0 -0.011886,0.012919 0.79374999,0.79374999 0 0 0 -0.023254,0.027905 0.79374999,0.79374999 0 0 0 -0.011369,0.013953 0.79374999,0.79374999 0 0 0 -0.021704,0.028939 0.79374999,0.79374999 0 0 0 -0.010335,0.014986 0.79374999,0.79374999 0 0 0 -0.01912,0.030489 0.79374999,0.79374999 0 0 0 -0.0093,0.015503 0.79374999,0.79374999 0 0 0 -0.01757,0.031523 0.79374999,0.79374999 0 0 0 -0.00827,0.016537 0.79374999,0.79374999 0 0 0 -0.014986,0.032556 0.79374999,0.79374999 0 0 0 -0.00672,0.016536 0.79374999,0.79374999 0 0 0 -0.012919,0.034106 0.79374999,0.79374999 0 0 0 -0.0062,0.017053 0.79374999,0.79374999 0 0 0 -0.010335,0.034623 0.79374999,0.79374999 0 0 0 -0.00465,0.017053 0.79374999,0.79374999 0 0 0 -0.00827,0.03514 0.79374999,0.79374999 0 0 0 -0.00362,0.018087 0.79374999,0.79374999 0 0 0 -0.00568,0.035657 0.79374999,0.79374999 0 0 0 -0.00207,0.018087 0.79374999,0.79374999 0 0 0 -0.00517,0.089917 z m 0.5291666,0 A 0.26458332,0.26458332 0 0 1 2.3812778,0.52919024 H 2.9104445 A 0.26458332,0.26458332 0 0 1 3.1750278,0.79377357 0.26458332,0.26458332 0 0 1 2.9104445,1.0583569 H 2.3812778 A 0.26458332,0.26458332 0 0 1 2.3518218,1.0568069 0.26458332,0.26458332 0 0 1 2.1166946,0.79377357 Z" />
    <path
       id="path6275"
       style="fill:#666666;stroke-width:0"
       d="M 0.79375,6.8791379 A 0.79374999,0.79374999 0 0 1 0,6.085388 V 5.5562214 A 0.79374999,0.79374999 0 0 1 0.79375,4.7624715 0.79374999,0.79374999 0 0 1 1.5875,5.5562214 V 6.085388 a 0.79374999,0.79374999 0 0 1 0,0.018087 0.79374999,0.79374999 0 0 1 -0.045992,0.2475301 0.79374999,0.79374999 0 0 1 -0.0062,0.017053 0.79374999,0.79374999 0 0 1 -0.013436,0.03359 0.79374999,0.79374999 0 0 1 -0.00723,0.016536 0.79374999,0.79374999 0 0 1 -0.01602,0.032556 0.79374999,0.79374999 0 0 1 -0.00879,0.01602 0.79374999,0.79374999 0 0 1 -0.018087,0.031006 0.79374999,0.79374999 0 0 1 -0.0093,0.015503 0.79374999,0.79374999 0 0 1 -0.020156,0.029972 0.79374999,0.79374999 0 0 1 -0.010852,0.014469 0.79374999,0.79374999 0 0 1 -0.022221,0.028422 0.79374999,0.79374999 0 0 1 -0.011369,0.013953 0.79374999,0.79374999 0 0 1 -0.023771,0.026872 0.79374999,0.79374999 0 0 1 -0.012919,0.013436 0.79374999,0.79374999 0 0 1 -0.025838,0.025321 0.79374999,0.79374999 0 0 1 -0.012919,0.011885 0.79374999,0.79374999 0 0 1 -0.027905,0.023254 0.79374999,0.79374999 0 0 1 -0.013953,0.011369 0.79374999,0.79374999 0 0 1 -0.028939,0.021704 0.79374999,0.79374999 0 0 1 -0.014986,0.010335 0.79374999,0.79374999 0 0 1 -0.030489,0.01912 0.79374999,0.79374999 0 0 1 -0.015503,0.0093 0.79374999,0.79374999 0 0 1 -0.031523,0.01757 0.79374999,0.79374999 0 0 1 -0.016537,0.00827 0.79374999,0.79374999 0 0 1 -0.032556,0.014986 0.79374999,0.79374999 0 0 1 -0.016536,0.00672 0.79374999,0.79374999 0 0 1 -0.034106,0.012919 0.79374999,0.79374999 0 0 1 -0.017053,0.0062 0.79374999,0.79374999 0 0 1 -0.034623,0.010335 0.79374999,0.79374999 0 0 1 -0.0170532,0.00465 0.79374999,0.79374999 0 0 1 -0.03514,0.00827 0.79374999,0.79374999 0 0 1 -0.0180867,0.00362 0.79374999,0.79374999 0 0 1 -0.0356567,0.00568 0.79374999,0.79374999 0 0 1 -0.0180867,0.00207 0.79374999,0.79374999 0 0 1 -0.089917,0.00517 z m 0,-0.5291666 A 0.26458332,0.26458332 0 0 0 1.0583333,6.085388 V 5.5562214 A 0.26458332,0.26458332 0 0 0 0.79375,5.2916381 0.26458332,0.26458332 0 0 0 0.52916667,5.5562214 V 6.085388 a 0.26458332,0.26458332 0 0 0 0.00155,0.029456 A 0.26458332,0.26458332 0 0 0 0.79375,6.3499713 Z" />
    <path
       id="path6277"
       style="fill:#666666;stroke-width:0"
       d="M 1.587528,7.6728643 A 0.79374999,0.79374999 0 0 1 2.3812778,6.8791142 h 0.5291667 a 0.79374999,0.79374999 0 0 1 0.79375,0.7937501 0.79374999,0.79374999 0 0 1 -0.79375,0.7937501 H 2.3812778 a 0.79374999,0.79374999 0 0 1 -0.018087,0 0.79374999,0.79374999 0 0 1 -0.24753,-0.045992 0.79374999,0.79374999 0 0 1 -0.017053,-0.0062 0.79374999,0.79374999 0 0 1 -0.03359,-0.013436 0.79374999,0.79374999 0 0 1 -0.016536,-0.00723 0.79374999,0.79374999 0 0 1 -0.032556,-0.01602 0.79374999,0.79374999 0 0 1 -0.01602,-0.00879 0.79374999,0.79374999 0 0 1 -0.031006,-0.018087 0.79374999,0.79374999 0 0 1 -0.015503,-0.0093 0.79374999,0.79374999 0 0 1 -0.029972,-0.020156 0.79374999,0.79374999 0 0 1 -0.014469,-0.010852 0.79374999,0.79374999 0 0 1 -0.028422,-0.022221 0.79374999,0.79374999 0 0 1 -0.013953,-0.011369 0.79374999,0.79374999 0 0 1 -0.026872,-0.023771 0.79374999,0.79374999 0 0 1 -0.013436,-0.012919 0.79374999,0.79374999 0 0 1 -0.025321,-0.025838 0.79374999,0.79374999 0 0 1 -0.011886,-0.012919 0.79374999,0.79374999 0 0 1 -0.023254,-0.027905 0.79374999,0.79374999 0 0 1 -0.011369,-0.013953 0.79374999,0.79374999 0 0 1 -0.021704,-0.028939 0.79374999,0.79374999 0 0 1 -0.010335,-0.014986 0.79374999,0.79374999 0 0 1 -0.01912,-0.030489 0.79374999,0.79374999 0 0 1 -0.0093,-0.015503 0.79374999,0.79374999 0 0 1 -0.01757,-0.031523 0.79374999,0.79374999 0 0 1 -0.00827,-0.016537 0.79374999,0.79374999 0 0 1 -0.014986,-0.032556 0.79374999,0.79374999 0 0 1 -0.00672,-0.016536 0.79374999,0.79374999 0 0 1 -0.012919,-0.034106 0.79374999,0.79374999 0 0 1 -0.0062,-0.017053 0.79374999,0.79374999 0 0 1 -0.010335,-0.034623 0.79374999,0.79374999 0 0 1 -0.00465,-0.017053 0.79374999,0.79374999 0 0 1 -0.00827,-0.03514 0.79374999,0.79374999 0 0 1 -0.00362,-0.018087 0.79374999,0.79374999 0 0 1 -0.00568,-0.035657 0.79374999,0.79374999 0 0 1 -0.00207,-0.018087 0.79374999,0.79374999 0 0 1 -0.00517,-0.089917 z m 0.5291666,0 A 0.26458332,0.26458332 0 0 0 2.3812778,7.9374476 H 2.9104445 A 0.26458332,0.26458332 0 0 0 3.1750278,7.6728643 0.26458332,0.26458332 0 0 0 2.9104445,7.4082809 H 2.3812778 a 0.26458332,0.26458332 0 0 0 -0.029456,0.00155 0.26458332,0.26458332 0 0 0 -0.2351272,0.2630334 z" />
    <path
       id="path6281"
       style="fill:#666666;stroke-width:0"
       d="M 7.6729439,6.8791379 A 0.79374999,0.79374999 0 0 0 8.4666939,6.085388 V 5.5562214 a 0.79374999,0.79374999 0 0 0 -0.79375,-0.7937499 0.79374999,0.79374999 0 0 0 -0.79375,0.7937499 V 6.085388 a 0.79374999,0.79374999 0 0 0 0,0.018087 0.79374999,0.79374999 0 0 0 0.045992,0.2475301 0.79374999,0.79374999 0 0 0 0.0062,0.017053 0.79374999,0.79374999 0 0 0 0.013436,0.03359 0.79374999,0.79374999 0 0 0 0.00723,0.016536 0.79374999,0.79374999 0 0 0 0.01602,0.032556 0.79374999,0.79374999 0 0 0 0.00879,0.01602 0.79374999,0.79374999 0 0 0 0.018087,0.031006 0.79374999,0.79374999 0 0 0 0.0093,0.015503 0.79374999,0.79374999 0 0 0 0.020156,0.029972 0.79374999,0.79374999 0 0 0 0.010852,0.014469 0.79374999,0.79374999 0 0 0 0.022221,0.028422 0.79374999,0.79374999 0 0 0 0.011369,0.013953 0.79374999,0.79374999 0 0 0 0.023771,0.026872 0.79374999,0.79374999 0 0 0 0.012919,0.013436 0.79374999,0.79374999 0 0 0 0.025838,0.025321 0.79374999,0.79374999 0 0 0 0.012919,0.011885 0.79374999,0.79374999 0 0 0 0.027905,0.023254 0.79374999,0.79374999 0 0 0 0.013953,0.011369 0.79374999,0.79374999 0 0 0 0.028939,0.021704 0.79374999,0.79374999 0 0 0 0.014986,0.010335 0.79374999,0.79374999 0 0 0 0.030489,0.01912 0.79374999,0.79374999 0 0 0 0.015503,0.0093 0.79374999,0.79374999 0 0 0 0.031523,0.01757 0.79374999,0.79374999 0 0 0 0.016537,0.00827 0.79374999,0.79374999 0 0 0 0.032556,0.014986 0.79374999,0.79374999 0 0 0 0.016536,0.00672 0.79374999,0.79374999 0 0 0 0.034106,0.012919 0.79374999,0.79374999 0 0 0 0.017053,0.0062 0.79374999,0.79374999 0 0 0 0.034623,0.010335 0.79374999,0.79374999 0 0 0 0.017053,0.00465 0.79374999,0.79374999 0 0 0 0.03514,0.00827 0.79374999,0.79374999 0 0 0 0.018087,0.00362 0.79374999,0.79374999 0 0 0 0.035657,0.00568 0.79374999,0.79374999 0 0 0 0.018087,0.00207 0.79374999,0.79374999 0 0 0 0.089917,0.00517 z m 0,-0.5291666 A 0.26458332,0.26458332 0 0 1 7.4083606,6.085388 V 5.5562214 A 0.26458332,0.26458332 0 0 1 7.6729439,5.2916381 0.26458332,0.26458332 0 0 1 7.9375272,5.5562214 V 6.085388 a 0.26458332,0.26458332 0 0 1 -0.00155,0.029456 0.26458332,0.26458332 0 0 1 -0.2630333,0.2351273 z" />
    <path
       id="path6283"
       style="fill:#666666;stroke-width:0"
       d="M 6.8791659,7.6728643 A 0.79374999,0.79374999 0 0 0 6.0854161,6.8791142 H 5.5562494 A 0.79374999,0.79374999 0 0 0 4.7624995,7.6728643 0.79374999,0.79374999 0 0 0 5.5562494,8.4666144 h 0.5291667 a 0.79374999,0.79374999 0 0 0 0.018087,0 0.79374999,0.79374999 0 0 0 0.24753,-0.045992 0.79374999,0.79374999 0 0 0 0.017053,-0.0062 0.79374999,0.79374999 0 0 0 0.03359,-0.013436 0.79374999,0.79374999 0 0 0 0.016536,-0.00723 0.79374999,0.79374999 0 0 0 0.032556,-0.01602 0.79374999,0.79374999 0 0 0 0.01602,-0.00879 0.79374999,0.79374999 0 0 0 0.031006,-0.018087 0.79374999,0.79374999 0 0 0 0.015503,-0.0093 0.79374999,0.79374999 0 0 0 0.029972,-0.020156 0.79374999,0.79374999 0 0 0 0.014469,-0.010852 0.79374999,0.79374999 0 0 0 0.028422,-0.022221 0.79374999,0.79374999 0 0 0 0.013953,-0.011369 0.79374999,0.79374999 0 0 0 0.026872,-0.023771 0.79374999,0.79374999 0 0 0 0.013436,-0.012919 0.79374999,0.79374999 0 0 0 0.025321,-0.025838 0.79374999,0.79374999 0 0 0 0.011886,-0.012919 0.79374999,0.79374999 0 0 0 0.023254,-0.027905 0.79374999,0.79374999 0 0 0 0.011369,-0.013953 0.79374999,0.79374999 0 0 0 0.021704,-0.028939 0.79374999,0.79374999 0 0 0 0.010335,-0.014986 0.79374999,0.79374999 0 0 0 0.01912,-0.030489 0.79374999,0.79374999 0 0 0 0.0093,-0.015503 0.79374999,0.79374999 0 0 0 0.01757,-0.031523 0.79374999,0.79374999 0 0 0 0.00827,-0.016537 0.79374999,0.79374999 0 0 0 0.014986,-0.032556 0.79374999,0.79374999 0 0 0 0.00672,-0.016536 0.79374999,0.79374999 0 0 0 0.012919,-0.034106 0.79374999,0.79374999 0 0 0 0.0062,-0.017053 0.79374999,0.79374999 0 0 0 0.010335,-0.034623 0.79374999,0.79374999 0 0 0 0.00465,-0.017053 0.79374999,0.79374999 0 0 0 0.00827,-0.03514 0.79374999,0.79374999 0 0 0 0.00362,-0.018087 0.79374999,0.79374999 0 0 0 0.00568,-0.035657 0.79374999,0.79374999 0 0 0 0.00207,-0.018087 0.79374999,0.79374999 0 0 0 0.00517,-0.089917 z m -0.5291666,0 A 0.26458332,0.26458332 0 0 1 6.0854161,7.9374476 H 5.5562494 A 0.26458332,0.26458332 0 0 1 5.2916662,7.6728643 0.26458332,0.26458332 0 0 1 5.5562494,7.4082809 h 0.5291667 a 0.26458332,0.26458332 0 0 1 0.029456,0.00155 0.26458332,0.26458332 0 0 1 0.2351272,0.2630334 z" />
    <path
       id="path6287"
       style="fill:#666666;stroke-width:0"
       d="m 7.6729439,1.5875001 a 0.79374999,0.79374999 0 0 1 0.79375,0.7937499 v 0.5291666 a 0.79374999,0.79374999 0 0 1 -0.79375,0.7937499 0.79374999,0.79374999 0 0 1 -0.79375,-0.7937499 V 2.38125 a 0.79374999,0.79374999 0 0 1 0,-0.018087 0.79374999,0.79374999 0 0 1 0.045992,-0.2475301 0.79374999,0.79374999 0 0 1 0.0062,-0.017053 0.79374999,0.79374999 0 0 1 0.013436,-0.03359 0.79374999,0.79374999 0 0 1 0.00723,-0.016536 0.79374999,0.79374999 0 0 1 0.01602,-0.032556 0.79374999,0.79374999 0 0 1 0.00879,-0.01602 0.79374999,0.79374999 0 0 1 0.018087,-0.031006 0.79374999,0.79374999 0 0 1 0.0093,-0.015503 0.79374999,0.79374999 0 0 1 0.020156,-0.029972 0.79374999,0.79374999 0 0 1 0.010852,-0.014469 0.79374999,0.79374999 0 0 1 0.022221,-0.028422 0.79374999,0.79374999 0 0 1 0.011369,-0.013953 0.79374999,0.79374999 0 0 1 0.023771,-0.026872 0.79374999,0.79374999 0 0 1 0.012919,-0.013436 0.79374999,0.79374999 0 0 1 0.025838,-0.025321 0.79374999,0.79374999 0 0 1 0.012919,-0.011885 0.79374999,0.79374999 0 0 1 0.027905,-0.023254 0.79374999,0.79374999 0 0 1 0.013953,-0.011369 0.79374999,0.79374999 0 0 1 0.028939,-0.021704 0.79374999,0.79374999 0 0 1 0.014986,-0.010335 0.79374999,0.79374999 0 0 1 0.030489,-0.01912 0.79374999,0.79374999 0 0 1 0.015503,-0.0093 0.79374999,0.79374999 0 0 1 0.031523,-0.01757 0.79374999,0.79374999 0 0 1 0.016537,-0.00827 0.79374999,0.79374999 0 0 1 0.032556,-0.014986 0.79374999,0.79374999 0 0 1 0.016536,-0.00672 0.79374999,0.79374999 0 0 1 0.034106,-0.012919 0.79374999,0.79374999 0 0 1 0.017053,-0.0062 0.79374999,0.79374999 0 0 1 0.034623,-0.010335 0.79374999,0.79374999 0 0 1 0.017053,-0.00465 0.79374999,0.79374999 0 0 1 0.03514,-0.00827 0.79374999,0.79374999 0 0 1 0.018087,-0.00362 0.79374999,0.79374999 0 0 1 0.035657,-0.00568 0.79374999,0.79374999 0 0 1 0.018087,-0.00207 0.79374999,0.79374999 0 0 1 0.089917,-0.00517 z m 0,0.5291666 A 0.26458332,0.26458332 0 0 0 7.4083606,2.38125 V 2.9104166 A 0.26458332,0.26458332 0 0 0 7.6729439,3.1749999 0.26458332,0.26458332 0 0 0 7.9375272,2.9104166 V 2.38125 A 0.26458332,0.26458332 0 0 0 7.9359772,2.351794 0.26458332,0.26458332 0 0 0 7.6729439,2.1166667 Z" />
    <path
       id="path6289"
       style="fill:#666666;stroke-width:0"
       d="M 6.8791659,0.79377367 A 0.79374999,0.79374999 0 0 1 6.0854161,1.5875238 H 5.5562494 A 0.79374999,0.79374999 0 0 1 4.7624995,0.79377367 0.79374999,0.79374999 0 0 1 5.5562494,2.3476667e-5 h 0.5291667 a 0.79374999,0.79374999 0 0 1 0.018087,0 0.79374999,0.79374999 0 0 1 0.24753,0.04599200333 0.79374999,0.79374999 0 0 1 0.017053,0.0062 0.79374999,0.79374999 0 0 1 0.03359,0.013436 0.79374999,0.79374999 0 0 1 0.016536,0.00723 0.79374999,0.79374999 0 0 1 0.032556,0.01602 0.79374999,0.79374999 0 0 1 0.01602,0.00879 0.79374999,0.79374999 0 0 1 0.031006,0.018087 0.79374999,0.79374999 0 0 1 0.015503,0.0093 0.79374999,0.79374999 0 0 1 0.029972,0.020156 0.79374999,0.79374999 0 0 1 0.014469,0.010852 0.79374999,0.79374999 0 0 1 0.028422,0.022221 0.79374999,0.79374999 0 0 1 0.013953,0.011369 0.79374999,0.79374999 0 0 1 0.026872,0.023771 0.79374999,0.79374999 0 0 1 0.013436,0.012919 0.79374999,0.79374999 0 0 1 0.025321,0.025838 0.79374999,0.79374999 0 0 1 0.011886,0.012919 0.79374999,0.79374999 0 0 1 0.023254,0.027905 0.79374999,0.79374999 0 0 1 0.011369,0.013953 0.79374999,0.79374999 0 0 1 0.021704,0.028939 0.79374999,0.79374999 0 0 1 0.010335,0.014986 0.79374999,0.79374999 0 0 1 0.01912,0.030489 0.79374999,0.79374999 0 0 1 0.0093,0.015503 0.79374999,0.79374999 0 0 1 0.01757,0.031523 0.79374999,0.79374999 0 0 1 0.00827,0.016537 0.79374999,0.79374999 0 0 1 0.014986,0.032556 0.79374999,0.79374999 0 0 1 0.00672,0.016536 0.79374999,0.79374999 0 0 1 0.012919,0.034106 0.79374999,0.79374999 0 0 1 0.0062,0.017053 0.79374999,0.79374999 0 0 1 0.010335,0.034623 0.79374999,0.79374999 0 0 1 0.00465,0.017053 0.79374999,0.79374999 0 0 1 0.00827,0.03514 0.79374999,0.79374999 0 0 1 0.00362,0.018087 0.79374999,0.79374999 0 0 1 0.00568,0.035657 0.79374999,0.79374999 0 0 1 0.00207,0.018087 0.79374999,0.79374999 0 0 1 0.00517,0.089917 z m -0.5291666,0 A 0.26458332,0.26458332 0 0 0 6.0854161,0.52919034 H 5.5562494 A 0.26458332,0.26458332 0 0 0 5.2916662,0.79377367 0.26458332,0.26458332 0 0 0 5.5562494,1.0583571 h 0.5291667 a 0.26458332,0.26458332 0 0 0 0.029456,-0.00155 0.26458332,0.26458332 0 0 0 0.2351272,-0.26303343 z" />
  </g>
  <metadata
     id="metadata33">
    <rdf:RDF>
      <cc:Work
         rdf:about="">
        <cc:license
           rdf:resource="http://creativecommons.org/licenses/by-sa/4.0/" />
      </cc:Work>
      <cc:License
         rdf:about="http://creativecommons.org/licenses/by-sa/4.0/">
        <cc:permits
           rdf:resource="http://creativecommons.org/ns#Reproduction" />
        <cc:permits
           rdf:resource="http://creativecommons.org/ns#Distribution" />
        <cc:requires
           rdf:resource="http://creativecommons.org/ns#Notice" />
        <cc:requires
           rdf:resource="http://creativecommons.org/ns#Attribution" />
        <cc:permits
           rdf:resource="http://creativecommons.org/ns#DerivativeWorks" />
        <cc:requires
           rdf:resource="http://creativecommons.org/ns#ShareAlike" />
      </cc:License>
    </rdf:RDF>
  </metadata>
</svg>
