<svg width="32" height="32" viewBox="0 0 8.467 8.467" xmlns="http://www.w3.org/2000/svg"><path style="fill:#000;stroke:none;stroke-width:.264583px;stroke-linecap:butt;stroke-linejoin:miter;stroke-opacity:1" d="m6.615.53-.265.528 1.058 1.059.53-.265Zm0 7.407-.265-.529L7.408 6.35l.53.265Zm-4.763 0 .265-.529L1.058 6.35l-.529.265Z"/><path style="fill:#000;stroke:none;stroke-width:0" d="M.529 3.44h.529v1.587H.529zM3.44 7.408h1.587v.529H3.44zM7.408 3.44h.529v1.587h-.529zM3.44.529h1.587v.529H3.44z"/><path style="fill:#000;stroke:none;stroke-width:.264583px;stroke-linecap:butt;stroke-linejoin:miter;stroke-opacity:1" d="m1.852.53.265.528-1.059 1.059-.529-.265Z"/><path style="fill:#666;stroke-width:0" d="M.794 1.587A.794.794 0 0 0 0 2.381v.53a.794.794 0 0 0 .794.793.794.794 0 0 0 .793-.794v-.529a.794.794 0 0 0 0-.018.794.794 0 0 0-.045-.247.794.794 0 0 0-.007-.017.794.794 0 0 0-.013-.034.794.794 0 0 0-.007-.017.794.794 0 0 0-.016-.032.794.794 0 0 0-.01-.016.794.794 0 0 0-.017-.031.794.794 0 0 0-.01-.016.794.794 0 0 0-.02-.03.794.794 0 0 0-.01-.014.794.794 0 0 0-.023-.028.794.794 0 0 0-.011-.014.794.794 0 0 0-.024-.027.794.794 0 0 0-.013-.014.794.794 0 0 0-.026-.025.794.794 0 0 0-.013-.012.794.794 0 0 0-.028-.023.794.794 0 0 0-.013-.012.794.794 0 0 0-.03-.021.794.794 0 0 0-.014-.01.794.794 0 0 0-.03-.02.794.794 0 0 0-.016-.009.794.794 0 0 0-.032-.018.794.794 0 0 0-.016-.008.794.794 0 0 0-.033-.015.794.794 0 0 0-.017-.007.794.794 0 0 0-.034-.013.794.794 0 0 0-.017-.006.794.794 0 0 0-.034-.01.794.794 0 0 0-.017-.005.794.794 0 0 0-.036-.008.794.794 0 0 0-.018-.004.794.794 0 0 0-.035-.005.794.794 0 0 0-.018-.002.794.794 0 0 0-.09-.006zm0 .53a.265.265 0 0 1 .264.264v.53a.265.265 0 0 1-.264.264.265.265 0 0 1-.265-.265v-.529a.265.265 0 0 1 .002-.03.265.265 0 0 1 .263-.234ZM1.588.794a.794.794 0 0 0 .793.794h.53a.794.794 0 0 0 .793-.794A.794.794 0 0 0 2.91 0h-.529a.794.794 0 0 0-.018 0 .794.794 0 0 0-.247.046.794.794 0 0 0-.017.006.794.794 0 0 0-.034.014.794.794 0 0 0-.017.007.794.794 0 0 0-.032.016A.794.794 0 0 0 2 .098a.794.794 0 0 0-.031.018.794.794 0 0 0-.016.01.794.794 0 0 0-.03.02.794.794 0 0 0-.014.01.794.794 0 0 0-.028.022.794.794 0 0 0-.014.012.794.794 0 0 0-.027.023.794.794 0 0 0-.014.013.794.794 0 0 0-.025.026.794.794 0 0 0-.012.013.794.794 0 0 0-.023.028.794.794 0 0 0-.012.014.794.794 0 0 0-.021.029.794.794 0 0 0-.01.015.794.794 0 0 0-.02.03.794.794 0 0 0-.009.016.794.794 0 0 0-.018.031.794.794 0 0 0-.008.017.794.794 0 0 0-.015.033.794.794 0 0 0-.007.016.794.794 0 0 0-.012.034.794.794 0 0 0-.007.017.794.794 0 0 0-.01.035.794.794 0 0 0-.005.017.794.794 0 0 0-.008.035A.794.794 0 0 0 1.6.65a.794.794 0 0 0-.005.036.794.794 0 0 0-.002.018.794.794 0 0 0-.005.09zm.529 0A.265.265 0 0 1 2.38.529h.53a.265.265 0 0 1 .264.265.265.265 0 0 1-.265.264H2.38a.265.265 0 0 1-.03-.001.265.265 0 0 1-.234-.263ZM.794 6.88A.794.794 0 0 1 0 6.084v-.529a.794.794 0 0 1 .794-.794.794.794 0 0 1 .793.794v.53a.794.794 0 0 1 0 .017.794.794 0 0 1-.045.248.794.794 0 0 1-.007.017.794.794 0 0 1-.013.034.794.794 0 0 1-.007.016.794.794 0 0 1-.016.033.794.794 0 0 1-.01.016.794.794 0 0 1-.017.03.794.794 0 0 1-.01.016.794.794 0 0 1-.02.03.794.794 0 0 1-.01.015.794.794 0 0 1-.023.028.794.794 0 0 1-.011.014.794.794 0 0 1-.024.027.794.794 0 0 1-.013.013.794.794 0 0 1-.026.026.794.794 0 0 1-.013.012.794.794 0 0 1-.028.023.794.794 0 0 1-.013.011.794.794 0 0 1-.03.022.794.794 0 0 1-.014.01.794.794 0 0 1-.03.02.794.794 0 0 1-.016.009.794.794 0 0 1-.032.017.794.794 0 0 1-.016.009.794.794 0 0 1-.033.015.794.794 0 0 1-.017.006.794.794 0 0 1-.034.013.794.794 0 0 1-.017.006.794.794 0 0 1-.034.01.794.794 0 0 1-.017.005.794.794 0 0 1-.036.009.794.794 0 0 1-.018.003.794.794 0 0 1-.035.006.794.794 0 0 1-.018.002.794.794 0 0 1-.09.005zm0-.53a.265.265 0 0 0 .264-.265v-.529a.265.265 0 0 0-.264-.264.265.265 0 0 0-.265.264v.53a.265.265 0 0 0 .002.029.265.265 0 0 0 .263.235Zm.794 1.323a.794.794 0 0 1 .793-.794h.53a.794.794 0 0 1 .793.794.794.794 0 0 1-.794.794h-.529a.794.794 0 0 1-.018 0 .794.794 0 0 1-.247-.046.794.794 0 0 1-.017-.007.794.794 0 0 1-.034-.013.794.794 0 0 1-.017-.007.794.794 0 0 1-.032-.016.794.794 0 0 1-.016-.01.794.794 0 0 1-.031-.017.794.794 0 0 1-.016-.01.794.794 0 0 1-.03-.02.794.794 0 0 1-.014-.01.794.794 0 0 1-.028-.023.794.794 0 0 1-.014-.011.794.794 0 0 1-.027-.024.794.794 0 0 1-.014-.013.794.794 0 0 1-.025-.026.794.794 0 0 1-.012-.012.794.794 0 0 1-.023-.028.794.794 0 0 1-.012-.014.794.794 0 0 1-.021-.03.794.794 0 0 1-.01-.014.794.794 0 0 1-.02-.03.794.794 0 0 1-.009-.016.794.794 0 0 1-.018-.032.794.794 0 0 1-.008-.016.794.794 0 0 1-.015-.033.794.794 0 0 1-.007-.016.794.794 0 0 1-.012-.035.794.794 0 0 1-.007-.017.794.794 0 0 1-.01-.034.794.794 0 0 1-.005-.017.794.794 0 0 1-.008-.035.794.794 0 0 1-.004-.018.794.794 0 0 1-.005-.036.794.794 0 0 1-.002-.018.794.794 0 0 1-.005-.09zm.529 0a.265.265 0 0 0 .264.264h.53a.265.265 0 0 0 .264-.264.265.265 0 0 0-.265-.265h-.529a.265.265 0 0 0-.03.002.265.265 0 0 0-.234.263zm5.556-.793a.794.794 0 0 0 .794-.795v-.529a.794.794 0 0 0-.794-.794.794.794 0 0 0-.794.794v.53a.794.794 0 0 0 0 .017.794.794 0 0 0 .046.248.794.794 0 0 0 .006.017.794.794 0 0 0 .014.034.794.794 0 0 0 .007.016.794.794 0 0 0 .016.033.794.794 0 0 0 .009.016.794.794 0 0 0 .018.03.794.794 0 0 0 .01.016.794.794 0 0 0 .02.03.794.794 0 0 0 .01.015.794.794 0 0 0 .022.028.794.794 0 0 0 .012.014.794.794 0 0 0 .024.027.794.794 0 0 0 .013.013.794.794 0 0 0 .025.026.794.794 0 0 0 .013.012.794.794 0 0 0 .028.023.794.794 0 0 0 .014.011.794.794 0 0 0 .03.022.794.794 0 0 0 .014.01.794.794 0 0 0 .03.02.794.794 0 0 0 .016.009.794.794 0 0 0 .032.017.794.794 0 0 0 .016.009.794.794 0 0 0 .033.015.794.794 0 0 0 .016.006.794.794 0 0 0 .034.013.794.794 0 0 0 .017.006.794.794 0 0 0 .035.01.794.794 0 0 0 .017.005.794.794 0 0 0 .035.009.794.794 0 0 0 .018.003.794.794 0 0 0 .036.006.794.794 0 0 0 .018.002.794.794 0 0 0 .09.005zm0-.53a.265.265 0 0 1-.265-.265v-.529a.265.265 0 0 1 .265-.264.265.265 0 0 1 .265.264v.53a.265.265 0 0 1-.002.029.265.265 0 0 1-.263.235zM6.88 7.673a.794.794 0 0 0-.795-.794h-.529a.794.794 0 0 0-.794.794.794.794 0 0 0 .794.794h.53a.794.794 0 0 0 .018 0 .794.794 0 0 0 .247-.046.794.794 0 0 0 .017-.007.794.794 0 0 0 .034-.013.794.794 0 0 0 .016-.007.794.794 0 0 0 .033-.016.794.794 0 0 0 .016-.01.794.794 0 0 0 .03-.017.794.794 0 0 0 .016-.01.794.794 0 0 0 .03-.02.794.794 0 0 0 .015-.01.794.794 0 0 0 .028-.023.794.794 0 0 0 .014-.011.794.794 0 0 0 .027-.024.794.794 0 0 0 .013-.013.794.794 0 0 0 .026-.026.794.794 0 0 0 .012-.012.794.794 0 0 0 .023-.028.794.794 0 0 0 .011-.014.794.794 0 0 0 .022-.03.794.794 0 0 0 .01-.014.794.794 0 0 0 .02-.03.794.794 0 0 0 .009-.016.794.794 0 0 0 .017-.032.794.794 0 0 0 .009-.016.794.794 0 0 0 .015-.033.794.794 0 0 0 .006-.016.794.794 0 0 0 .013-.035.794.794 0 0 0 .006-.017.794.794 0 0 0 .01-.034.794.794 0 0 0 .005-.017.794.794 0 0 0 .009-.035.794.794 0 0 0 .003-.018.794.794 0 0 0 .006-.036.794.794 0 0 0 .002-.018.794.794 0 0 0 .005-.09zm-.53 0a.265.265 0 0 1-.265.264h-.529a.265.265 0 0 1-.264-.264.265.265 0 0 1 .264-.265h.53a.265.265 0 0 1 .029.002.265.265 0 0 1 .235.263zm1.323-6.085a.794.794 0 0 1 .794.793v.53a.794.794 0 0 1-.794.793.794.794 0 0 1-.794-.794v-.529a.794.794 0 0 1 0-.018.794.794 0 0 1 .046-.247.794.794 0 0 1 .006-.017.794.794 0 0 1 .014-.034.794.794 0 0 1 .007-.017.794.794 0 0 1 .016-.032A.794.794 0 0 1 6.977 2a.794.794 0 0 1 .018-.031.794.794 0 0 1 .01-.016.794.794 0 0 1 .02-.03.794.794 0 0 1 .01-.014.794.794 0 0 1 .022-.028.794.794 0 0 1 .012-.014.794.794 0 0 1 .024-.027.794.794 0 0 1 .013-.014.794.794 0 0 1 .025-.025.794.794 0 0 1 .013-.012.794.794 0 0 1 .028-.023.794.794 0 0 1 .014-.012.794.794 0 0 1 .03-.021.794.794 0 0 1 .014-.01.794.794 0 0 1 .03-.02.794.794 0 0 1 .016-.009.794.794 0 0 1 .032-.018.794.794 0 0 1 .016-.008.794.794 0 0 1 .033-.015.794.794 0 0 1 .016-.007.794.794 0 0 1 .034-.013.794.794 0 0 1 .017-.006.794.794 0 0 1 .035-.01.794.794 0 0 1 .017-.005.794.794 0 0 1 .035-.008.794.794 0 0 1 .018-.004.794.794 0 0 1 .036-.005.794.794 0 0 1 .018-.002.794.794 0 0 1 .09-.006zm0 .529a.265.265 0 0 0-.265.264v.53a.265.265 0 0 0 .265.264.265.265 0 0 0 .265-.265v-.529a.265.265 0 0 0-.002-.03.265.265 0 0 0-.263-.234ZM6.88.794a.794.794 0 0 1-.795.794h-.529a.794.794 0 0 1-.794-.794A.794.794 0 0 1 5.556 0h.53a.794.794 0 0 1 .018 0 .794.794 0 0 1 .247.046.794.794 0 0 1 .017.006.794.794 0 0 1 .034.014.794.794 0 0 1 .016.007.794.794 0 0 1 .033.016.794.794 0 0 1 .016.009.794.794 0 0 1 .03.018.794.794 0 0 1 .016.01.794.794 0 0 1 .03.02.794.794 0 0 1 .015.01.794.794 0 0 1 .028.022A.794.794 0 0 1 6.6.19a.794.794 0 0 1 .027.023.794.794 0 0 1 .013.013.794.794 0 0 1 .026.026.794.794 0 0 1 .012.013.794.794 0 0 1 .023.028.794.794 0 0 1 .011.014.794.794 0 0 1 .022.029.794.794 0 0 1 .01.015.794.794 0 0 1 .02.03.794.794 0 0 1 .009.016.794.794 0 0 1 .017.031.794.794 0 0 1 .009.017.794.794 0 0 1 .015.033.794.794 0 0 1 .006.016.794.794 0 0 1 .013.034.794.794 0 0 1 .006.017.794.794 0 0 1 .01.035.794.794 0 0 1 .005.017.794.794 0 0 1 .009.035.794.794 0 0 1 .003.018.794.794 0 0 1 .006.036.794.794 0 0 1 .002.018.794.794 0 0 1 .005.09zm-.53 0a.265.265 0 0 0-.265-.265h-.529a.265.265 0 0 0-.264.265.265.265 0 0 0 .264.264h.53a.265.265 0 0 0 .029-.001.265.265 0 0 0 .235-.263z"/></svg>