<svg width="32" height="32" viewBox="0 0 8.467 8.467" xmlns="http://www.w3.org/2000/svg"><path style="fill:#000;fill-opacity:1;stroke:none;stroke-width:.999999" d="M11 10c-2.21 0-4 2.686-4 6s1.79 6 4 6c1.695 0 3.435-1.603 4-4h-2c-.357 1.237-1.286 1.999-2 2-1.105 0-2-1.79-2-4s.895-4 2-4c.714.001 1.643.763 2 2h2c-.565-2.397-2.305-4-4-4Z" transform="scale(.26458)"/><path style="fill:#000;fill-opacity:1;stroke:none;stroke-width:.309422" d="M4.498 3.704v1.058H4.5a1.058 1.086 0 0 0 1.056 1.059 1.058 1.086 0 0 0 .601-.193l.193.193h.265V3.704h-.53v1.058a.53.53 0 0 1-.529.53.53.53 0 0 1-.529-.53V3.704Z"/></svg>