<svg width="32" height="32" viewBox="0 0 8.467 8.467" xmlns="http://www.w3.org/2000/svg"><path style="fill:#000;fill-opacity:1;stroke:none;stroke-width:.264583" d="M1.323 2.646A1.058 1.587 0 0 0 .265 4.233a1.058 1.587 0 0 0 1.058 1.588 1.058 1.587 0 0 0 .916-.794h-.567a.53 1.058 0 0 1-.35.265.53 1.058 0 0 1-.528-1.059.53 1.058 0 0 1 .529-1.058.53 1.058 0 0 1 .35.265h.567a1.058 1.587 0 0 0-.917-.794zm3.175 1.587v.53h.53a.265.265 0 0 1 0 .529.53.53 0 0 0-.53.529v1.058H5.82V6.35h-.794v-.265a.265.265 0 0 1 0-.013v-.001a.265.265 0 0 1 .002-.012v-.002a.265.265 0 0 1 0-.007l.002-.007a.265.265 0 0 1 .002-.014.265.265 0 0 1 .004-.014.265.265 0 0 1 .002-.008L5.041 6a.265.265 0 0 1 .002-.007l.001-.003a.265.265 0 0 1 .004-.008.267.267 0 0 1 .003-.009.265.265 0 0 1 .002-.003l.005-.01a.265.265 0 0 1 .001-.002l.002-.003a.265.265 0 0 1 .004-.008.265.265 0 0 1 .008-.01.265.265 0 0 1 .007-.01.275.275 0 0 1 .005-.007l.005-.007a.265.265 0 0 1 .006-.006v-.001a.265.265 0 0 1 .009-.009l.005-.005a.265.265 0 0 1 .003-.002l.008-.007a.265.265 0 0 1 .002-.003l.004-.002a.275.275 0 0 1 .007-.005l.01-.008.005-.004a.265.265 0 0 1 .006-.003.265.265 0 0 1 .007-.005l.006-.002a.265.265 0 0 1 .009-.005l.004-.002a.265.265 0 0 1 .008-.003l.004-.003a.265.265 0 0 1 .005-.001l.01-.003a.265.265 0 0 1 .005-.002l.008-.002a.265.265 0 0 1 .014-.004.265.265 0 0 1 .014-.003.265.265 0 0 1 .002 0h.006a.265.265 0 0 1 .035-.003c.438 0 .529-.356.529-.794a.794.794 0 0 0-.794-.794h-.53z"/><path style="fill:#000;stroke-width:0" d="M2.381 3.704v1.19a.926.926 0 0 0 .926.927.926.926 0 0 0 .51-.153l.152.153h.264V3.705h-.529v1.19a.397.397 0 0 1-.397.397.397.397 0 0 1-.397-.397v-1.19Z"/><path style="fill:#000;fill-opacity:1;stroke:none;stroke-width:.264583" d="M7.144 2.91a1.058 1.587 0 0 0-1.059 1.588 1.058 1.587 0 0 0 1.059 1.587 1.058 1.587 0 0 0 1.058-1.587A1.058 1.587 0 0 0 7.144 2.91zm0 .53a.53 1.058 0 0 1 .529 1.058.53 1.058 0 0 1-.53 1.058.53 1.058 0 0 1-.528-1.058.53 1.058 0 0 1 .529-1.058Z"/></svg>