<svg width="32" height="32" viewBox="0 0 8.467 8.467" xmlns="http://www.w3.org/2000/svg"><path style="fill:#000;fill-opacity:1;stroke:none;stroke-width:0" d="M20 0v1h4.068A8 8 0 0 0 31 7.932V12h1V0h-8zm6.094 1H31v4.906A6 6 0 0 1 26.094 1Z" transform="scale(.26458)"/><path style="fill:#000;fill-opacity:1;stroke:none;stroke-width:0" d="M3.175 0v.265H2.099A2.117 2.117 0 0 1 .265 2.099v1.076H0V0h2.117ZM1.563.265H.265v1.298A1.587 1.587 0 0 0 1.563.265Zm3.729 8.202v-.265h1.076a2.117 2.117 0 0 1 1.834-1.834V5.292h.265v3.175H6.35zm1.612-.265h1.298V6.904a1.587 1.587 0 0 0-1.298 1.298zm-3.729.265v-.265H2.099A2.117 2.117 0 0 0 .265 6.368V5.292H0v3.175h2.117Zm-1.612-.265H.265V6.904a1.587 1.587 0 0 1 1.298 1.298z"/></svg>