<svg width="32" height="32" viewBox="0 0 8.467 8.467" xmlns="http://www.w3.org/2000/svg"><path style="fill:#000;stroke-width:0" d="M4.233 3.704a1.587 1.587 0 0 0-1.587 1.588v.529h.264a.53.53 0 0 1 .53-.53h1.587a.53.53 0 0 1 .53.53h.264v-.53a1.587 1.587 0 0 0-1.588-1.587zm-1.19-1.058a.397.397 0 0 0-.397.397v.264a.397.397 0 0 0 .397.397h.264a.397.397 0 0 0 .397-.397v-.264a.397.397 0 0 0-.397-.397zm2.117 0a.397.397 0 0 0-.398.397v.264a.397.397 0 0 0 .397.397h.265a.397.397 0 0 0 .397-.397v-.264a.397.397 0 0 0-.397-.397z"/></svg>