<svg width="32" height="32" viewBox="0 0 8.467 8.467" xmlns="http://www.w3.org/2000/svg"><path style="fill:#000;stroke-width:0" d="M4.233 4.233a3.175 3.175 0 0 0-3.175 3.175v1.059h.53c0-.585.473-1.059 1.058-1.059H5.82c.584 0 1.058.474 1.058 1.059h.53V7.408a3.175 3.175 0 0 0-3.176-3.175zM1.852 2.117a.794.794 0 0 0-.794.793v.53a.794.794 0 0 0 .794.793h.53a.794.794 0 0 0 .793-.793v-.53a.794.794 0 0 0-.794-.793h-.529zm4.233 0a.794.794 0 0 0-.793.793v.53a.794.794 0 0 0 .793.793h.53a.794.794 0 0 0 .793-.793v-.53a.794.794 0 0 0-.793-.793z"/></svg>