<svg width="32" height="32" viewBox="0 0 8.467 8.467" xmlns="http://www.w3.org/2000/svg"><path style="fill:#000;fill-opacity:.996078;stroke:none;stroke-width:.264583" d="M4.233 4.233a2.117 2.117 0 0 0-.524.068.53.53 0 0 0 .524.462.53.53 0 0 0 .525-.464 2.117 2.117 0 0 0-.525-.066z"/><path style="fill:#000;stroke-width:0" d="M6.067 5.292a.53.53 0 0 0-.51.529.53.53 0 0 0 .528.529h.265a2.117 2.117 0 0 0-.283-1.058zm-3.667 0a.53.53 0 0 1 .51.529.53.53 0 0 1-.529.529h-.264A2.117 2.117 0 0 1 2.4 5.292Z"/></svg>