<svg width="32" height="32" viewBox="0 0 8.5 8.5" xmlns="http://www.w3.org/2000/svg"><path style="stroke-width:0" d="M3.984 1.063h.532v.53h-.532zm0 1.062h.532v.531h-.532Zm3.985 1.86H8.5v.53h-.531Zm-1.063 0h.532v.53h-.532Zm-1.062 0h.531v.53h-.531ZM0 3.984h.531v.53H0Zm1.063 0h.53v.53h-.53Zm1.062 0h.531v.53h-.531Zm1.86 3.984h.53V8.5h-.53zm0-1.063h.53v.532h-.53zm0-1.062h.53v.531h-.53zm0-1.328h.53v.796h-.53zm.53-.532h.798v.532h-.797Zm-1.327 0h.796v.532h-.796Zm.796-.796h.532v.796h-.532zm0-3.188h.532V.53h-.532z"/></svg>