<svg width="32" height="32" viewBox="0 0 8.467 8.467" xmlns="http://www.w3.org/2000/svg"><path style="fill:#000;stroke-width:.264583" d="M3.704 0h.529v.529h-.529zM3.704 1.058h.529v.529h-.529zM3.704 2.117h.529v.529h-.529zM3.704 3.175h.529v.529h-.529zM3.175 3.704h.529v.529h-.529zM2.117 3.704h.529v.529h-.529zM4.233 3.704h.529v.529h-.529z"/><path style="fill:#000;stroke-width:.264583" d="M3.704 4.233h.529v.529h-.529zM1.058 3.704h.529v.529h-.529zM0 3.704h.529v.529H0zM5.292 3.704h.529v.529h-.529zM6.35 3.704h.529v.529H6.35zM7.408 3.704h.529v.529h-.529zM3.704 5.292h.529v.529h-.529zM3.704 6.35h.529v.529h-.529zM3.704 7.408h.529v.529h-.529z"/></svg>