<svg width="32" height="32" viewBox="0 0 8.467 8.467" xmlns="http://www.w3.org/2000/svg"><path style="fill:#000;stroke-width:.264583" d="M4.233.529h.529v.529h-.529zm0 1.059h.529v.529h-.529zm0 1.058h.529v.529h-.529zm0 1.058h.529v.529h-.529zm-.529.529h.529v.529h-.529zm-1.058 0h.529v.529h-.529zm2.116 0h.529v.529h-.529zm-.529.529h.529v.529h-.529zm-2.645-.529h.529v.529h-.529zm-1.059 0h.529v.529H.529zm5.292 0h.529v.529h-.529zm1.058 0h.529v.529h-.529zm1.059 0h.529v.529h-.529zM4.233 5.821h.529v.529h-.529zm0 1.058h.529v.529h-.529zm0 1.059h.529v.529h-.529z"/></svg>