<svg width="32" height="32" viewBox="0 0 8.467 8.467" xmlns="http://www.w3.org/2000/svg"><path style="fill:#000;stroke-width:.264583" d="M3.704 0h.529v.529h-.529zm0 1.058h.529v.529h-.529zm0 1.059h.529v.529h-.529zm0 1.058h.529v.529h-.529zm-.529.529h.529v.529h-.529zm-1.058 0h.529v.529h-.529zm2.116 0h.529v.529h-.529zm-.529.529h.529v.529h-.529zm-2.646-.529h.529v.529h-.529zM0 3.704h.529v.529H0zm5.292 0h.529v.529h-.529zm1.058 0h.529v.529H6.35zm1.058 0h.529v.529h-.529zM3.704 5.292h.529v.529h-.529zm0 1.058h.529v.529h-.529zm0 1.058h.529v.529h-.529z"/></svg>