<svg width="32" height="32" viewBox="0 0 8.467 8.467" xmlns="http://www.w3.org/2000/svg"><path style="fill:#000;stroke-width:.264583" d="M4.233.529h.529v.529h-.529zM4.233 1.588h.529v.529h-.529zM4.233 2.646h.529v.529h-.529zM4.233 3.704h.529v.529h-.529z"/><path style="fill:#000;stroke-width:.264583" d="M3.704 4.233h.529v.529h-.529zM2.646 4.233h.529v.529h-.529zM4.762 4.233h.529v.529h-.529zM4.233 4.762h.529v.529h-.529zM1.588 4.233h.529v.529h-.529zM.529 4.233h.529v.529H.529zM5.821 4.233h.529v.529h-.529zM6.879 4.233h.529v.529h-.529zM7.938 4.233h.529v.529h-.529zM4.233 5.821h.529v.529h-.529zM4.233 6.879h.529v.529h-.529zM4.233 7.938h.529v.529h-.529z"/></svg>