<svg width="32" height="128" viewBox="0 0 8.467 33.868" xmlns="http://www.w3.org/2000/svg"><path style="fill:#000;fill-opacity:1;stroke:none;stroke-width:.264583px;stroke-linecap:butt;stroke-linejoin:miter;stroke-opacity:1" d="M0 0v.53L.53 0H0zm1.852 0 .53.53L2.91 0H1.852zm3.704 0 .53.53.529-.53H5.556zm2.38 0 .531.53V0h-.53zM2.382.53.53 2.38l1.85 1.854 1.852-1.852L2.38.53zm3.705 0-1.85 1.85 1.851 1.853 1.85-1.852L6.087.53zM0 1.852V2.91l.53-.528-.53-.53zm8.467 0-.53.53.53.528V1.852zM2.382 4.233.53 6.085l1.852 1.852 1.852-1.851 1.851 1.85 1.852-1.85-1.852-1.853-1.851 1.852-1.852-1.852zM0 5.556v1.059l.53-.529-.53-.53zm8.467 0-.53.53.53.529V5.556zM0 7.936v1.061l.53-.53-.53-.53zm2.38 0-.528.531.53.53.529-.53H2.91l-.53-.53zm3.706 0-.529.531h-.001l.53.53.529-.53-.529-.53zm2.381 0-.53.531.53.53v-1.06zM2.381 8.998l-1.85 1.85L2.38 12.7l1.852-1.852-1.851-1.85zm3.705 0-1.85 1.85 1.85 1.852 1.85-1.852-1.85-1.85zM0 10.32v1.058l.53-.528-.53-.53zm8.467 0-.53.53.53.528V10.32zM2.382 12.7.53 14.552l1.852 1.852 1.852-1.851 1.851 1.85 1.852-1.85L6.085 12.7l-1.851 1.852L2.381 12.7zM0 14.023v1.059l.53-.529-.53-.53zm8.467 0-.53.53.53.529v-1.059zM0 16.403v1.061l.53-.53-.53-.53zm2.38 0-.528.531.53.53.529-.53H2.91l-.53-.53zm3.706 0-.529.531h-.001l.53.53.529-.53-.529-.53zm2.381 0-.53.531.53.53v-1.06zm-6.086 1.061-1.85 1.85 1.849 1.853 1.852-1.852-1.851-1.85zm3.705 0-1.85 1.85 1.851 1.853 1.85-1.852-1.85-1.85zM0 18.786v1.058l.53-.528-.53-.53zm8.467 0-.53.53.53.528v-1.058zm-6.085 2.381L.53 23.019l1.852 1.852 1.852-1.851 1.851 1.85 1.852-1.85-1.852-1.853-1.851 1.852-1.852-1.852zM0 22.49v1.059l.53-.529-.53-.53zm8.467 0-.53.53.53.529V22.49zM0 24.87v1.061l.53-.53-.53-.53zm2.38 0-.528.531.53.53.529-.53H2.91l-.53-.53zm3.706 0-.529.531h-.001l.53.53.529-.53-.529-.53zm2.381 0-.53.531.53.53v-1.06zm-6.086 1.061-1.85 1.85 1.849 1.853 1.852-1.852-1.851-1.85zm3.705 0-1.85 1.85 1.851 1.853 1.85-1.852-1.85-1.85zM0 27.253v1.058l.53-.528-.53-.53zm8.467 0-.53.53.53.528v-1.058zm-6.085 2.381L.53 31.486l1.852 1.852 1.852-1.851 1.851 1.85 1.852-1.85-1.852-1.853-1.851 1.852-1.852-1.852zM0 30.957v1.059l.53-.529-.53-.53zm8.467 0-.53.53.53.529v-1.059zM0 33.337v.531h.53l-.53-.53zm2.38 0-.528.531H2.91l-.53-.53zm3.706 0-.529.531h1.058l-.529-.53zm2.381 0-.53.531h.53v-.53z"/></svg>