<svg width="32" height="128" viewBox="0 0 8.467 33.868" xmlns="http://www.w3.org/2000/svg"><path style="fill:#000;fill-opacity:1;stroke:none;stroke-width:.264583px;stroke-linecap:butt;stroke-linejoin:miter;stroke-opacity:1" d="M0 0v.53L.53 0H0zm1.852 0 .53.53L.528 2.38 0 1.852V2.91l.53-.528 1.851 1.852-1.85 1.851 1.85 1.852 1.853-1.851 1.851 1.85 1.852-1.85-1.851-1.853 1.85-1.851h.001l.53.528V1.852l-.53.53L6.087.528 6.615 0H5.556l.53.53L4.232 2.38l1.852 1.852-1.851 1.852-1.852-1.852 1.852-1.852L2.381.531V.53L2.91 0H1.852zm6.085 0 .53.53V0h-.53zM2.38 1.058l1.323 1.323-1.323 1.323-1.323-1.323 1.323-1.323zm3.705 0 1.323 1.323-1.323 1.323-1.323-1.323 1.323-1.323zM2.382 4.763l1.323 1.322-1.323 1.323-1.323-1.323 1.323-1.322zm3.703 0 1.323 1.322-1.323 1.323-1.323-1.323 1.323-1.322zM0 5.556v1.059l.53-.529-.53-.53zm8.467 0-.53.53.53.529V5.556zM0 7.936v1.061l.53-.53-.53-.53zm2.38 0-.528.531.53.53-1.853 1.851L0 10.32v1.058l.53-.528L2.381 12.7l-1.85 1.852 1.85 1.852 1.853-1.851 1.851 1.85 1.852-1.85L6.086 12.7l1.85-1.851h.001l.53.528v-1.058l-.53.53-1.851-1.853.529-.529-.529-.53-.529.53h-.001l.53.53-1.853 1.851L6.086 12.7l-1.851 1.852L2.381 12.7l1.852-1.852-1.852-1.85v-.001l.529-.53H2.91l-.53-.53zm6.087 0-.53.531.53.53v-1.06zm-6.086 1.59 1.323 1.322-1.323 1.323-1.323-1.323 1.323-1.323zm3.705 0 1.323 1.322-1.323 1.323-1.323-1.323 1.323-1.323zM2.382 13.23l1.323 1.322-1.323 1.323-1.323-1.323 1.323-1.322zm3.703 0 1.323 1.322-1.323 1.323-1.323-1.323 1.323-1.322zM0 14.023v1.059l.53-.529-.53-.53zm8.467 0-.53.53.53.529v-1.059zM0 16.403v1.061l.53-.53-.53-.53zm2.38 0-.528.531.53.53-1.853 1.851L0 18.786v1.058l.53-.528 1.851 1.852-1.85 1.851 1.85 1.852 1.853-1.851 1.851 1.85 1.852-1.85-1.851-1.852 1.85-1.852h.001l.53.528v-1.058l-.53.53-1.851-1.853.529-.529-.529-.53-.529.53h-.001l.53.53-1.853 1.851 1.852 1.852-1.851 1.852-1.852-1.852 1.852-1.852-1.852-1.85v-.001l.529-.53H2.91l-.53-.53zm6.087 0-.53.531.53.53v-1.06zm-6.086 1.59 1.323 1.322-1.323 1.323-1.323-1.323 1.323-1.323zm3.705 0 1.323 1.322-1.323 1.323-1.323-1.323 1.323-1.323zm-3.704 3.704 1.323 1.322-1.323 1.323-1.323-1.323 1.323-1.322zm3.703 0 1.323 1.322-1.323 1.323-1.323-1.323 1.323-1.322zM0 22.49v1.059l.53-.529-.53-.53zm8.467 0-.53.53.53.529V22.49zM0 24.87v1.061l.53-.53-.53-.53zm2.38 0-.528.531.53.53-1.853 1.851L0 27.253v1.058l.53-.528 1.851 1.851-1.85 1.852 1.85 1.852 1.853-1.851 1.851 1.85 1.852-1.85-1.851-1.852 1.85-1.852h.001l.53.528v-1.058l-.53.53-1.851-1.853.529-.529-.529-.53-.529.53h-.001l.53.53-1.853 1.851 1.852 1.852-1.851 1.852-1.852-1.852 1.852-1.852-1.852-1.85v-.001l.529-.53H2.91l-.53-.53zm6.087 0-.53.531.53.53v-1.06zm-6.086 1.59 1.323 1.322-1.323 1.323-1.323-1.323 1.323-1.323zm3.705 0 1.323 1.322-1.323 1.323-1.323-1.323 1.323-1.323zm-3.704 3.704 1.323 1.322-1.323 1.323-1.323-1.323 1.323-1.322zm3.703 0 1.323 1.322-1.323 1.323-1.323-1.323 1.323-1.322zM0 30.957v1.059l.53-.529-.53-.53zm8.467 0-.53.53.53.529v-1.059zM0 33.337v.531h.53l-.53-.53zm2.38 0-.528.531H2.91l-.53-.53zm3.706 0-.529.531h1.058l-.529-.53zm2.381 0-.53.531h.53v-.53z"/></svg>