<svg width="32" height="32" viewBox="0 0 8.467 8.467" xmlns="http://www.w3.org/2000/svg"><path style="fill:#000;fill-opacity:1;stroke:none;stroke-width:.264583px;stroke-linecap:butt;stroke-linejoin:miter;stroke-opacity:1" d="m.53 2.381 1.85 1.852 1.852-1.852L2.381.53.53 2.381m3.703 3.704 1.852 1.852 1.852-1.852-1.852-1.852-1.852 1.852M8.467 2.91V1.852l-.53.53.53.528M0 6.615V5.556l.53.53-.53.529M5.556 0h1.059l-.53.53L5.556 0M1.852 8.467H2.91l-.529-.53-.529.53M0 0v.53L.53 0Zm8.467 8.467v-.53l-.53.53Z"/></svg>