<svg width="32" height="128" viewBox="0 0 8.467 33.868" xmlns="http://www.w3.org/2000/svg"><path style="fill:#000;fill-opacity:1;stroke:none;stroke-width:.264583px;stroke-linecap:butt;stroke-linejoin:miter;stroke-opacity:1" d="m2.38 1.058 1.323 1.323L2.38 3.704 1.057 2.381Zm3.705 0 1.323 1.323-1.323 1.323-1.323-1.323ZM2.382 4.763l1.323 1.322-1.323 1.323-1.323-1.323Zm3.703 0 1.323 1.322-1.323 1.323-1.323-1.323ZM2.381 9.526l1.323 1.322-1.323 1.323-1.323-1.323 1.323-1.323Zm3.705 0 1.323 1.322-1.323 1.323-1.323-1.323 1.323-1.323ZM2.382 13.23l1.323 1.322-1.323 1.323-1.323-1.323Zm3.703 0 1.323 1.322-1.323 1.323-1.323-1.323zm-3.704 4.763 1.323 1.322-1.323 1.323-1.323-1.323 1.323-1.323zm3.705 0 1.323 1.322-1.323 1.323-1.323-1.323 1.323-1.323zm-3.704 3.704 1.323 1.322-1.323 1.323-1.323-1.323zm3.703 0 1.323 1.322-1.323 1.323-1.323-1.323zM2.381 26.46l1.323 1.322-1.323 1.323-1.323-1.323 1.323-1.323Zm3.705 0 1.323 1.322-1.323 1.323-1.323-1.323 1.323-1.323zm-3.704 3.704 1.323 1.322-1.323 1.323-1.323-1.323zm3.703 0 1.323 1.322-1.323 1.323-1.323-1.323z"/></svg>