<svg width="32" height="32" viewBox="0 0 8.467 8.467" xmlns="http://www.w3.org/2000/svg"><path style="fill:#000;fill-opacity:1;stroke:none;stroke-width:.264583px;stroke-linecap:butt;stroke-linejoin:miter;stroke-opacity:1" d="M7.937 2.381 6.085 4.233 4.233 2.381 6.085.53l1.852 1.852M4.233 6.085 2.381 7.937.53 6.085l1.852-1.852 1.852 1.852M0 2.91V1.852l.53.53L0 2.91m8.467 3.705V5.556l-.53.53.53.529M2.91 0H1.852l.53.53L2.91 0m3.705 8.467H5.556l.53-.53.529.53M8.467 0v.53L7.937 0ZM0 8.467v-.53l.53.53z"/></svg>