<svg width="32" height="32" viewBox="0 0 8.467 8.467" xmlns="http://www.w3.org/2000/svg"><path style="fill:#000;fill-opacity:1;stroke:none;stroke-width:0" d="M0 0v.53l.306.305A1.852 1.852 0 0 0 0 1.852v4.763a1.852 1.852 0 0 0 .306 1.017L0 7.938v.529h.53l.305-.306a1.852 1.852 0 0 0 1.017.306h4.81v-.002a1.852 1.852 0 0 0 .97-.304l.306.306h.529v-.53l-.307-.306a1.852 1.852 0 0 0 .307-1.016V1.852A1.852 1.852 0 0 0 8.162.834L8.467.53V0h-.53l-.304.305A1.852 1.852 0 0 0 6.663 0h-4.81A1.852 1.852 0 0 0 .834.306L.53 0H0zm2.381 1.058h3.704a1.323 1.323 0 0 1 1.323 1.323v3.704a1.323 1.323 0 0 1-1.323 1.323H2.381a1.323 1.323 0 0 1-1.323-1.323V2.381a1.323 1.323 0 0 1 1.323-1.323z"/></svg>