<svg width="32" height="32" viewBox="0 0 8.467 8.467" xmlns="http://www.w3.org/2000/svg"><path style="fill:#000;fill-opacity:1;stroke-width:0" d="M0 1.587v.53l.305.305A1.852 1.852 0 0 0 0 3.44a1.852 1.852 0 0 0 1.852 1.852h4.763A1.852 1.852 0 0 0 8.467 3.44a1.852 1.852 0 0 0-.305-1.018l.305-.305v-.53h-.53l-.304.305a1.852 1.852 0 0 0-1.018-.304H1.852a1.852 1.852 0 0 0-1.017.305l-.306-.306H0zm1.852 1.059h4.763a.794.794 0 0 1 .793.794.794.794 0 0 1-.793.793H1.852a.794.794 0 0 1-.794-.793.794.794 0 0 1 .794-.794z"/></svg>