<?xml version="1.0" encoding="UTF-8" standalone="no"?>
<!-- Created with Inkscape (http://www.inkscape.org/) -->

<svg
   width="32"
   height="32"
   viewBox="0 0 8.4666666 8.4666668"
   version="1.1"
   id="svg5"
   inkscape:version="1.1.2 (b8e25be8, 2022-02-05)"
   sodipodi:docname="explosiveSymbol\.svg"
   xmlns:inkscape="http://www.inkscape.org/namespaces/inkscape"
   xmlns:sodipodi="http://sodipodi.sourceforge.net/DTD/sodipodi-0.dtd"
   xmlns="http://www.w3.org/2000/svg"
   xmlns:svg="http://www.w3.org/2000/svg"
   xmlns:rdf="http://www.w3.org/1999/02/22-rdf-syntax-ns#"
   xmlns:cc="http://creativecommons.org/ns#">
  <sodipodi:namedview
     id="namedview7"
     pagecolor="#ffffff"
     bordercolor="#111111"
     borderopacity="1"
     inkscape:pageshadow="0"
     inkscape:pageopacity="0"
     inkscape:pagecheckerboard="1"
     inkscape:document-units="mm"
     showgrid="true"
     width="32mm"
     units="px"
     objecttolerance="10000"
     guidetolerance="10000"
     inkscape:snap-perpendicular="true"
     inkscape:snap-tangential="true"
     inkscape:zoom="34.90625"
     inkscape:cx="16"
     inkscape:cy="20.583706"
     inkscape:window-width="2560"
     inkscape:window-height="1301"
     inkscape:window-x="0"
     inkscape:window-y="25"
     inkscape:window-maximized="0"
     inkscape:current-layer="layer1">
    <inkscape:grid
       type="xygrid"
       id="grid9"
       units="px"
       empspacing="2" />
  </sodipodi:namedview>
  <defs
     id="defs2" />
  <g
     inkscape:label="Layer 1"
     inkscape:groupmode="layer"
     id="layer1">
    <path
       d="m 4.8339967,2.1809048 c -9.724e-4,1.22e-4 -0.00164,0.00116 -0.00243,0.00313 -6.568e-4,0.00197 -0.1260212,0.3593103 -0.2785727,0.794384 -0.1525514,0.4350737 -0.2777003,0.7916435 -0.2782255,0.7922999 -0.00157,0.00158 -0.012636,-0.00242 -0.012504,-0.00451 1.312e-4,-0.00144 0.3260034,-1.0154008 0.3292856,-1.024328 3.934e-4,-0.00105 -0.00935,-0.00764 -0.029177,-0.019451 -0.029539,-0.017592 -0.032997,-0.019468 -0.032997,-0.017367 0,0.00183 -0.2714481,1.0599271 -0.2719733,1.0604522 -2.622e-4,3.936e-4 -0.00766,-0.00133 -0.016325,-0.00382 -0.020743,-0.00591 -0.056005,-0.013089 -0.078848,-0.015978 -0.025601,-0.00315 -0.083877,-0.00329 -0.1069835,0 -0.107915,0.015097 -0.1953501,0.059737 -0.2716259,0.1382443 -0.053564,0.055139 -0.096213,0.1266466 -0.1187929,0.1993775 -0.00276,0.00866 -0.00538,0.016147 -0.00591,0.016672 -5.257e-4,5.246e-4 -0.041982,-0.029792 -0.092394,-0.067733 -0.050413,-0.037941 -0.092132,-0.068821 -0.092394,-0.068427 -2.639e-4,2.639e-4 0.00481,0.010665 0.011115,0.023272 l 0.011463,0.022925 0.079195,0.053144 c 0.076539,0.051332 0.07881,0.053204 0.078153,0.056617 -6.569e-4,0.00328 0.00191,0.00646 0.023967,0.030219 0.013522,0.014704 0.028403,0.030572 0.032998,0.03543 l 0.00868,0.00869 0.023272,-0.0014 0.023272,-0.00139 0.043766,0.029177 c 0.024025,0.015885 0.042177,0.027542 0.039944,0.025704 -0.0021,-0.00183 -0.01952,-0.015215 -0.038556,-0.029525 -0.018905,-0.014178 -0.033569,-0.02592 -0.032651,-0.026051 9.193e-4,-1.3e-4 0.031282,-0.00186 0.067386,-0.00382 l 0.065648,-0.00348 0.094479,0.047587 c 0.052251,0.025994 0.095474,0.047239 0.095868,0.047239 3.935e-4,0 0.02413,-0.028296 0.053144,-0.063217 0.029014,-0.03479 0.053614,-0.064251 0.054534,-0.065301 0.00144,-0.00171 -0.00236,-0.011639 -0.022578,-0.061133 -0.013259,-0.032427 -0.023883,-0.059134 -0.023619,-0.059397 2.623e-4,-1.301e-4 0.033334,0.00331 0.073637,0.00764 0.040304,0.00433 0.073459,0.00768 0.073985,0.00729 3.934e-4,-5.246e-4 0.00568,-0.020567 0.011463,-0.04446 l 0.010766,-0.043766 0.032651,-3.466e-4 c 0.017985,-1.299e-4 0.03768,1.694e-4 0.044113,6.948e-4 l 0.01181,0.00104 -0.1118458,0.1222664 c -0.061703,0.067086 -0.1131805,0.1235544 -0.1146247,0.1253925 -0.00498,0.00591 0.039479,-0.038644 0.1434545,-0.143802 l 0.1024678,-0.1038571 0.038209,-6.947e-4 0.037861,-6.947e-4 -0.0066,-0.00972 c -0.0038,-0.00538 -0.010991,-0.014802 -0.015979,-0.020841 -0.00498,-0.00604 -0.00882,-0.011285 -0.00868,-0.01181 2.623e-4,-5.258e-4 0.014542,-0.015406 0.031608,-0.032998 l 0.030914,-0.031608 0.00348,0.00729 c 0.00183,0.0042 0.00313,0.00803 0.00313,0.00869 0,0.0021 0.00172,0.00145 0.053839,-0.022578 0.026914,-0.01234 0.049492,-0.021844 0.050018,-0.021188 5.258e-4,5.258e-4 0.00547,0.017342 0.011115,0.037166 0.00551,0.019824 0.010586,0.036641 0.011115,0.037166 9.192e-4,0.00105 0.1597004,-0.127173 0.1642954,-0.1326868 0.00105,-0.00144 0.020791,-0.037354 0.043766,-0.07989 0.022975,-0.042667 0.043317,-0.079865 0.045155,-0.083016 0.00183,-0.00315 0.00266,-0.00582 0.00173,-0.00556 -7.88e-4,2.622e-4 -0.033473,0.027316 -0.072595,0.059743 l -0.071206,0.058702 -0.051061,0.0014 c -0.028226,6.568e-4 -0.053343,9.57e-4 -0.055575,6.946e-4 -0.0038,-3.934e-4 0.024413,-0.029111 0.477603,-0.486634 0.2647989,-0.2672932 0.4817712,-0.4864562 0.4817712,-0.4869814 0,-5.246e-4 -0.01256,-0.013384 -0.027788,-0.028483 -0.026,-0.026018 -0.027778,-0.027264 -0.029878,-0.025032 -0.00118,0.00118 -0.2214632,0.2409877 -0.4894128,0.532831 l -0.4869814,0.5307472 -0.038555,0.027094 c -0.021137,0.014835 -0.039157,0.027695 -0.039944,0.028483 -9.192e-4,9.193e-4 1.111e-4,0.00429 0.00313,0.011115 0.00368,0.00866 0.004,0.010192 0.00243,0.012157 -0.00144,0.00183 -0.052112,0.057708 -0.061828,0.06808 -0.00236,0.0025 -0.00247,0.00234 -0.013894,-0.00869 -0.022187,-0.021924 -0.043174,-0.038809 -0.068775,-0.056271 L 4.3813965,3.8245342 4.6228032,3.4098011 C 4.8131703,3.0827936 4.863792,2.9948797 4.8624792,2.9936982 c -7.881e-4,-9.192e-4 -0.013262,-0.0087 -0.02744,-0.017367 l -0.026051,-0.015978 -0.00451,0.00799 c -0.00236,0.00447 -0.1002031,0.1977376 -0.2174397,0.4293217 -0.120912,0.2391986 -0.2136105,0.4209853 -0.2146609,0.4209853 -0.00132,0 -0.00115,-0.00156 6.947e-4,-0.00695 0.00144,-0.00368 0.1295167,-0.3608475 0.2848251,-0.7936893 0.1554397,-0.4328417 0.2823089,-0.787344 0.2820463,-0.7881318 -5.245e-4,-0.00118 -0.094921,-0.0453 -0.1048988,-0.048976 -3.939e-4,-1.299e-4 -7.18e-4,-4.33e-5 -0.00104,0 z m -0.4789925,0.6061216 -0.013546,0.033693 -0.0132,0.03404 -0.025704,-0.010069 c -0.01431,-0.00565 -0.026352,-0.0099 -0.026746,-0.00938 -3.935e-4,5.246e-4 -0.00646,0.028952 -0.013546,0.063217 -0.00695,0.034265 -0.012805,0.063425 -0.013199,0.064607 -3.935e-4,0.00157 0.00539,0.00475 0.026398,0.014589 0.015098,0.00709 0.027826,0.013368 0.028483,0.013894 5.245e-4,5.246e-4 0.00697,0.023706 0.014589,0.051407 0.00748,0.027569 0.013978,0.05045 0.014241,0.050713 2.623e-4,2.638e-4 0.010969,-0.015004 0.023967,-0.03404 0.024682,-0.036103 0.024616,-0.035983 0.1024677,-0.1205297 l 0.00417,-0.00451 -0.022578,-0.072943 -0.022578,-0.072943 -0.00972,-6.948e-4 c -0.00538,-5.246e-4 -0.01953,-9.102e-4 -0.031609,-0.00104 H 4.3550169 Z M 6.145234,3.1111017 c -5.246e-4,0 -0.00134,0.00155 -0.00173,0.00313 -0.00407,0.013523 -0.045672,0.1422347 -0.046197,0.1427598 -2.639e-4,3.936e-4 -0.028388,0.0019 -0.062522,0.00348 l -0.062176,0.00278 -0.017714,0.0132 c -0.00972,0.00748 -0.0178,0.013762 -0.018062,0.013894 -3.939e-4,3.935e-4 -0.016935,0.1062421 -0.016673,0.1066358 5.246e-4,3.934e-4 0.096863,0.055575 0.097258,0.055575 2.639e-4,0 0.017766,-0.018622 0.038903,-0.041334 0.021268,-0.022712 0.038856,-0.041465 0.03925,-0.041334 3.939e-4,0 0.035186,0.023698 0.077459,0.05245 l 0.076764,0.052102 3.466e-4,-0.019104 c 1.299e-4,-0.010508 9.05e-5,-0.05334 -6.947e-4,-0.094826 l -0.00139,-0.075374 -0.051061,-0.087185 c -0.028103,-0.047793 -0.051237,-0.086843 -0.051762,-0.086843 z m -1.3063745,0.053144 -0.00243,0.00313 c -0.00132,0.00171 -0.00918,0.013062 -0.017714,0.025009 l -0.015283,0.021536 -0.00973,0.048628 c -0.00525,0.026782 -0.00973,0.049964 -0.00973,0.051407 1.299e-4,0.00183 0.011149,0.012216 0.034387,0.032303 0.018905,0.016279 0.034641,0.029525 0.03543,0.029525 6.57e-4,0 0.012529,-0.013462 0.026051,-0.029872 l 0.024661,-0.030219 0.00556,-0.027094 c 0.00302,-0.014835 0.00615,-0.030402 0.00694,-0.034735 l 0.00139,-0.00799 -0.014935,-0.040292 c -0.00815,-0.022056 -0.015237,-0.040462 -0.015631,-0.040987 -5.258e-4,-5.247e-4 -0.00608,0.00498 -0.012504,0.01181 l -0.011463,0.012504 -0.012504,-0.012504 z m 0.8027204,0.071901 c -6.569e-4,0 -0.2900886,0.2037651 -0.6436351,0.4529413 C 4.6443982,3.9383955 4.3550891,4.1424617 4.3553516,4.1427241 4.3554828,4.1429865 4.6453939,3.9636064 4.9993342,3.7439691 L 5.642622,3.3445193 v -0.054533 c 0,-0.029801 -5.168e-4,-0.05397 -0.00104,-0.053839 z m -0.1271292,0.3542942 -0.026051,0.029177 -0.026398,0.028829 -0.012504,0.033693 c -0.00695,0.018511 -0.012636,0.033777 -0.012504,0.03404 5.247e-4,5.258e-4 0.2294191,0.027965 0.2299442,0.02744 2.638e-4,-1.31e-4 -0.034058,-0.034884 -0.07607,-0.076764 z m 1.0555894,0.020147 C 6.5693832,3.6104564 6.0595385,3.7422702 5.4369921,3.903749 4.8144458,4.0652277 4.305071,4.1976897 4.3053336,4.1979524 4.3057271,4.1983463 6.6010772,3.6784134 6.6019961,3.6776256 6.6027842,3.6770999 6.5710904,3.61085 6.5700401,3.6105879 Z M 5.2362253,3.7661993 C 5.2355682,3.7663305 5.0659085,3.8462355 4.8590057,3.9440414 4.6521029,4.041847 4.4817943,4.1224851 4.4807442,4.1232727 c -0.00144,0.00105 -9.737e-4,0.00114 0.00138,3.466e-4 0.00459,-0.00157 0.7605602,-0.2932462 0.7606913,-0.2935088 1.3e-4,0 -8.559e-4,-0.014364 -0.00243,-0.031956 -0.00157,-0.019298 -0.00325,-0.031956 -0.00417,-0.031956 z m 1.6401754,0.078848 C 6.8746907,3.8451782 6.3153079,3.9400953 5.6328962,4.055887 4.9506157,4.1715478 4.3905351,4.2663798 4.388697,4.2663798 c -0.00223,1.299e-4 -0.00795,-0.0038 -0.018062,-0.01181 l -0.015283,-0.012157 -6.947e-4,0.050365 -6.947e-4,0.050365 -0.03925,0.026746 c -0.021662,0.014572 -0.040068,0.026267 -0.040987,0.026398 -9.193e-4,0 -0.01752,-0.011093 -0.036819,-0.025009 -0.0512,-0.037022 -0.051964,-0.036899 -0.00313,0.00104 0.018379,0.01431 0.034209,0.02622 0.034734,0.026746 0.00132,0.00118 -0.061727,0.043728 -0.063565,0.043071 C 4.2040309,4.4418732 4.0491176,4.3098831 4.0107828,4.2767996 l -0.00868,-0.00764 -0.071901,0.062176 c -0.039516,0.034265 -0.072418,0.062522 -0.072943,0.062522 -6.57e-4,0 -0.041342,-0.01062 -0.090311,-0.023619 l -0.088922,-0.02362 0.025009,6.948e-4 c 0.013785,3.939e-4 0.034597,6.479e-4 0.046545,0.00104 0.020611,5.258e-4 -0.038135,-0.00387 -0.1083728,-0.00834 C 3.62821,4.3390942 3.557763,4.3343234 3.4849006,4.3295964 l -0.1326869,-0.00869 -3.466e-4,-0.00382 c -7.88e-4,-0.00447 -2.559e-4,-0.00429 -0.01181,-3.466e-4 -0.00827,0.00276 -0.00948,0.00262 -0.035082,0.00104 -0.014442,-7.881e-4 -0.029407,-0.00169 -0.033345,-0.00208 l -0.00729,-0.00104 -0.00625,-0.011463 -0.00626,-0.011115 -0.044808,-0.00243 c -0.024681,-0.00132 -0.048079,-0.00208 -0.051755,-0.00208 h -0.0066 l -0.00591,0.00938 -0.00556,0.00973 -0.0066,-6.948e-4 C 3.126928,4.3058466 2.9895212,4.2970744 2.8252855,4.2861778 2.6610498,4.2754124 2.5244607,4.2665951 2.5217037,4.2667263 l -0.00486,3.465e-4 0.015283,0.016325 c 0.013259,0.014442 0.015729,0.016626 0.019799,0.01702 0.00262,2.639e-4 0.1325498,0.00551 0.2886458,0.01181 0.1560962,0.0063 0.2844312,0.011763 0.2848251,0.012157 3.939e-4,3.938e-4 -0.00588,0.011402 -0.013894,0.024661 -0.00787,0.013129 -0.014203,0.024699 -0.013546,0.025357 5.246e-4,5.247e-4 0.01958,0.014072 0.042029,0.030219 l 0.04064,0.029525 0.044808,0.00729 c 0.02455,0.0042 0.045626,0.00735 0.046545,0.00694 9.193e-4,-2.638e-4 0.00767,-0.010586 0.015283,-0.022925 l 0.013894,-0.022578 h 0.028483 0.028483 v -0.00486 c 0,-0.00276 -9.87e-4,-0.01837 -0.00243,-0.034387 -0.00144,-0.016148 -0.00248,-0.029478 -0.00208,-0.029872 7.881e-4,-7.882e-4 0.2835095,0.010069 0.29073,0.011115 0.00341,5.259e-4 0.00417,9.327e-4 0.00417,0.00382 0,0.00486 0.00691,0.035375 0.012157,0.053492 0.00447,0.015229 0.00449,0.015321 0.00173,0.015978 -0.00144,2.638e-4 -0.3493278,0.04013 -0.7728485,0.088574 -0.4235205,0.048576 -0.7699383,0.088574 -0.7700696,0.088574 -3.938e-4,2.639e-4 -0.00317,0.033993 -0.00278,0.034387 2.639e-4,1.301e-4 0.3480151,-0.046833 0.7728484,-0.1042047 0.4248335,-0.057371 0.7734037,-0.1042047 0.7745853,-0.1042047 0.00144,0 0.00324,0.00282 0.00521,0.00834 0.00171,0.00459 0.00558,0.013967 0.00834,0.021188 0.00276,0.00709 0.00478,0.013068 0.00451,0.0132 -2.639e-4,1.3e-4 -0.2602805,0.057718 -0.5779864,0.127824 -0.3177061,0.070106 -0.5786266,0.1282095 -0.5800707,0.128866 -0.00223,9.192e-4 -0.00358,0.00431 -0.0066,0.019799 -0.0021,0.010238 -0.00317,0.019058 -0.00278,0.019451 6.569e-4,5.257e-4 1.1646154,-0.2861982 1.1698668,-0.2882986 7.881e-4,-2.639e-4 0.00333,0.0034 0.00556,0.00799 0.00289,0.00577 0.00349,0.00864 0.00243,0.00903 -9.193e-4,2.639e-4 -0.088608,0.023961 -0.1952093,0.05245 l -0.1941674,0.051407 -0.00243,0.019799 c -0.00144,0.010901 -0.00257,0.020015 -0.00243,0.020147 1.299e-4,1.299e-4 0.090705,-0.0295 0.2011142,-0.065996 0.2013889,-0.066429 0.2027198,-0.066864 0.2028511,-0.06148 0,7.881e-4 -0.1414493,0.077768 -0.3143496,0.1712423 l -0.3146969,0.1698531 0.00104,0.012504 c 5.246e-4,0.00683 8.648e-4,0.014611 0.0014,0.017368 l 0.00104,0.00486 0.3122666,-0.1837459 c 0.17185,-0.1010884 0.3135153,-0.1846111 0.3146969,-0.1851362 0.00171,-0.00105 0.00419,0.00215 0.012852,0.016325 0.00984,0.016279 0.023165,0.035252 0.036819,0.05245 0.00525,0.00683 0.00557,0.00781 0.00348,0.00938 -0.00118,7.88e-4 -0.1667148,0.1329489 -0.3678411,0.2935087 l -0.3654098,0.2921193 0.025704,0.025357 c 0.01431,0.013916 0.027084,0.025742 0.028135,0.026398 0.00157,9.192e-4 0.050439,-0.043646 0.2184816,-0.1976408 C 3.4151657,4.9204848 3.51279,4.8313776 3.5130526,4.8315088 c 2.638e-4,2.638e-4 -0.00159,0.00422 -0.00382,0.00869 -0.00223,0.00433 -0.00382,0.00837 -0.00382,0.00903 0,9.193e-4 0.036059,0.041701 0.04446,0.050365 0.00223,0.00223 0.00341,0.00191 0.028483,-0.00938 l 0.026051,-0.01181 0.0132,0.0132 0.0132,0.012852 0.026051,-0.015631 0.026398,-0.015979 0.010069,-0.033693 c 0.00565,-0.018642 0.00995,-0.034727 0.010069,-0.035776 0,-0.00118 -0.00992,-0.00822 -0.023967,-0.01702 l -0.02362,-0.014935 -0.038209,-6.948e-4 -0.037861,-6.947e-4 0.093436,-0.085795 c 0.051332,-0.046999 0.093522,-0.085447 0.093784,-0.085447 1.299e-4,0 0.010665,0.010103 0.023272,0.022578 0.012603,0.012472 0.028904,0.027569 0.036124,0.033345 0.087566,0.070106 0.1870759,0.1040978 0.2942034,0.1010783 0.084153,-0.00236 0.1590045,-0.026121 0.2302915,-0.072595 0.029408,-0.019167 0.047898,-0.034181 0.07468,-0.060437 l 0.016673,-0.015979 0.2497429,0.2011142 c 0.1375851,0.1108029 0.2501753,0.2012456 0.2504376,0.2011143 1.301e-4,-2.638e-4 -0.0064,-0.01583 -0.014936,-0.034735 L 4.9121499,4.939887 4.6801217,4.7696867 4.4480935,4.5998336 l 0.00451,-0.00556 c 0.0025,-0.00289 0.0092,-0.01132 0.014589,-0.01841 0.00551,-0.00695 0.010586,-0.012636 0.011115,-0.012504 6.568e-4,2.638e-4 0.1406862,0.1095428 0.3112235,0.2427959 0.1705372,0.1332527 0.312156,0.2438215 0.3150443,0.2459222 l 0.00521,0.00382 0.014935,-0.014936 c 0.00827,-0.00827 0.015067,-0.015453 0.014936,-0.015978 C 5.1393988,5.0245931 4.9933068,4.918537 4.8148925,4.7894853 4.6366094,4.6604337 4.4895673,4.5541231 4.4883857,4.5529415 c -0.0021,-0.00197 -0.00171,-0.00299 0.00591,-0.014936 0.00512,-0.00801 0.00867,-0.01255 0.00973,-0.012157 9.193e-4,3.939e-4 0.1334659,0.081201 0.2945508,0.1799261 0.1609536,0.098594 0.2931149,0.1787993 0.2935087,0.1785367 2.639e-4,-3.939e-4 -0.00671,-0.01536 -0.015631,-0.033345 L 5.06012,4.8183151 4.784326,4.6668715 4.5085319,4.515428 l 0.00938,-0.01841 c 0.00525,-0.010114 0.011747,-0.022969 0.014241,-0.028483 l 0.00451,-0.010069 0.1708951,0.044113 c 0.093999,0.024288 0.1710644,0.04463 0.1715897,0.045155 0.00105,0.00105 -0.012056,0.019451 -0.013894,0.019451 -6.569e-4,0 -0.023885,-0.00439 -0.051061,-0.00938 -0.027307,-0.00512 -0.050358,-0.00903 -0.051407,-0.00903 -0.00144,0 -0.00722,0.0092 -0.016673,0.026398 l -0.014589,0.026746 0.034387,0.025356 c 0.018905,0.014047 0.042773,0.031636 0.053144,0.03925 l 0.018757,0.013894 0.1396337,0.023967 c 0.076669,0.013129 0.1397184,0.023535 0.1399811,0.023272 3.938e-4,-3.937e-4 0.00286,-0.035943 0.00417,-0.059049 L 5.1219431,4.660619 5.0990181,4.634221 5.0760931,4.60817 5.0476101,4.596013 c -0.015758,-0.00669 -0.02827,-0.012372 -0.028139,-0.012503 1.3e-4,-1.299e-4 0.08937,0.022618 0.1983354,0.050713 0.1089658,0.028095 0.199022,0.051061 0.2000723,0.051061 9.192e-4,0 0.00139,-3.86e-4 0.00139,-0.00104 0,-5.258e-4 0.00396,-0.027363 0.00868,-0.059397 0.00473,-0.032033 0.00847,-0.058092 0.00834,-0.058354 C 5.4360177,4.5663629 5.2353935,4.537888 4.9902872,4.503623 4.7453123,4.469358 4.5445553,4.441016 4.5442929,4.440753 c -2.623e-4,-2.638e-4 0.00236,-0.00938 0.00591,-0.020147 0.00368,-0.010766 0.0066,-0.020354 0.0066,-0.021536 0,-0.00144 -0.00957,-0.00531 -0.034387,-0.014241 L 4.4880289,4.372671 4.4810789,4.360514 c -0.0038,-0.00644 -0.00665,-0.012111 -0.00626,-0.012504 2.624e-4,-3.938e-4 0.1930198,0.00864 0.4282797,0.019799 l 0.4275849,0.020147 0.00348,0.00348 0.00348,0.00382 0.077459,0.00521 0.077111,0.00521 0.00451,-0.00486 0.00451,-0.00486 0.5467252,0.026051 C 6.3487291,4.436185 6.5948999,4.447494 6.5950312,4.447364 6.595295,4.4471001 6.5849292,4.439234 6.5724532,4.42965 L 6.549894,4.4119186 6.0347774,4.3959406 c -0.2833098,-0.00906 -0.5158029,-0.016541 -0.5168532,-0.016673 -0.00105,-2.639e-4 0.014454,-0.018945 0.037166,-0.044808 0.02153,-0.024418 0.038818,-0.044676 0.038556,-0.044808 -1.299e-4,-2.638e-4 -0.062062,-0.027787 -0.1375496,-0.061133 -0.075488,-0.033346 -0.1373718,-0.061087 -0.137897,-0.06148 -5.247e-4,-2.639e-4 -0.017643,0.015436 -0.037861,0.034735 l -0.036819,0.035082 -0.052102,0.017368 c -0.028488,0.00959 -0.052187,0.017668 -0.05245,0.018062 -3.939e-4,2.639e-4 0.00477,0.021508 0.011463,0.047239 0.00669,0.025732 0.011509,0.047409 0.011115,0.047934 -5.246e-4,3.938e-4 -0.1552196,-0.00438 -0.3438741,-0.010418 -0.1885231,-0.00591 -0.343349,-0.010552 -0.3438743,-0.010417 -5.245e-4,0 -0.00353,-0.00477 -0.00695,-0.010418 -0.00591,-0.00972 -0.00728,-0.01116 -0.042723,-0.03925 l -0.036819,-0.028829 0.00694,-0.00104 c 0.0038,-5.258e-4 0.5643586,-0.076604 1.2455887,-0.1691583 l 1.2386416,-0.1681159 6.948e-4,-0.042377 v -0.042377 h -0.00278 z M 3.3820836,4.0492876 c -4.33e-5,2.797e-4 1.496e-4,7.657e-4 3.465e-4,0.00139 5.247e-4,0.00144 0.00285,0.00785 0.00521,0.013894 l 0.00451,0.010766 0.2052825,0.098994 c 0.1127724,0.054351 0.2053673,0.098431 0.2056297,0.0983 1.3e-4,-2.639e-4 -0.091429,-0.049248 -0.2035457,-0.1087194 -0.1119852,-0.059471 -0.2069015,-0.1097453 -0.21084,-0.1118457 -0.00483,-0.00276 -0.00648,-0.00362 -0.0066,-0.00278 z M 3.2018101,4.16947 c -3.938e-4,0 -0.00917,0.00748 -0.019799,0.016673 -0.010631,0.00919 -0.018935,0.016973 -0.01841,0.017368 0.00132,0.00105 0.6119334,0.096308 0.6127211,0.095521 C 3.7768472,4.2986375 3.2040415,4.1693394 3.2018101,4.16947 Z m 0.5786813,0.1299079 c -0.00144,-1.299e-4 -0.00226,2.994e-4 -0.00173,6.948e-4 3.939e-4,3.938e-4 0.00151,3.938e-4 0.00243,0 0.00105,-3.938e-4 7.491e-4,-6.948e-4 -6.947e-4,-6.948e-4 z m -0.5078223,0.029872 0.00903,6.947e-4 c 0.00486,5.246e-4 0.010755,9.102e-4 0.012852,0.00104 0.00328,0 0.00288,6.313e-4 -0.00383,0.00313 -0.013653,0.00525 -0.013005,0.00525 -0.015631,0 l -0.00243,-0.00486 z m 2.0187845,0.017368 c 7.88e-4,0 0.00706,0.00585 0.013894,0.0132 l 0.012157,0.013546 -0.02223,-0.00104 c -0.01234,-5.246e-4 -0.03651,-0.00122 -0.053838,-0.00173 -0.01733,-3.938e-4 -0.030574,-0.00134 -0.029525,-0.00173 0.00341,-0.00118 0.078229,-0.022098 0.079542,-0.02223 z m -1.5151305,0.00278 c -3.111e-4,1.3e-4 -2.638e-4,4.978e-4 0,6.948e-4 3.939e-4,3.939e-4 0.00151,3.939e-4 0.00243,0 0.00105,-3.939e-4 4.025e-4,-6.948e-4 -0.00104,-6.948e-4 -7.224e-4,-6.7e-5 -0.00108,-1.3e-4 -0.0014,0 z m -1.0007085,0.039597 c -5.246e-4,-1.299e-4 -0.018932,0.01333 -0.040987,0.029872 l -0.039946,0.029525 -3.466e-4,0.015979 c -3.938e-4,0.015623 -4.568e-4,0.016147 0.00243,0.016673 0.00486,0.00105 0.2190752,0.02054 0.2209131,0.020147 C 2.9189981,4.5007956 2.7782387,4.3896519 2.775613,4.388996 Z m 0.2664156,0.2559952 c 0,0.00118 0.080314,0.078501 0.081627,0.078501 7.882e-4,0 0.014165,-0.00529 0.029525,-0.011463 l 0.027788,-0.011115 v -0.024315 -0.024315 h -0.00348 c -0.00459,0 -0.1171051,-0.00615 -0.1274766,-0.00695 -0.00459,-3.938e-4 -0.00799,-6.101e-4 -0.00799,-3.466e-4 z m -0.294898,0.2042393 c -3.939e-4,0 -0.00113,9.491e-4 -0.0014,0.00173 -3.939e-4,9.192e-4 -0.00663,0.021948 -0.014242,0.046892 l -0.013894,0.045502 0.00417,0.00591 c 0.022712,0.03164 0.079102,0.1084572 0.07989,0.1087193 5.246e-4,1.3e-4 0.00315,-0.00615 0.00591,-0.013894 0.00276,-0.00787 0.00852,-0.024046 0.012852,-0.036124 l 0.00764,-0.021883 0.00486,-6.948e-4 c 0.00276,-3.937e-4 0.013982,-0.00122 0.025009,-0.00173 l 0.019799,-6.948e-4 0.015631,-0.01702 0.015631,-0.016673 0.00834,-0.025357 c 0.00447,-0.013785 0.00756,-0.025093 0.00729,-0.025356 -7.88e-4,-7.881e-4 -0.073931,-0.028135 -0.075374,-0.028135 -7.882e-4,0 -0.00612,0.00606 -0.012157,0.013546 -0.00604,0.00762 -0.011933,0.013462 -0.012852,0.0132 -7.88e-4,-2.638e-4 -0.018291,-0.010969 -0.038903,-0.023967 -0.020611,-0.013129 -0.037815,-0.023967 -0.038209,-0.023967 z"
       style="fill:#000000;stroke:none;stroke-width:0.0111151"
       id="path12258" />
  </g>
  <metadata
     id="metadata33">
    <rdf:RDF>
      <cc:Work
         rdf:about="">
        <cc:license
           rdf:resource="http://creativecommons.org/licenses/by-sa/4.0/" />
      </cc:Work>
      <cc:License
         rdf:about="http://creativecommons.org/licenses/by-sa/4.0/">
        <cc:permits
           rdf:resource="http://creativecommons.org/ns#Reproduction" />
        <cc:permits
           rdf:resource="http://creativecommons.org/ns#Distribution" />
        <cc:requires
           rdf:resource="http://creativecommons.org/ns#Notice" />
        <cc:requires
           rdf:resource="http://creativecommons.org/ns#Attribution" />
        <cc:permits
           rdf:resource="http://creativecommons.org/ns#DerivativeWorks" />
        <cc:requires
           rdf:resource="http://creativecommons.org/ns#ShareAlike" />
      </cc:License>
    </rdf:RDF>
  </metadata>
</svg>
