<svg width="32" height="32" viewBox="0 0 8.467 8.467" xmlns:xlink="http://www.w3.org/1999/xlink" xmlns="http://www.w3.org/2000/svg"><defs><linearGradient id="a"><stop style="stop-color:#ff0;stop-opacity:1" offset="0"/><stop style="stop-color:red;stop-opacity:.99607843" offset=".602"/><stop style="stop-color:#ff0;stop-opacity:0" offset="1"/></linearGradient><linearGradient xlink:href="#a" id="b" x1="16" y1="30" x2="16" y2="22" gradientUnits="userSpaceOnUse"/></defs><path style="fill:#000;fill-opacity:1;stroke:none;stroke-width:.999999" d="M8 20a4 4 0 0 0-4 4v8h24v-8a4 4 0 0 0-4-4H8z" transform="scale(.26458)"/><path style="fill:#000;fill-opacity:1;stroke:none;stroke-width:.264583" d="M2.117 1.058a1.058 1.058 0 0 0-1.059 1.059v2.116h6.35V2.117A1.058 1.058 0 0 0 6.35 1.058Z"/><path style="fill:url(#b);fill-opacity:1;stroke:none;stroke-width:1.02598" d="M8 22a2 2 0 0 0-2 2v8h20v-8a2 2 0 0 0-2-2H8.05A2 2 0 0 0 8 22z" transform="scale(.26458)"/></svg>