<svg width="32" height="32" viewBox="0 0 8.467 8.467" xmlns="http://www.w3.org/2000/svg"><path style="fill:#000;fill-opacity:1;stroke:none;stroke-width:0" d="M8 10c-2.167.004-3.938 1.777-3.992 4H4v8h2v-5h4v5h2v-8h-.002c-.054-2.225-1.828-4-3.998-4Zm0 2a2 2 0 0 1 2 2v1H6v-1a2 2 0 0 1 2-2z" transform="translate(.794) scale(.26458)"/><path style="fill:#000;fill-opacity:1;stroke:none;stroke-width:0" d="M3.704 3.704v1.058h.002a1.058 1.086 0 0 0 1.056 1.059 1.058 1.086 0 0 0 .601-.193h.001l.192.193h.265V3.704h-.53v1.058a.53.53 0 0 1-.529.53.53.53 0 0 1-.529-.53V3.704Z" transform="translate(.794)"/></svg>