<svg width="32" height="128" viewBox="0 0 8.467 33.868" xmlns="http://www.w3.org/2000/svg"><path style="fill:#000;stroke-width:0" d="M2.117 2.117h1.058v1.058H2.117Zm1.587 0h1.058v1.058H3.704Zm1.588 0H6.35v1.058H5.292ZM2.117 3.704h1.058v1.058H2.117Zm1.587 0h1.058v1.058H3.704Zm1.588 0H6.35v1.058H5.292ZM2.117 5.292h1.058V6.35H2.117Zm1.587 0h1.058V6.35H3.704Zm1.588 0H6.35V6.35H5.292Zm-3.175 5.292h1.058v1.058H2.117Zm1.587 0h1.058v1.058H3.704Zm1.588 0H6.35v1.058H5.292Zm-3.175 1.587h1.058v1.058H2.117Zm1.587 0h1.058v1.058H3.704Zm1.588 0H6.35v1.058H5.292Zm-3.175 1.588h1.058v1.058H2.117Zm1.587 0h1.058v1.058H3.704Zm1.588 0H6.35v1.058H5.292Zm-3.175 5.292h1.058v1.058H2.117Zm1.587 0h1.058v1.058H3.704Zm1.588 0H6.35v1.058H5.292Zm-3.175 1.587h1.058v1.058H2.117Zm1.587 0h1.058v1.058H3.704Zm1.588 0H6.35v1.058H5.292Zm-3.175 1.588h1.058v1.058H2.117Zm1.587 0h1.058v1.058H3.704Zm1.588 0H6.35v1.058H5.292Zm-3.175 5.292h1.058v1.058H2.117Zm1.587 0h1.058v1.058H3.704Zm1.588 0H6.35v1.058H5.292Zm-3.175 1.587h1.058v1.058H2.117Zm1.587 0h1.058v1.058H3.704Zm1.588 0H6.35v1.058H5.292Zm-3.175 1.588h1.058v1.058H2.117Zm1.587 0h1.058v1.058H3.704Zm1.588 0H6.35v1.058H5.292Z"/></svg>