<svg width="32" height="128" viewBox="0 0 8.467 33.868" xmlns="http://www.w3.org/2000/svg"><path style="fill:#000;stroke-width:0" d="M3.704 2.117h1.058v1.058H3.704ZM2.117 3.704h1.058v1.058H2.117Zm1.587 0h1.058v1.058H3.704Zm1.588 0H6.35v1.058H5.292ZM3.704 5.292h1.058V6.35H3.704Zm0 5.292h1.058v1.058H3.704Zm-1.587 1.587h1.058v1.058H2.117Zm1.587 0h1.058v1.058H3.704Zm1.588 0H6.35v1.058H5.292Zm-1.588 1.588h1.058v1.058H3.704Zm0 5.292h1.058v1.058H3.704Zm-1.587 1.587h1.058v1.058H2.117Zm1.587 0h1.058v1.058H3.704Zm1.588 0H6.35v1.058H5.292Zm-1.588 1.588h1.058v1.058H3.704Zm0 5.292h1.058v1.058H3.704Zm-1.587 1.587h1.058v1.058H2.117Zm1.587 0h1.058v1.058H3.704Zm1.588 0H6.35v1.058H5.292Zm-1.588 1.588h1.058v1.058H3.704Z"/></svg>