<svg width="32" height="32" viewBox="0 0 8.467 8.467" xmlns="http://www.w3.org/2000/svg"><g style="font-size:5.29165px;line-height:1.25;font-family:'Source Code Pro';-inkscape-font-specification:'Source Code Pro';stroke-width:.132291;fill:#000;fill-opacity:1"><path d="m1.587 6.88-.002-3.176h2.117v.53H2.114v.529h1.059v.529H2.114l.003 1.587z" style="fill:#000;fill-opacity:1" transform="translate(.53 -1.058)" aria-label="Fe"/></g><path style="fill:#000;fill-opacity:1;stroke:none;stroke-width:.264583" d="M5.293 3.175a1.058 1.323 0 0 0-1.059 1.323A1.058 1.323 0 0 0 5.293 5.82h.529l.264-.53h-.793a.53.794 0 0 1-.498-.529h1.534a1.058 1.323 0 0 0 .022-.264 1.058 1.323 0 0 0-1.058-1.323Zm0 .53a.53.794 0 0 1 .498.528h-.996a.53.794 0 0 1 .498-.529Z"/></svg>