<svg width="32" height="32" viewBox="0 0 8.467 8.467" xmlns="http://www.w3.org/2000/svg"><path style="fill:#000;stroke:none;stroke-width:0" d="M.529 3.969h1.058v.529H.529zm3.44-3.44h.529v1.058h-.529zm2.91 3.44h1.058v.529H6.879z"/><path style="fill:#000;stroke:none;stroke-width:.264583px;stroke-linecap:butt;stroke-linejoin:miter;stroke-opacity:1" d="m6.085 2.117.265.264.794-.793-.265-.265-.794.794m-3.704 0-.264.264-.794-.793.265-.265.793.794"/><path style="fill:#000;stroke:none;stroke-width:0" transform="scale(1 -1)" d="M3.969-7.937h.529v1.058h-.529z"/><path style="fill:#000;stroke:none;stroke-width:.264583px;stroke-linecap:butt;stroke-linejoin:miter;stroke-opacity:1" d="m6.085 6.35.265-.265.794.794-.265.265-.794-.794m-3.704 0-.264-.265-.794.794.265.265.793-.794"/><path style="fill:#000;stroke:none;stroke-width:0" d="M4.233 2.117a2.117 2.117 0 0 0-2.116 2.116A2.117 2.117 0 0 0 4.233 6.35 2.117 2.117 0 0 0 6.35 4.233a2.117 2.117 0 0 0-2.117-2.116zm0 .529a1.587 1.587 0 0 1 1.588 1.587 1.587 1.587 0 0 1-1.588 1.588 1.587 1.587 0 0 1-1.587-1.588 1.587 1.587 0 0 1 1.587-1.587z"/></svg>