<svg width="32" height="32" viewBox="0 0 8.467 8.467" xmlns="http://www.w3.org/2000/svg"><path style="fill:#000;stroke:none;stroke-width:0" d="M.529 3.969h1.058v.529H.529zM3.969.529h.529v1.058h-.529zM6.879 3.969h1.058v.529H6.879z"/><path style="fill:#000;stroke:none;stroke-width:.264583px;stroke-linecap:butt;stroke-linejoin:miter;stroke-opacity:1" d="m6.085 2.117.265.264.794-.793-.265-.265-.794.794M2.381 2.117l-.264.264-.794-.793.265-.265.793.794"/><path style="fill:#000;stroke:none;stroke-width:0" transform="scale(1 -1)" d="M3.969-7.937h.529v1.058h-.529z"/><path style="fill:#000;stroke:none;stroke-width:.264583px;stroke-linecap:butt;stroke-linejoin:miter;stroke-opacity:1" d="m6.085 6.35.265-.265.794.794-.265.265-.794-.794M2.381 6.35l-.264-.265-.794.794.265.265.793-.794"/><circle style="fill:#000;stroke:none;stroke-width:0" cx="4.233" cy="4.233" r="2.117"/></svg>