<?xml version="1.0" encoding="UTF-8" standalone="no"?>
<!-- Created with Inkscape (http://www.inkscape.org/) -->

<svg
   width="32"
   height="32"
   viewBox="0 0 8.4666666 8.4666668"
   version="1.1"
   id="svg5"
   inkscape:version="1.2 (dc2aeda, 2022-05-15)"
   sodipodi:docname="leaves4.svg"
   xmlns:inkscape="http://www.inkscape.org/namespaces/inkscape"
   xmlns:sodipodi="http://sodipodi.sourceforge.net/DTD/sodipodi-0.dtd"
   xmlns="http://www.w3.org/2000/svg"
   xmlns:svg="http://www.w3.org/2000/svg"
   xmlns:rdf="http://www.w3.org/1999/02/22-rdf-syntax-ns#"
   xmlns:cc="http://creativecommons.org/ns#">
  <sodipodi:namedview
     id="namedview7"
     pagecolor="#ffffff"
     bordercolor="#111111"
     borderopacity="1"
     inkscape:pageshadow="0"
     inkscape:pageopacity="0"
     inkscape:pagecheckerboard="1"
     inkscape:document-units="mm"
     showgrid="true"
     width="32mm"
     units="px"
     objecttolerance="10000"
     guidetolerance="10000"
     inkscape:snap-perpendicular="true"
     inkscape:snap-tangential="true"
     inkscape:zoom="34.90625"
     inkscape:cx="8.6517457"
     inkscape:cy="16.257833"
     inkscape:window-width="2560"
     inkscape:window-height="1301"
     inkscape:window-x="0"
     inkscape:window-y="25"
     inkscape:window-maximized="0"
     inkscape:current-layer="layer1"
     inkscape:showpageshadow="0"
     inkscape:deskcolor="#d1d1d1">
    <inkscape:grid
       type="xygrid"
       id="grid9"
       units="px"
       empspacing="2" />
  </sodipodi:namedview>
  <defs
     id="defs2" />
  <g
     inkscape:label="Layer 1"
     inkscape:groupmode="layer"
     id="layer1">
    <path
       id="path18611"
       style="stroke-width:0;fill:#000000;stroke:none"
       d="m 2.6458333,1.5875004 c 0.79375,4e-7 1.0583335,0.5291666 1.5875,1.0583332 -0.5291665,0.5291667 -0.79375,1.0583331 -1.5875,1.0583332 -0.79375,1e-7 -1.0583332,-0.5291665 -1.5875,-1.0583332 0.5291668,-0.5291667 0.79375,-1.0583336 1.5875,-1.0583332 z"
       sodipodi:nodetypes="scscs" />
    <path
       id="path18763"
       style="stroke-width:0;fill:#000000;stroke:none"
       d="m 5.8208329,4.7625 c 0.79375,4e-7 1.0583335,0.5291666 1.5875,1.0583332 -0.5291665,0.5291667 -0.79375,1.0583331 -1.5875,1.0583332 -0.79375,1e-7 -1.0583332,-0.5291665 -1.5875,-1.0583332 0.5291668,-0.5291667 0.79375,-1.0583336 1.5875,-1.0583332 z"
       sodipodi:nodetypes="scscs" />
    <path
       id="path18765"
       style="stroke-width:0;fill:#000000;stroke:none"
       d="m 1.5875001,5.8208332 c 4e-7,-0.79375 0.5291666,-1.0583335 1.0583332,-1.5875 0.5291667,0.5291665 1.0583331,0.79375 1.0583332,1.5875 1e-7,0.79375 -0.5291665,1.0583332 -1.0583332,1.5875 -0.5291667,-0.5291668 -1.0583336,-0.79375 -1.0583332,-1.5875 z"
       sodipodi:nodetypes="scscs" />
    <path
       id="path18767"
       style="stroke-width:0;fill:#000000;stroke:none"
       d="m 4.7624997,2.6458336 c 4e-7,-0.79375 0.5291666,-1.0583335 1.0583332,-1.5875 0.5291667,0.5291665 1.0583331,0.79375 1.0583332,1.5875 1e-7,0.79375 -0.5291665,1.0583332 -1.0583332,1.5875 -0.5291667,-0.5291668 -1.0583336,-0.79375 -1.0583332,-1.5875 z"
       sodipodi:nodetypes="scscs" />
  </g>
  <metadata
     id="metadata33">
    <rdf:RDF>
      <cc:Work
         rdf:about="">
        <cc:license
           rdf:resource="http://creativecommons.org/licenses/by-sa/4.0/" />
      </cc:Work>
      <cc:License
         rdf:about="http://creativecommons.org/licenses/by-sa/4.0/">
        <cc:permits
           rdf:resource="http://creativecommons.org/ns#Reproduction" />
        <cc:permits
           rdf:resource="http://creativecommons.org/ns#Distribution" />
        <cc:requires
           rdf:resource="http://creativecommons.org/ns#Notice" />
        <cc:requires
           rdf:resource="http://creativecommons.org/ns#Attribution" />
        <cc:permits
           rdf:resource="http://creativecommons.org/ns#DerivativeWorks" />
        <cc:requires
           rdf:resource="http://creativecommons.org/ns#ShareAlike" />
      </cc:License>
    </rdf:RDF>
  </metadata>
</svg>
