<svg width="32" height="32" viewBox="0 0 8.467 8.467" xmlns="http://www.w3.org/2000/svg"><path style="stroke-width:0;fill:#000;stroke:none" d="M2.646 1.588c.794 0 1.058.529 1.587 1.058-.529.529-.793 1.058-1.587 1.058-.794 0-1.058-.529-1.588-1.058.53-.53.794-1.058 1.588-1.058zM5.82 4.763c.795 0 1.06.529 1.588 1.058-.529.529-.793 1.058-1.587 1.058-.794 0-1.059-.529-1.588-1.058.53-.53.794-1.059 1.588-1.058zM1.588 5.82c0-.793.529-1.058 1.058-1.587.529.53 1.058.794 1.058 1.588s-.529 1.058-1.058 1.587c-.53-.529-1.059-.793-1.058-1.587zm3.174-3.174c0-.794.53-1.058 1.059-1.588.529.53 1.058.794 1.058 1.588S6.35 3.704 5.821 4.233c-.53-.529-1.059-.793-1.059-1.587z"/></svg>