<svg width="32" height="32" viewBox="0 0 8.467 8.467" xmlns="http://www.w3.org/2000/svg"><path style="fill:#000;stroke-width:0" d="M1.058 5.292h.529v.529h-.529zM1.058 6.879h.529v.529h-.529zM2.646 6.879h.529v.529h-.529zM2.646 5.292h.529v.529h-.529zM3.175 4.763h.529v.529h-.529zM3.175 3.175h.529v.529h-.529zM4.762 3.175h.529v.529h-.529zM4.762 4.763h.529v.529h-.529zM5.292 5.292h.529v.529h-.529zM5.292 6.879h.529v.529h-.529zM6.879 6.879h.529v.529h-.529zM6.879 5.292h.529v.529h-.529zM5.292 1.058h.529v.529h-.529zM5.292 2.646h.529v.529h-.529zM6.879 2.646h.529v.529h-.529zM6.879 1.058h.529v.529h-.529zM1.058 1.058h.529v.529h-.529zM1.058 2.646h.529v.529h-.529zM2.646 2.646h.529v.529h-.529zM2.646 1.058h.529v.529h-.529z"/></svg>