<svg width="32" height="32" viewBox="0 0 8.467 8.467" xmlns="http://www.w3.org/2000/svg"><path style="fill:#000;stroke-width:0" d="M1.058 5.292h.529v.529h-.529zm0 1.587h.529v.529h-.529zm1.588 0h.529v.529h-.529zm0-1.587h.529v.529h-.529zm.529-.529h.529v.529h-.529zm0-1.588h.529v.529h-.529zm1.587 0h.529v.529h-.529zm0 1.588h.529v.529h-.529zm.53.529h.529v.529h-.529zm0 1.587h.529v.529h-.529zm1.587 0h.529v.529h-.529zm0-1.587h.529v.529h-.529zM5.292 1.058h.529v.529h-.529zm0 1.588h.529v.529h-.529zm1.587 0h.529v.529h-.529zm0-1.588h.529v.529h-.529zm-5.821 0h.529v.529h-.529zm0 1.588h.529v.529h-.529zm1.588 0h.529v.529h-.529zm0-1.588h.529v.529h-.529z"/></svg>