<svg width="32" height="32" viewBox="0 0 8.467 8.467" xmlns="http://www.w3.org/2000/svg"><path style="stroke-width:0;fill:#000;stroke:none" d="M3.704 2.646c-.529.529-.766.529-1.058.529-.292 0-.53 0-1.059-.53.53-.528.767-.528 1.059-.528.292 0 .529 0 1.058.529zM6.88 5.82c-.53.53-.767.53-1.06.53-.291 0-.528 0-1.058-.53.53-.528.767-.528 1.059-.528.292 0 .529 0 1.058.529zM2.646 4.762c.529.53.529.767.529 1.059 0 .292 0 .529-.53 1.058-.528-.529-.528-.766-.528-1.058 0-.292 0-.53.529-1.059zM5.82 1.587c.53.53.53.767.53 1.059 0 .292 0 .529-.53 1.058-.528-.529-.528-.766-.528-1.058 0-.292 0-.53.529-1.059z"/></svg>