<?xml version="1.0" encoding="UTF-8" standalone="no"?>
<!-- Created with Inkscape (http://www.inkscape.org/) -->

<svg
   width="32"
   height="32"
   viewBox="0 0 8.4666666 8.4666668"
   version="1.1"
   id="svg5"
   inkscape:version="1.2 (dc2aeda, 2022-05-15)"
   sodipodi:docname="leaves4a.svg"
   xmlns:inkscape="http://www.inkscape.org/namespaces/inkscape"
   xmlns:sodipodi="http://sodipodi.sourceforge.net/DTD/sodipodi-0.dtd"
   xmlns="http://www.w3.org/2000/svg"
   xmlns:svg="http://www.w3.org/2000/svg"
   xmlns:rdf="http://www.w3.org/1999/02/22-rdf-syntax-ns#"
   xmlns:cc="http://creativecommons.org/ns#">
  <sodipodi:namedview
     id="namedview7"
     pagecolor="#ffffff"
     bordercolor="#111111"
     borderopacity="1"
     inkscape:pageshadow="0"
     inkscape:pageopacity="0"
     inkscape:pagecheckerboard="1"
     inkscape:document-units="mm"
     showgrid="true"
     width="32mm"
     units="px"
     objecttolerance="10000"
     guidetolerance="10000"
     inkscape:snap-perpendicular="true"
     inkscape:snap-tangential="true"
     inkscape:zoom="34.90625"
     inkscape:cx="8.6517457"
     inkscape:cy="16.257833"
     inkscape:window-width="2560"
     inkscape:window-height="1301"
     inkscape:window-x="0"
     inkscape:window-y="25"
     inkscape:window-maximized="0"
     inkscape:current-layer="layer1"
     inkscape:showpageshadow="0"
     inkscape:deskcolor="#d1d1d1">
    <inkscape:grid
       type="xygrid"
       id="grid9"
       units="px"
       empspacing="2" />
  </sodipodi:namedview>
  <defs
     id="defs2" />
  <g
     inkscape:label="Layer 1"
     inkscape:groupmode="layer"
     id="layer1">
    <path
       id="path18703"
       style="stroke-width:0;fill:#000000;stroke:none"
       d="M 3.7041666,2.6458333 C 3.175,3.175 2.9380839,3.1749999 2.6458333,3.1749999 c -0.2922507,0 -0.5291666,10e-8 -1.0583334,-0.5291666 0.5291668,-0.5291666 0.7660827,-0.5291667 1.0583334,-0.5291667 0.2922507,0 0.5291667,1e-7 1.0583333,0.5291667 z"
       sodipodi:nodetypes="cscsc" />
    <path
       id="path18730"
       style="stroke-width:0;fill:#000000;stroke:none"
       d="M 6.8791662,5.8208329 C 6.3499996,6.3499996 6.1130835,6.3499995 5.8208329,6.3499995 c -0.2922507,0 -0.5291666,1e-7 -1.0583334,-0.5291666 0.5291668,-0.5291666 0.7660827,-0.5291667 1.0583334,-0.5291667 0.2922507,0 0.5291667,1e-7 1.0583333,0.5291667 z"
       sodipodi:nodetypes="cscsc" />
    <path
       id="path18732"
       style="stroke-width:0;fill:#000000;stroke:none"
       d="M 2.6458333,4.7624995 C 3.175,5.2916661 3.1749999,5.5285822 3.1749999,5.8208328 c 0,0.2922507 10e-8,0.5291666 -0.5291666,1.0583334 C 2.1166667,6.3499994 2.1166666,6.1130835 2.1166666,5.8208328 c 0,-0.2922507 1e-7,-0.5291667 0.5291667,-1.0583333 z"
       sodipodi:nodetypes="cscsc" />
    <path
       id="path18734"
       style="stroke-width:0;fill:#000000;stroke:none"
       d="m 5.8208329,1.5874999 c 0.5291667,0.5291666 0.5291666,0.7660827 0.5291666,1.0583333 0,0.2922507 1e-7,0.5291666 -0.5291666,1.0583334 C 5.2916663,3.1749998 5.2916662,2.9380839 5.2916662,2.6458332 c 0,-0.2922507 1e-7,-0.5291667 0.5291667,-1.0583333 z"
       sodipodi:nodetypes="cscsc" />
  </g>
  <metadata
     id="metadata33">
    <rdf:RDF>
      <cc:Work
         rdf:about="">
        <cc:license
           rdf:resource="http://creativecommons.org/licenses/by-sa/4.0/" />
      </cc:Work>
      <cc:License
         rdf:about="http://creativecommons.org/licenses/by-sa/4.0/">
        <cc:permits
           rdf:resource="http://creativecommons.org/ns#Reproduction" />
        <cc:permits
           rdf:resource="http://creativecommons.org/ns#Distribution" />
        <cc:requires
           rdf:resource="http://creativecommons.org/ns#Notice" />
        <cc:requires
           rdf:resource="http://creativecommons.org/ns#Attribution" />
        <cc:permits
           rdf:resource="http://creativecommons.org/ns#DerivativeWorks" />
        <cc:requires
           rdf:resource="http://creativecommons.org/ns#ShareAlike" />
      </cc:License>
    </rdf:RDF>
  </metadata>
</svg>
