<svg width="32" height="128" viewBox="0 0 8.467 33.868" xmlns="http://www.w3.org/2000/svg"><path style="fill:#fff;stroke-width:0" d="M7.938 3.704 7.937.531H.53v2.644H0l.794.794.794-.794h-.53V1.059h6.35v2.645l.265-.264ZM.529 4.764.53 7.938h7.407V5.294h.53L7.673 4.5l-.794.794h.53V7.41h-6.35V4.764l-.265.265Zm7.409 7.407-.001-3.173H.53v2.644H0l.794.794.794-.794h-.53V9.526h6.35v2.645l.265-.264zm-7.409 1.06.001 3.174h7.407V13.76h.53l-.794-.794-.794.794h.53v2.116h-6.35V13.23l-.265.265Zm7.409 7.407-.001-3.173H.53v2.644H0l.794.794.794-.794h-.53v-2.116h6.35v2.645l.265-.264zm-7.409 1.06.001 3.174h7.407v-2.644h.53l-.794-.794-.794.794h.53v2.116h-6.35v-2.646l-.265.265zm7.409 7.407-.001-3.173H.53v2.644H0l.794.794.794-.794h-.53V26.46h6.35v2.645l.265-.264zm-7.409 1.06L.53 33.34h7.407v-2.644h.53l-.794-.794-.794.794h.53v2.116h-6.35v-2.646l-.265.265Z"/></svg>