<svg width="32" height="128" viewBox="0 0 8.467 33.868" xmlns="http://www.w3.org/2000/svg"><path style="fill:#000;stroke-width:0" d="M.53.53v7.407h7.407V5.293h.53l-.794-.794-.794.794h.53v2.116h-6.35v-6.35h6.35v2.646l.264-.264.264.264V.53ZM.53 17.464v7.407h7.407v-2.644h.53l-.794-.794-.794.794h.53v2.116h-6.35v-6.35h6.35v2.646l.264-.264.264.264v-3.175zM.53 8.997v7.407h7.407V13.76h.53l-.794-.794-.794.794h.53v2.116h-6.35v-6.35h6.35v2.646l.264-.264.264.264V8.997ZM.53 25.931v7.407h7.407v-2.644h.53l-.794-.794-.794.794h.53v2.116h-6.35v-6.35h6.35v2.646l.264-.264.264.264v-3.175z"/></svg>