<svg width="32" height="32" viewBox="0 0 8.467 8.467" xmlns="http://www.w3.org/2000/svg"><path style="fill:#000;fill-opacity:1;stroke:none;stroke-width:.999999" d="M7 10c-2.21 0-4 1.567-4 3.5 0 1.921 1.769 3.48 3.959 3.5H7c1.086.016 1.959.682 1.959 1.5 0 .828-.895 1.5-2 1.5-.844-.003-1.596-.403-1.877-1H3c.284 1.722 1.97 3 3.959 3 2.21 0 4-1.567 4-3.5 0-1.921-1.769-3.48-3.959-3.5h-.041C5.873 14.984 5 14.318 5 13.5c0-.828.895-1.5 2-1.5.844.003 1.678.403 1.959 1h2c-.284-1.722-1.97-3-3.959-3Z" transform="scale(.26458)"/><path style="fill:#000;fill-opacity:1;stroke:none;stroke-width:.247495" d="M3.175 3.969h.529v1.852h-.529z"/><circle style="fill:#000;fill-opacity:1;stroke:none;stroke-width:.264583" cx="3.44" cy="3.175" r=".265"/><path style="fill:#000;fill-opacity:1;stroke:none;stroke-width:.264583" d="M5.027 2.646A1.058 1.587 0 0 0 3.97 4.233a1.058 1.587 0 0 0 1.058 1.588 1.058 1.587 0 0 0 1.058-1.588 1.058 1.587 0 0 0-1.058-1.587zm0 .529a.53 1.058 0 0 1 .53 1.058.53 1.058 0 0 1-.53 1.059.53 1.058 0 0 1-.53-1.059.53 1.058 0 0 1 .53-1.058Zm1.323.529v.53h.53a.265.265 0 1 1 0 .528.794.794 0 0 0-.795.794v.794h1.588v-.53H6.615v-.264c0-.146.118-.264.264-.264a.794.794 0 0 0 0-1.588z"/></svg>