<svg width="32" height="32" viewBox="0 0 8.467 8.467" xmlns="http://www.w3.org/2000/svg"><path style="fill:#000;stroke-width:0" d="M3.969 3.175a.794.794 0 0 0-.794.794v.529a.794.794 0 0 0 .794.794h.529a.794.794 0 0 0 .794-.794v-.53a.794.794 0 0 0-.794-.793h-.53zm.264.53a.53.53 0 0 1 .53.528.53.53 0 0 1-.53.53.53.53 0 0 1-.529-.53.53.53 0 0 1 .53-.529zm-.529-1.588a1.587 1.587 0 0 0-1.587 1.587v1.058A1.587 1.587 0 0 0 3.704 6.35h1.058A1.587 1.587 0 0 0 6.35 4.762V3.704a1.587 1.587 0 0 0-1.588-1.587Zm0 .529h1.058a1.058 1.058 0 0 1 1.059 1.058v1.058a1.058 1.058 0 0 1-1.059 1.059H3.704a1.058 1.058 0 0 1-1.058-1.059V3.704a1.058 1.058 0 0 1 1.058-1.058Zm-.529-1.588a2.117 2.117 0 0 0-2.117 2.117v2.117a2.117 2.117 0 0 0 2.117 2.116h2.117a2.117 2.117 0 0 0 2.116-2.116V3.175a2.117 2.117 0 0 0-2.116-2.117Zm0 .53h2.117a1.587 1.587 0 0 1 1.587 1.587v2.117a1.587 1.587 0 0 1-1.587 1.587H3.175a1.587 1.587 0 0 1-1.588-1.587V3.175a1.587 1.587 0 0 1 1.588-1.588Z"/></svg>