<svg width="32" height="32" viewBox="0 0 8.467 8.467" xmlns="http://www.w3.org/2000/svg"><path style="fill:#000;stroke-width:0" d="M2.91.53A2.381 2.381 0 0 0 .53 2.91v2.646a2.381 2.381 0 0 0 2.38 2.382h2.646a2.381 2.381 0 0 0 2.382-2.382V2.911A2.381 2.381 0 0 0 5.556.529H2.911zm.265.528h2.116a2.117 2.117 0 0 1 2.117 2.117v2.116a2.117 2.117 0 0 1-2.117 2.117H3.175a2.117 2.117 0 0 1-2.117-2.117V3.175a2.117 2.117 0 0 1 2.117-2.117zm0 .53a1.587 1.587 0 0 0-1.587 1.587v2.116A1.587 1.587 0 0 0 3.175 6.88h2.116A1.587 1.587 0 0 0 6.88 5.29V3.175a1.587 1.587 0 0 0-1.59-1.587H3.175zm.53.529h1.058A1.587 1.587 0 0 1 6.35 3.704v1.059A1.587 1.587 0 0 1 4.763 6.35H3.704a1.587 1.587 0 0 1-1.587-1.587V3.704a1.587 1.587 0 0 1 1.587-1.587zm0 .529a1.058 1.058 0 0 0-1.06 1.058v1.059a1.058 1.058 0 0 0 1.06 1.058h1.058A1.058 1.058 0 0 0 5.82 4.763V3.704a1.058 1.058 0 0 0-1.058-1.058H3.704zm.263.53h.53a.794.794 0 0 1 .794.792v.53a.794.794 0 0 1-.794.794h-.53a.794.794 0 0 1-.793-.794v-.53a.794.794 0 0 1 .793-.793zm.266.528a.53.53 0 0 0-.53.529.53.53 0 0 0 .529.53.53.53 0 0 0 .53-.53.53.53 0 0 0-.53-.528l.001-.001z"/></svg>