<svg width="32" height="32" viewBox="0 0 8.467 8.467" xmlns="http://www.w3.org/2000/svg"><path style="fill:#000;stroke-width:0" d="M12 4a8 8 0 0 0-8 8v8a8 8 0 0 0 8 8h8a8 8 0 0 0 8-8v-8a8 8 0 0 0-8-8Zm0 2h8a6 6 0 0 1 6 6v8a6 6 0 0 1-6 6h-8a6 6 0 0 1-6-6v-8a6 6 0 0 1 6-6z" transform="scale(.26458)"/><path style="fill:#000;stroke-width:0" d="M14 8a6 6 0 0 0-6 6v4a6 6 0 0 0 6 6h4a6 6 0 0 0 6-6v-4a6 6 0 0 0-6-6Zm0 2h4a4 4 0 0 1 4 4v4a4 4 0 0 1-4 4h-4a4 4 0 0 1-4-4v-4a4 4 0 0 1 4-4z" transform="scale(.26458)"/></svg>