<svg width="32" height="32" viewBox="0 0 8.467 8.467" xmlns="http://www.w3.org/2000/svg"><path style="fill:#000;stroke-width:0" d="M3.176 1.058a2.117 2.117 0 0 0-2.118 2.118v1.586A2.117 2.117 0 0 0 3.176 6.88h1.586A1.587 1.587 0 0 0 6.35 5.292v-.529h-.53v.53A1.058 1.058 0 0 1 4.762 6.35H3.176a1.587 1.587 0 0 1-1.588-1.588V3.176a1.587 1.587 0 0 1 1.588-1.588H5.29a1.587 1.587 0 0 1 1.59 1.588V5.82a1.587 1.587 0 0 1-1.59 1.59H4.233v.53h1.058a2.117 2.117 0 0 0 2.117-2.12V3.176a2.117 2.117 0 0 0-2.117-2.118H3.176zm.528 1.06a1.587 1.587 0 0 0-1.587 1.586v.53A1.587 1.587 0 0 0 3.704 5.82h.794a.794.794 0 0 0 .793-.794v-.264h-.529a.53.53 0 0 1-.528.53V5.29h-.53a1.058 1.058 0 0 1-1.058-1.058v-.529a1.058 1.058 0 0 1 1.058-1.058h1.059A1.058 1.058 0 0 1 5.82 3.704v1.059h.53V3.704a1.587 1.587 0 0 0-1.587-1.587H3.704zm.264 1.058a.794.794 0 0 0-.793.793v.265a.53.53 0 0 0 .53.529.53.53 0 0 0 .529-.53h-.53a.53.53 0 0 1 .529-.529v-.528h-.265zm.266 0v.528a.53.53 0 0 1 .529.53v.529h.529v-.794a.794.794 0 0 0-.793-.793h-.265z"/></svg>