<svg width="32" height="32" viewBox="0 0 8.467 8.467" xmlns="http://www.w3.org/2000/svg"><path style="fill:#000;stroke-width:0" d="M3.969 2.646a1.323 1.323 0 0 0-1.323 1.323v.529A1.323 1.323 0 0 0 3.969 5.82h.529A1.323 1.323 0 0 0 5.82 4.498v-.53a1.323 1.323 0 0 0-1.323-1.322h-.53zm.264.529a1.058 1.058 0 0 1 1.059 1.058 1.058 1.058 0 0 1-1.059 1.059 1.058 1.058 0 0 1-1.058-1.059 1.058 1.058 0 0 1 1.058-1.058z"/><path style="fill:#000;stroke-width:0" d="M3.175 1.587a1.587 1.587 0 0 0-1.587 1.588v2.117a1.587 1.587 0 0 0 1.587 1.587h2.117a1.587 1.587 0 0 0 1.587-1.587V3.175a1.587 1.587 0 0 0-1.587-1.587H3.175zm.53.53h1.058A1.587 1.587 0 0 1 6.35 3.704v1.058A1.587 1.587 0 0 1 4.763 6.35H3.704a1.587 1.587 0 0 1-1.587-1.587V3.704a1.587 1.587 0 0 1 1.587-1.587z"/><path style="fill:#000;stroke-width:0" d="M2.646.53A2.117 2.117 0 0 0 .529 2.645V5.82a2.117 2.117 0 0 0 2.117 2.117H5.82A2.117 2.117 0 0 0 7.938 5.82V2.646A2.117 2.117 0 0 0 5.82.529H2.646zm.529.528h2.117a2.117 2.117 0 0 1 2.116 2.117v2.117a2.117 2.117 0 0 1-2.116 2.116H3.175a2.117 2.117 0 0 1-2.117-2.116V3.175a2.117 2.117 0 0 1 2.117-2.117z"/><path style="fill:#000;stroke-width:0" d="M4.233 3.704a.53.53 0 0 0-.529.53.53.53 0 0 0 .53.529.53.53 0 0 0 .529-.53.53.53 0 0 0-.53-.529Z"/></svg>