<?xml version="1.0" encoding="UTF-8" standalone="no"?>
<!-- Created with Inkscape (http://www.inkscape.org/) -->

<svg
   width="32"
   height="32"
   viewBox="0 0 8.4666666 8.4666668"
   version="1.1"
   id="svg5"
   inkscape:version="1.2 (dc2aeda, 2022-05-15)"
   sodipodi:docname="snow.svg"
   xmlns:inkscape="http://www.inkscape.org/namespaces/inkscape"
   xmlns:sodipodi="http://sodipodi.sourceforge.net/DTD/sodipodi-0.dtd"
   xmlns="http://www.w3.org/2000/svg"
   xmlns:svg="http://www.w3.org/2000/svg"
   xmlns:rdf="http://www.w3.org/1999/02/22-rdf-syntax-ns#"
   xmlns:cc="http://creativecommons.org/ns#">
  <sodipodi:namedview
     id="namedview7"
     pagecolor="#ffffff"
     bordercolor="#111111"
     borderopacity="1"
     inkscape:pageshadow="0"
     inkscape:pageopacity="0"
     inkscape:pagecheckerboard="1"
     inkscape:document-units="mm"
     showgrid="true"
     width="32mm"
     units="px"
     objecttolerance="10000"
     guidetolerance="10000"
     inkscape:snap-perpendicular="true"
     inkscape:snap-tangential="true"
     inkscape:zoom="34.90625"
     inkscape:cx="11.774396"
     inkscape:cy="16.057296"
     inkscape:window-width="2560"
     inkscape:window-height="1301"
     inkscape:window-x="0"
     inkscape:window-y="25"
     inkscape:window-maximized="0"
     inkscape:current-layer="layer1"
     inkscape:showpageshadow="0"
     inkscape:deskcolor="#d1d1d1">
    <inkscape:grid
       type="xygrid"
       id="grid9"
       units="px"
       empspacing="4" />
  </sodipodi:namedview>
  <defs
     id="defs2" />
  <g
     inkscape:label="Layer 1"
     inkscape:groupmode="layer"
     id="layer1">
    <path
       id="rect6736"
       style="fill:#000000;stroke:none;stroke-width:0"
       d="M 2.9104167 1.0583333 L 3.96875 2.1166667 L 3.96875 3.7041667 L 3.175 2.9104167 L 3.175 2.1166667 L 2.9104167 2.1166667 L 2.9104167 2.6458333 L 2.38125 2.1166667 L 2.1166667 2.38125 L 2.6458333 2.9104167 L 2.1166667 2.9104167 L 2.1166667 3.175 L 2.9104167 3.175 L 3.7041667 3.96875 L 2.1166667 3.96875 L 1.0583333 2.9104167 L 1.0583333 3.4395833 L 1.5875 3.96875 L 1.0583333 3.96875 L 1.0583333 4.4979167 L 1.5875 4.4979167 L 1.0583333 5.0270833 L 1.0583333 5.55625 L 2.1166667 4.4979167 L 3.7041667 4.4979167 L 2.9104167 5.2916667 L 2.1166667 5.2916667 L 2.1166667 5.55625 L 2.6458333 5.55625 L 2.1166667 6.0854167 L 2.38125 6.35 L 2.9104167 5.8208333 L 2.9104167 6.35 L 3.175 6.35 L 3.175 5.55625 L 3.96875 4.7625 L 3.96875 6.35 L 2.9104167 7.4083333 L 3.4395833 7.4083333 L 3.96875 6.8791667 L 3.96875 7.4083333 L 4.4979167 7.4083333 L 4.4979167 6.8791667 L 5.0270833 7.4083333 L 5.55625 7.4083333 L 4.4979167 6.35 L 4.4979167 4.7625 L 5.2916667 5.55625 L 5.2916667 6.35 L 5.55625 6.35 L 5.55625 5.8208333 L 6.0854167 6.35 L 6.35 6.0854167 L 5.8208333 5.55625 L 6.35 5.55625 L 6.35 5.2916667 L 5.55625 5.2916667 L 4.7625 4.4979167 L 6.35 4.4979167 L 7.4083333 5.55625 L 7.4083333 5.0270833 L 6.8791667 4.4979167 L 7.4083333 4.4979167 L 7.4083333 3.96875 L 6.8791667 3.96875 L 7.4083333 3.4395833 L 7.4083333 2.9104167 L 6.35 3.96875 L 4.7625 3.96875 L 5.55625 3.175 L 6.35 3.175 L 6.35 2.9104167 L 5.8208333 2.9104167 L 6.35 2.38125 L 6.0854167 2.1166667 L 5.55625 2.6458333 L 5.55625 2.1166667 L 5.2916667 2.1166667 L 5.2916667 2.9104167 L 4.4979167 3.7041667 L 4.4979167 2.1166667 L 5.55625 1.0583333 L 5.0270833 1.0583333 L 4.4979167 1.5875 L 4.4979167 1.0583333 L 3.96875 1.0583333 L 3.96875 1.5875 L 3.4395833 1.0583333 L 2.9104167 1.0583333 z " />
    <path
       id="rect6789"
       style="fill:#000000;stroke:none;stroke-width:0"
       d="M 0 6.35 L 0 8.2020833 L 0 8.4666667 L 0.26458333 8.4666667 L 2.1166667 8.4666667 L 2.1166667 8.2020833 L 0.52916667 8.2020833 L 1.5875 7.14375 L 1.3229167 6.8791667 L 0.26458333 7.9375 L 0.26458333 6.35 L 0 6.35 z " />
    <path
       id="path6822"
       style="fill:#000000;stroke:none;stroke-width:0"
       d="M 8.4666659,6.35 V 8.2020833 8.4666667 H 8.2020826 6.3499993 V 8.2020833 H 7.9374992 L 6.879166,7.14375 7.1437492,6.8791667 8.2020826,7.9375 V 6.35 Z" />
    <path
       id="path6824"
       style="fill:#000000;stroke:none;stroke-width:0"
       d="M 0,2.1166674 V 0.26458401 5.7666667e-7 H 0.26458333 2.1166667 V 0.26458401 H 0.52916667 L 1.5875,1.3229174 1.3229167,1.5875007 0.26458333,0.52916734 V 2.1166674 Z" />
    <path
       id="path6826"
       style="fill:#000000;stroke:none;stroke-width:0"
       d="M 8.4666659,2.1166674 V 0.26458401 5.7666667e-7 H 8.2020826 6.3499993 V 0.26458401 H 7.9374992 L 6.879166,1.3229174 7.1437492,1.5875007 8.2020826,0.52916734 V 2.1166674 Z" />
  </g>
  <metadata
     id="metadata33">
    <rdf:RDF>
      <cc:Work
         rdf:about="">
        <cc:license
           rdf:resource="http://creativecommons.org/licenses/by-sa/4.0/" />
      </cc:Work>
      <cc:License
         rdf:about="http://creativecommons.org/licenses/by-sa/4.0/">
        <cc:permits
           rdf:resource="http://creativecommons.org/ns#Reproduction" />
        <cc:permits
           rdf:resource="http://creativecommons.org/ns#Distribution" />
        <cc:requires
           rdf:resource="http://creativecommons.org/ns#Notice" />
        <cc:requires
           rdf:resource="http://creativecommons.org/ns#Attribution" />
        <cc:permits
           rdf:resource="http://creativecommons.org/ns#DerivativeWorks" />
        <cc:requires
           rdf:resource="http://creativecommons.org/ns#ShareAlike" />
      </cc:License>
    </rdf:RDF>
  </metadata>
</svg>
