<svg width="32" height="32" viewBox="0 0 8.467 8.467" xmlns="http://www.w3.org/2000/svg"><path style="fill:#000;stroke:none;stroke-width:0" d="m2.91 1.058 1.06 1.059v1.587l-.794-.794v-.793H2.91v.529l-.529-.53-.264.265.529.53h-.53v.264h.794l.794.794H2.117L1.058 2.91v.53l.53.529h-.53v.529h.53l-.53.53v.528l1.059-1.058h1.587l-.794.794h-.793v.264h.529l-.53.53.265.264.53-.53v.53h.264v-.794l.794-.793V6.35L2.91 7.408h.53l.529-.529v.53h.529v-.53l.53.53h.528L4.498 6.35V4.763l.794.793v.794h.264v-.53l.53.53.264-.265-.53-.529h.53v-.264h-.794l-.793-.794H6.35l1.058 1.058v-.529l-.529-.53h.53V3.97h-.53l.53-.53v-.53L6.35 3.97H4.763l.793-.794h.794V2.91h-.53l.53-.529-.265-.264-.529.529v-.53h-.264v.794l-.794.794V2.117l1.058-1.059h-.529l-.53.53v-.53H3.97v.53l-.53-.53h-.53zM0 6.35v2.117h2.117v-.265H.529l1.058-1.058-.264-.265L.265 7.938V6.35H0zm8.467 0v2.117H6.35v-.265h1.587L6.88 7.144l.265-.265 1.058 1.059V6.35ZM0 2.117V0h2.117v.265H.529l1.058 1.058-.264.265L.265.529v1.588Zm8.467 0V0H6.35v.265h1.587L6.88 1.323l.265.265L8.202.529v1.588Z"/></svg>