<svg width="32" height="32" viewBox="0 0 8.467 8.467" xmlns="http://www.w3.org/2000/svg"><path style="fill:#000;stroke-width:.264583" d="M0 0v.53h.529V0H0zm.53.265L.792.53H2.38V0h-.264v.265H.529zM2.38.53v1.587l.265.265h.265v-.264h.266v.264h.794v-.264l-1.06-1.06h.53l.53.531v-.53h.263v-.53H2.381zm1.853 0h1.852V0H4.233v.53zm1.852 0v1.588l.265.264h1.587V.795l-.792.793-.265-.265.793-.794H6.085zm1.588 0h.264v.266L8.202.53h-.264V0H6.35v.265h1.587L7.673.53zm.529 0v1.588h.265V.529h-.265zM6.35 2.381h-.265v.264l.265-.264zm-.265.264-.265.265h.265v-.265zm0 .265v.266h.265V2.91h-.265zm0 .266h-.529l-.793.794h1.322v-.794zm0 .794v.263H7.41V3.97h-.53l.53-.53v-.53L6.35 3.97h-.265zm1.324.263v.264h-.53l.53.53v.529L6.35 4.498h-.265v.794h.265v.264h-.265v.265l.265.264h1.587V4.233h-.528zM6.35 6.085h-.265v.264l.001.001.264-.265zm-.265.264-.264-.264h-.265v.265h-.264v-.265h-.794v.265l1.058 1.06h-.528l-.53-.531v.53h-.265v.528h1.852V6.349zM4.233 7.41V6.085h-.264v.265L2.91 7.408h.53l.529-.53v.531h.264zm-.264-1.324V4.763l-.794.793v.53h.794zm-.794 0h-.264v.265h.264v-.265zm-.264 0V5.82l-.265.265h.265zm-.265 0H2.38v.265l.265-.265zm-.265.265-.265-.264h.001H.53v1.588l.794-.795.264.265-.793.793h1.587V6.35zM.794 7.937H.53v-.263l-.264.264H.53v.264l.265-.265zm-.265.265v.265h1.588v-.265H.529zm-.264-.264V6.35H0v1.588h.265zM.53 6.085V4.233H0v1.852h.53zm0-1.852h.529v-.264h.53l-.53-.529v-.53l1.059 1.059h.264v-.794h-.265v-.264h.265v-.266l-.264-.264H.529v1.852zm0-1.852V.793L.265.53v1.588H0v.264h.53zm0-1.588.794.795.264-.265L.793.529H.53v.264zm1.588 1.588h.264v-.265l-.264.265zm.264 0v.264l.265.266H2.38v.264h.529l.794.794H2.38v.264h1.852V2.381H3.97v1.323l-.794-.794v-.53H2.91v.266l-.265-.265h-.264zm1.852 0h.265v-.264l1.058-1.06h-.53l-.529.531v-.53h-.264V2.38zm.265 0v1.323l.794-.794v-.53h-.794zm.794 0h.264v-.265h-.264v.265zm.264 0v.265l.265-.265h-.265zm.265 0h.264v-.264l-.264.264zM4.233 4.233v1.852h.265V4.763l.794.793v.53h.264V5.82l.265.265h.264v-.264l-.265-.265h.265v-.264h-.529l-.793-.794h1.322v-.265H4.233zm-1.852 0H1.058v.265h.53l-.53.53v.528l1.059-1.058h.264v-.265zm0 .265v.794h.529l.794-.794H2.38zm0 .794h-.264v.264h.264v-.264zm0 .264v.266l.265-.266H2.38zm0 .266-.264.263h.264v-.263zM7.938 2.38v1.852h.529V2.381h-.53zm0 3.704v1.587l.264.265V6.35h.265v-.265h-.53zm.265 1.852h-.265v-.265l-.793-.793-.265.265.793.794h.264v.529h.53v-.53h-.264zm-.266.265-.264-.264H6.085v.529h.265v-.265h1.587zM2.38 7.938v.529h1.852v-.53H2.381z"/></svg>