<svg width="32" height="32" viewBox="0 0 8.467 8.467" xmlns="http://www.w3.org/2000/svg"><path style="fill:#000;stroke-width:0" d="M2.381 1.058a1.323 1.323 0 0 0-1.323 1.323 1.323 1.323 0 0 0 1.323 1.323 1.323 1.323 0 0 0 1.323-1.323 1.323 1.323 0 0 0-1.323-1.323Zm-.529.53a.265.265 0 0 1 .265.264.265.265 0 0 1-.265.265.265.265 0 0 1-.265-.265.265.265 0 0 1 .265-.265Zm1.058 0a.265.265 0 0 1 .265.264.265.265 0 0 1-.265.265.265.265 0 0 1-.264-.265.265.265 0 0 1 .264-.265Zm-.529.793a.53.53 0 0 1 .53.53.53.53 0 0 1-.53.529.53.53 0 0 1-.529-.53.53.53 0 0 1 .53-.529Zm3.704 2.381a1.323 1.323 0 0 0-1.323 1.323 1.323 1.323 0 0 0 1.323 1.323 1.323 1.323 0 0 0 1.323-1.323 1.323 1.323 0 0 0-1.323-1.323Zm-.529.53a.265.265 0 0 1 .265.264.265.265 0 0 1-.265.265.265.265 0 0 1-.265-.265.265.265 0 0 1 .265-.265zm1.058 0a.265.265 0 0 1 .265.264.265.265 0 0 1-.265.265.265.265 0 0 1-.264-.265.265.265 0 0 1 .264-.265zm-.529.793a.53.53 0 0 1 .53.53.53.53 0 0 1-.53.53.53.53 0 0 1-.529-.53.53.53 0 0 1 .53-.53z"/></svg>