<svg width="32" height="32" viewBox="0 0 8.467 8.467" xmlns="http://www.w3.org/2000/svg"><path style="fill:#000;stroke-width:0" d="M6.085 4.762a1.323 1.323 0 0 0-1.323 1.323 1.323 1.323 0 0 0 1.323 1.323 1.323 1.323 0 0 0 1.323-1.323 1.323 1.323 0 0 0-1.323-1.323Zm-.529.53a.265.265 0 0 1 .265.264.265.265 0 0 1-.265.265.265.265 0 0 1-.264-.265.265.265 0 0 1 .264-.264Zm1.059 0a.265.265 0 0 1 .264.264.265.265 0 0 1-.264.265.265.265 0 0 1-.265-.265.265.265 0 0 1 .265-.264Zm-.53.793a.53.53 0 0 1 .53.53.53.53 0 0 1-.53.529.53.53 0 0 1-.529-.53.53.53 0 0 1 .53-.529Z"/></svg>