<svg width="32" height="32" viewBox="0 0 8.467 8.467" xmlns="http://www.w3.org/2000/svg"><path style="fill:#000;fill-opacity:1;stroke:none;stroke-width:.309422" d="M6.615 5.82V4.763h-.002"/><path style="fill:#000;fill-opacity:1;stroke:none;stroke-width:.264583" d="M2.91 2.646c-.584 0-1.058.414-1.058.926 0 .508.468.92 1.048.926h.01c.288.004.519.18.519.397 0 .219-.237.397-.53.397-.223-.001-.422-.107-.496-.265h-.55c.074.456.52.794 1.047.794.584 0 1.058-.415 1.058-.926 0-.508-.468-.921-1.048-.926H2.9c-.288-.005-.519-.18-.519-.397 0-.22.237-.397.53-.397.223 0 .443.107.518.265h.529c-.075-.456-.521-.794-1.048-.794Z"/></svg>