<?xml version="1.0" encoding="UTF-8" standalone="no"?>
<!-- Created with Inkscape (http://www.inkscape.org/) -->

<svg
   width="32"
   height="32"
   viewBox="0 0 8.4666666 8.4666668"
   version="1.1"
   id="svg5"
   inkscape:version="1.1.2 (b8e25be8, 2022-02-05)"
   sodipodi:docname="tin.svg"
   xmlns:inkscape="http://www.inkscape.org/namespaces/inkscape"
   xmlns:sodipodi="http://sodipodi.sourceforge.net/DTD/sodipodi-0.dtd"
   xmlns="http://www.w3.org/2000/svg"
   xmlns:svg="http://www.w3.org/2000/svg"
   xmlns:rdf="http://www.w3.org/1999/02/22-rdf-syntax-ns#"
   xmlns:cc="http://creativecommons.org/ns#">
  <sodipodi:namedview
     id="namedview7"
     pagecolor="#ffffff"
     bordercolor="#111111"
     borderopacity="1"
     inkscape:pageshadow="0"
     inkscape:pageopacity="0"
     inkscape:pagecheckerboard="1"
     inkscape:document-units="mm"
     showgrid="true"
     width="32mm"
     units="px"
     objecttolerance="10000"
     guidetolerance="10000"
     inkscape:snap-perpendicular="true"
     inkscape:snap-tangential="true"
     inkscape:zoom="34.90625"
     inkscape:cx="16"
     inkscape:cy="16"
     inkscape:window-width="2560"
     inkscape:window-height="1301"
     inkscape:window-x="0"
     inkscape:window-y="25"
     inkscape:window-maximized="0"
     inkscape:current-layer="layer1"
     gridtolerance="10000">
    <inkscape:grid
       type="xygrid"
       id="grid9"
       units="px"
       empspacing="2" />
  </sodipodi:namedview>
  <defs
     id="defs2" />
  <g
     inkscape:label="Layer 1"
     inkscape:groupmode="layer"
     id="layer1">
    <path
       id="path6913"
       style="fill:#000000;fill-opacity:1;stroke:none;stroke-width:0.309422"
       d="M 6.6145833,5.8208333 V 4.7625 h -0.00206 A 1.0583332,-1.0855733 0 0 0 5.55625,3.7041666 1.0583332,-1.0855733 0 0 0 4.9552532,3.8969198 H 4.954724 L 4.7625,3.7041666 H 4.4979166 V 5.8208333 H 5.0270833 V 4.7625 A 0.52916663,-0.52916663 0 0 1 5.55625,4.2333333 0.52916663,-0.52916663 0 0 1 6.0854166,4.7625 v 1.0583333 z" />
    <path
       id="path9888"
       style="fill:#000000;fill-opacity:1;stroke:none;stroke-width:0.264583"
       d="m 2.9104167,2.6458332 c -0.5845013,0 -1.0583333,0.4146029 -1.0583333,0.9260417 0,0.5082735 0.4679725,0.9209537 1.0474813,0.9260416 0.00361,3.18e-5 0.00723,0 0.010852,0 0.287253,0.00432 0.5183146,0.1804001 0.5183146,0.396875 0,0.219188 -0.236916,0.396875 -0.5291666,0.396875 C 2.6761549,5.2909521 2.4774229,5.1850598 2.4029542,5.0270832 H 1.8520834 c 0.075157,0.4556143 0.5213831,0.7937513 1.0474813,0.79375 0.5845012,0 1.0583332,-0.4146029 1.0583332,-0.9260417 0,-0.5082736 -0.4679724,-0.9209537 -1.0474812,-0.9260416 -0.00362,0 -0.00725,5.42e-5 -0.010852,0 -0.287253,-0.00432 -0.5183146,-0.1804001 -0.5183146,-0.396875 0,-0.219188 0.2369159,-0.396875 0.5291666,-0.396875 0.2234099,7.143e-4 0.4438461,0.1066067 0.5183146,0.2645833 H 3.9578979 C 3.8827411,2.9839688 3.4365149,2.6458319 2.9104167,2.6458332 Z" />
  </g>
  <metadata
     id="metadata33">
    <rdf:RDF>
      <cc:Work
         rdf:about="">
        <cc:license
           rdf:resource="http://creativecommons.org/licenses/by-sa/4.0/" />
      </cc:Work>
      <cc:License
         rdf:about="http://creativecommons.org/licenses/by-sa/4.0/">
        <cc:permits
           rdf:resource="http://creativecommons.org/ns#Reproduction" />
        <cc:permits
           rdf:resource="http://creativecommons.org/ns#Distribution" />
        <cc:requires
           rdf:resource="http://creativecommons.org/ns#Notice" />
        <cc:requires
           rdf:resource="http://creativecommons.org/ns#Attribution" />
        <cc:permits
           rdf:resource="http://creativecommons.org/ns#DerivativeWorks" />
        <cc:requires
           rdf:resource="http://creativecommons.org/ns#ShareAlike" />
      </cc:License>
    </rdf:RDF>
  </metadata>
</svg>
