<svg width="32" height="32" viewBox="0 0 8.467 8.467" xmlns:xlink="http://www.w3.org/1999/xlink" xmlns="http://www.w3.org/2000/svg"><defs><linearGradient id="a"><stop style="stop-color:#fff;stop-opacity:1" offset="0"/><stop style="stop-color:#ff0;stop-opacity:1" offset=".254"/><stop style="stop-color:red;stop-opacity:.99607843" offset=".746"/><stop style="stop-color:red;stop-opacity:0" offset="1"/></linearGradient><linearGradient xlink:href="#a" id="b" x1="4.233" y1="4.498" x2="4.233" y2=".794" gradientUnits="userSpaceOnUse"/></defs><path style="fill:url(#b);stroke-width:0;fill-opacity:1" d="M4.233.794a.53 2.646 0 0 1-.296 2.374.53 1.587 0 0 1-.233-1.316V3.44a.53 1.058 0 0 1-.529-1.059V3.44a1.058 1.058 0 0 0 1.058 1.058A1.058 1.058 0 0 0 5.292 3.44v-.53a.53.53 0 0 1-.53.53V1.323a.53 2.117 0 0 1-.25 1.8.53 2.646 0 0 1-.279-2.33z"/><path style="fill:#ff0;stroke-width:0" d="M1.587 3.175h1.058v.529H1.587zm4.234 0h1.058v.529H5.821z"/><path style="fill:red;stroke:none;stroke-width:.264583px;stroke-linecap:butt;stroke-linejoin:miter;stroke-opacity:1;fill-opacity:.5" d="m2.91 2.117.265-.265-.794-.794-.264.265Zm2.382 0-.265-.265.794-.794.264.265z"/></svg>