<svg width="32" height="32" viewBox="0 0 8.467 8.467" xmlns="http://www.w3.org/2000/svg"><path style="fill:#000;stroke-width:0" d="M0 0v8.467h8.467V0H0zm3.969.54v2.106H.889A3.704 3.704 0 0 1 3.97.54zm.529 0a3.704 3.704 0 0 1 3.079 2.106h-3.08V.54zM.687 3.175h3.282v2.117H.687a3.704 3.704 0 0 1-.158-1.059 3.704 3.704 0 0 1 .158-1.058zm3.81 0H7.78a3.704 3.704 0 0 1 .157 1.058 3.704 3.704 0 0 1-.157 1.059H4.498V3.175zM.89 5.821h3.079v2.106A3.704 3.704 0 0 1 .889 5.82zm3.608 0h3.079a3.704 3.704 0 0 1-3.08 2.106V5.82z"/></svg>