<svg width="32" height="32" viewBox="0 0 8.467 8.467" xmlns="http://www.w3.org/2000/svg"><path style="fill:#000;stroke:none;stroke-width:.264594px;stroke-linecap:butt;stroke-linejoin:miter;stroke-opacity:1" d="M4.234 3.175 3.175 4.233V3.175h1.059M2.117 3.175l1.058-1.058v1.058H2.117M6.35 3.175 5.292 4.233V3.175H6.35M4.234 3.175l1.058-1.058v1.058H4.234M4.233 5.292 3.175 6.35V5.292h1.058M2.117 5.292l1.058-1.058v1.058H2.117M6.35 5.292 5.292 6.35V5.292H6.35M4.234 5.292l1.058-1.058v1.058H4.234"/><path style="fill:#000;stroke:none;stroke-width:.264594px;stroke-linecap:butt;stroke-linejoin:miter;stroke-opacity:1" d="M5.292 4.234 4.233 3.175v1.059h1.059M3.175 4.234l1.059 1.058V4.234H3.175"/></svg>