<svg width="32" height="32" viewBox="0 0 8.467 8.467" xmlns="http://www.w3.org/2000/svg"><path style="fill:#000;stroke:none;stroke-width:.264594px;stroke-linecap:butt;stroke-linejoin:miter;stroke-opacity:1" d="M0 2.117 2.117 0v2.117H0m4.234 0L6.35 0v2.117H4.234m4.233 0L6.35 4.234V2.117h2.117m-4.233 0L2.117 4.234V2.117h2.117M0 6.35l2.117-2.116V6.35H0m4.234 0L6.35 4.234V6.35H4.234m4.233 0L6.35 8.467V6.35h2.117m-4.233 0L2.117 8.467V6.35h2.117m4.233-1.587v-.529h-.529M0 3.704v.529h.529M7.409 0l1.058 1.058V0H7.409M1.058 8.467 0 7.409v1.058h1.058m3.176-.529v.529h.529M4.233.529V0h-.529"/></svg>