<svg width="32" height="32" viewBox="0 0 8.467 8.467" xmlns="http://www.w3.org/2000/svg"><path style="fill:#000;stroke:none;stroke-width:.264594px;stroke-linecap:butt;stroke-linejoin:miter;stroke-opacity:1" d="M8.467 2.117 6.35 0v2.117h2.117m-4.234 0L2.117 0v2.117h2.116M0 2.117l2.117 2.117V2.117H0m4.233 0L6.35 4.234V2.117H4.233M8.467 6.35 6.35 4.234V6.35h2.117m-4.234 0L2.117 4.234V6.35h2.116M0 6.35l2.117 2.117V6.35H0m4.233 0L6.35 8.467V6.35H4.233M1.058 4.234 0 5.292V4.234h1.058m6.351-.001 1.058-1.058v1.058H7.409M1.058 0 0 1.058V0h1.058m6.351 8.467 1.058-1.058v1.058H7.409m-4.234 0 1.058-1.058v1.058H3.175M5.292 0 4.234 1.058V0h1.058"/></svg>