<svg width="32" height="32" viewBox="0 0 8.467 8.467" xmlns="http://www.w3.org/2000/svg"><path style="fill:#000;stroke:none;stroke-width:.264594px;stroke-linecap:butt;stroke-linejoin:miter;stroke-opacity:1" d="M0 2.117 2.117 0v2.117H0m4.234 0L6.35 0v2.117H4.234m4.233 0L6.35 4.234V2.117h2.117m-4.233 0L2.117 4.234V2.117h2.117M0 6.35l2.117-2.116V6.35H0m4.234 0L6.35 4.234V6.35H4.234m4.233 0L6.35 8.467V6.35h2.117m-4.233 0L2.117 8.467V6.35h2.117m3.175-2.116 1.058 1.058V4.234H7.409m-6.351-.001L0 3.175v1.058h1.058M7.409 0l1.058 1.058V0H7.409M1.058 8.467 0 7.409v1.058h1.058m4.234 0L4.234 7.409v1.058h1.058M3.175 0l1.058 1.058V0H3.175"/></svg>