<svg width="32" height="32" viewBox="0 0 8.467 8.467" xmlns="http://www.w3.org/2000/svg"><path style="fill:#000;stroke:none;stroke-width:.264594px;stroke-linecap:butt;stroke-linejoin:miter;stroke-opacity:1" d="m4.234 3.175 1.058 1.058V3.175H4.234m2.116 0L5.292 2.117v1.058H6.35m-4.233 0 1.058 1.058V3.175H2.117m2.116 0L3.175 2.117v1.058h1.058m.001 2.117L5.292 6.35V5.292H4.234m2.116 0L5.292 4.234v1.058H6.35m-4.233 0L3.175 6.35V5.292H2.117m2.116 0L3.175 4.234v1.058h1.058M3.175 4.234l1.059-1.059v1.059H3.175m2.117 0L4.234 5.292V4.234h1.058"/></svg>