<svg width="32" height="32" viewBox="0 0 8.467 8.467" xmlns="http://www.w3.org/2000/svg"><path style="fill:#000;stroke:none;stroke-width:.264594px;stroke-linecap:butt;stroke-linejoin:miter;stroke-opacity:1" d="M4.234 3.175 3.175 4.233V3.175h1.059m-2.117 0 1.058-1.058v1.058H2.117m4.233 0L5.292 4.233V3.175H6.35m-2.116 0 1.058-1.058v1.058H4.234m-.001 2.117L3.175 6.35V5.292h1.058m-2.116 0 1.058-1.058v1.058H2.117m4.233 0L5.292 6.35V5.292H6.35m-2.116 0 1.058-1.058v1.058H4.234"/><path style="fill:#000;stroke:none;stroke-width:.264594px;stroke-linecap:butt;stroke-linejoin:miter;stroke-opacity:1" d="M5.292 4.234 4.233 3.175v1.059h1.059m-2.117 0 1.059 1.058V4.234H3.175"/></svg>