<svg width="32" height="32" viewBox="0 0 8.467 8.467" xmlns="http://www.w3.org/2000/svg"><path style="fill:#000;stroke:none;stroke-width:.264594px;stroke-linecap:butt;stroke-linejoin:miter;stroke-opacity:1" d="m4.234 3.175 1.058 1.058V3.175H4.234M6.35 3.175 5.292 2.117v1.058H6.35M2.117 3.175l1.058 1.058V3.175H2.117M4.233 3.175 3.175 2.117v1.058h1.058M4.234 5.292 5.292 6.35V5.292H4.234M6.35 5.292 5.292 4.234v1.058H6.35M2.117 5.292 3.175 6.35V5.292H2.117M4.233 5.292 3.175 4.234v1.058h1.058M3.175 4.234l1.059-1.059v1.059H3.175M5.292 4.234 4.234 5.292V4.234h1.058"/></svg>