<svg width="32" height="32" viewBox="0 0 8.467 8.467" xmlns="http://www.w3.org/2000/svg"><path style="fill:#000;stroke:none;stroke-width:.264583px;stroke-linecap:butt;stroke-linejoin:miter;stroke-opacity:1;fill-opacity:1" d="M1.058 1.058h.53l.793.794.794-.794h.53L2.38 2.381Z"/><path style="fill:#000;fill-opacity:1;stroke:none;stroke-width:.264583px;stroke-linecap:butt;stroke-linejoin:miter;stroke-opacity:1" d="M4.763 2.117h.529l.793.793.794-.793h.53L6.084 3.44Z"/><path style="fill:#000;fill-opacity:1;stroke:none;stroke-width:.264583px;stroke-linecap:butt;stroke-linejoin:miter;stroke-opacity:1" d="M1.058 1.058h.53l.793.794.794-.794h.53L2.38 2.381Zm3.705 1.059h.529l.793.793.794-.793h.53L6.084 3.44Z" transform="translate(0 2.117)"/><path style="fill:#000;fill-opacity:1;stroke:none;stroke-width:.264583px;stroke-linecap:butt;stroke-linejoin:miter;stroke-opacity:1" d="M1.058 1.058h.53l.793.794.794-.794h.53L2.38 2.381Zm3.705 1.059h.529l.793.793.794-.793h.53L6.084 3.44ZM0 4.233l.794-.793h.529l-.794.793Zm8.467 0-.794-.793h-.53l.794.793z" transform="translate(0 4.233)"/><path style="fill:#000;stroke:none;stroke-width:.264583px;stroke-linecap:butt;stroke-linejoin:miter;stroke-opacity:1" d="m0-3.704.53-.53H0Zm8.467 0-.53-.53h.53z" transform="translate(0 4.233)"/></svg>