<svg width="32" height="32" viewBox="0 0 8.467 8.467" xmlns="http://www.w3.org/2000/svg"><path style="fill:#000;fill-opacity:1;stroke:none;stroke-width:.999999px;stroke-linecap:butt;stroke-linejoin:miter;stroke-opacity:1" d="M4 0c0 3.771 8 4.23 8 8 0 3.771-8 4.23-8 8 0 3.772 8 4.228 8 8v2l2-2c0-3.77-8-4.227-8-7.998s8-4.23 8-8C14 4.228 6 3.77 6 0H4z" transform="scale(.26458)"/><path style="fill:#000;fill-opacity:1;stroke:none;stroke-width:.264583px;stroke-linecap:butt;stroke-linejoin:miter;stroke-opacity:1" d="M4.763 0c0 .998 2.116 1.119 2.116 2.117 0 .997-2.116 1.119-2.116 2.116l.529.53v-.53c0-.997 2.116-1.12 2.116-2.116 0-.998-2.116-1.12-2.116-2.117h-.529z"/></svg>