<svg width="32" height="32" viewBox="0 0 8.467 8.467" xmlns="http://www.w3.org/2000/svg"><path style="fill:#000;fill-opacity:1;stroke:none;stroke-width:.26458px;stroke-linecap:butt;stroke-linejoin:miter;stroke-opacity:1" d="M2.91 0c0 .998 2.117 1.119 2.117 2.117 0 .997-2.116 1.119-2.116 2.116 0 .998 2.116 1.12 2.116 2.117 0 .998-2.116 1.119-2.116 2.117h.529c0-.998 2.116-1.12 2.116-2.117 0-.998-2.116-1.119-2.116-2.117 0-.997 2.116-1.119 2.116-2.116C5.556 1.119 3.44.997 3.44 0z"/><path style="fill:#000;fill-opacity:1;stroke:none;stroke-width:.264583px;stroke-linecap:butt;stroke-linejoin:miter;stroke-opacity:1" d="M5.821 0c0 .998 2.116 1.119 2.116 2.117 0 .997-2.116 1.119-2.116 2.116 0 .998 2.116 1.12 2.116 2.117 0 .998-2.116 1.119-2.116 2.117h.53c0-.998 2.115-1.12 2.115-2.117 0-.998-2.116-1.119-2.116-2.117 0-.997 2.116-1.119 2.116-2.116C8.466 1.119 6.35.997 6.35 0zM0 0c0 .998 2.116 1.119 2.116 2.117C2.116 3.114 0 3.236 0 4.233c0 .998 2.116 1.12 2.116 2.117C2.116 7.348 0 7.469 0 8.467h.529c0-.998 2.116-1.12 2.116-2.117 0-.998-2.116-1.119-2.116-2.117 0-.997 2.116-1.119 2.116-2.116C2.645 1.119.529.997.529 0z"/></svg>