<svg width="32" height="32" viewBox="0 0 8.467 8.467" xmlns="http://www.w3.org/2000/svg"><path style="fill:#000;fill-opacity:1;stroke:none;stroke-width:.26458px;stroke-linecap:butt;stroke-linejoin:miter;stroke-opacity:1" d="M.53 0c0 .902 1.729 1.088 2.06 1.852h-.202a.265.265 0 0 0-.007 0 .265.265 0 0 0-.264.265.265.265 0 0 0 .264.264h.21c-.332.765-2.062.95-2.062 1.853 0 .902 1.73 1.087 2.062 1.852h-.203a.265.265 0 0 0-.007 0 .265.265 0 0 0-.264.264.265.265 0 0 0 .264.265h1.852V6.35c0-.902-1.73-1.088-2.061-1.852h.21a.265.265 0 0 0 .264-.264.265.265 0 0 0-.265-.265h-.21c.333-.764 2.063-.95 2.063-1.852 0-.998-2.117-1.12-2.117-2.117H.529z"/><path style="fill:#000;fill-opacity:1;stroke:none;stroke-width:.26458px;stroke-linecap:butt;stroke-linejoin:miter;stroke-opacity:1" d="M4.234 0c0 .902 1.729 1.088 2.061 1.852h-.203a.265.265 0 0 0-.006 0 .265.265 0 0 0-.265.265.265.265 0 0 0 .265.264h.209c-.332.765-2.061.95-2.061 1.853v.264h1.851a.265.265 0 0 0 .264-.264.265.265 0 0 0-.264-.265h-.21c.332-.764 2.062-.95 2.062-1.852C7.938 1.119 5.82.997 5.82 0H4.234z"/></svg>