<svg width="32" height="32" viewBox="0 0 8.467 8.467" xmlns="http://www.w3.org/2000/svg"><path style="fill:#000;stroke:none;stroke-width:.264583px;stroke-linecap:butt;stroke-linejoin:miter;stroke-opacity:1" d="m.53 6.615 1.057 1.058v.794L.53 7.408Zm2.645 0 1.058 1.058v.794L3.175 7.408Zm2.645 0 1.06 1.058v.794L5.82 7.408Z"/><path style="fill:#000;stroke:none;stroke-width:.264583px;stroke-linecap:butt;stroke-linejoin:miter;stroke-opacity:1" d="M7.937 5.82 6.88 6.88v.793l1.058-1.058Zm-2.645 0L4.233 6.88v.793l1.059-1.058Zm-2.646 0L1.587 6.88v.793l1.059-1.058ZM.53 5.027l1.057 1.058v.794L.53 5.821Zm2.645 0 1.058 1.058v.794L3.175 5.821Zm2.645 0 1.06 1.058v.794L5.82 5.821Z"/><path style="fill:#000;stroke:none;stroke-width:.264583px;stroke-linecap:butt;stroke-linejoin:miter;stroke-opacity:1" d="M7.937 4.233 6.88 5.292v.793l1.058-1.058Zm-2.645 0L4.233 5.292v.793l1.059-1.058Zm-2.646 0L1.587 5.292v.793l1.059-1.058Z"/></svg>