<svg width="32" height="32" viewBox="0 0 8.467 8.467" xmlns="http://www.w3.org/2000/svg"><path style="fill:#000;stroke:none;stroke-width:.264583px;stroke-linecap:butt;stroke-linejoin:miter;stroke-opacity:1" d="m.53 1.058 1.057 1.059 1.059-1.059v6.35L1.588 8.467.528 7.408Zm2.645 0 1.058 1.059 1.059-1.059v6.35L4.233 8.467 3.175 7.408Zm2.645 0 1.06 1.059 1.057-1.059v6.35L6.88 8.467 5.821 7.408Z"/><path style="fill:#000;stroke:none;stroke-width:.264583px;stroke-linecap:butt;stroke-linejoin:miter;stroke-opacity:1" d="M1.058 1.058 1.588 0l.529 1.058-.53 1.059-.529-1.059m2.646 0L4.234 0l.528 1.058-.529 1.059-.529-1.059m2.646 0L6.88 0l.528 1.058-.529 1.059-.529-1.059"/></svg>