<svg width="32" height="32" viewBox="0 0 8.467 8.467" xmlns="http://www.w3.org/2000/svg"><path style="fill:#000;stroke-width:0" d="M4.233 1.323A2.117 2.117 0 0 0 2.117 3.44a2.117 2.117 0 0 0 2.116 2.116A2.117 2.117 0 0 0 6.35 3.44a2.117 2.117 0 0 0-2.117-2.117Zm0 .53A1.587 1.587 0 0 1 5.821 3.44a1.587 1.587 0 0 1-1.588 1.587A1.587 1.587 0 0 1 2.646 3.44a1.587 1.587 0 0 1 1.587-1.588z"/><circle style="fill:#000;stroke-width:0" cx="3.44" cy="2.91" r=".265"/><circle style="fill:#000;stroke-width:0" cx="5.027" cy="2.91" r=".265"/><circle style="fill:#000;stroke-width:0" cx="4.233" cy="3.969" r=".529"/><path style="fill:#000;stroke:none;stroke-width:.264583px;stroke-linecap:butt;stroke-linejoin:miter;stroke-opacity:1" d="M3.704 5.027v2.381a.53.53 0 0 1 .53.53.53.53 0 0 1 .529-.53v-2.38H3.704z"/></svg>