<svg width="32" height="32" viewBox="0 0 8.467 8.467" xmlns="http://www.w3.org/2000/svg"><path style="fill:#000;fill-opacity:1;stroke:none;stroke-width:.999999" d="M0 0v10a4 6 0 0 1 4 6 4 6 0 0 1-4 6v10h2v-6.318A8 10 0 0 0 8 16a8 10 0 0 0-6-9.682V0H0z" transform="scale(.26458)"/><path style="fill:#000;fill-opacity:1;stroke:none;stroke-width:.264583" d="M8.467 0v2.646a1.058 1.587 0 0 0-1.059 1.587 1.058 1.587 0 0 0 1.059 1.588v2.646h-.53V6.795A2.117 2.646 0 0 1 6.35 4.233a2.117 2.646 0 0 1 1.588-2.561V0Z"/><path style="fill:#000;fill-opacity:1;stroke:none;stroke-width:.999999" d="M8 30a2 2 0 0 0-2 2h4a2 2 0 0 0-2-2z" transform="scale(.26458)"/><path style="fill:#000;fill-opacity:1;stroke:none;stroke-width:.264583" d="M4.233 7.937a.53.53 0 0 0-.529.53h1.059a.53.53 0 0 0-.53-.53Zm2.117 0a.53.53 0 0 0-.53.53h1.06a.53.53 0 0 0-.53-.53ZM2.117.53a.53.53 0 0 1-.53-.53h1.059a.53.53 0 0 1-.53.53Zm2.116 0A.53.53 0 0 1 3.704 0h1.059a.53.53 0 0 1-.53.53Zm2.117 0A.53.53 0 0 1 5.82 0h1.06a.53.53 0 0 1-.53.53Z"/></svg>