<svg width="32" height="32" viewBox="0 0 8.467 8.467" xmlns="http://www.w3.org/2000/svg"><path style="fill:#000;stroke:none;stroke-width:.264583px;stroke-linecap:butt;stroke-linejoin:miter;stroke-opacity:1;fill-opacity:1" d="M.53 1.058 1.057.53l1.588 1.588-.53.529Z"/><path style="fill:#000;fill-opacity:1;stroke:none;stroke-width:.264583px;stroke-linecap:butt;stroke-linejoin:miter;stroke-opacity:1" d="M5.292 1.058 4.762.53 3.176 2.117l.53.529Zm.528 0L6.35.53l1.588 1.588-.53.529ZM.53 4.763l.528.529 1.588-1.588-.53-.529zm4.762 0-.53.529-1.587-1.588.53-.529zm.528 0 .53.529 1.588-1.588-.53-.529ZM.53 6.35l.528-.53 1.588 1.588-.53.53zm4.762 0-.53-.53-1.587 1.588.53.53zm.528 0 .53-.53 1.587 1.588-.529.53z"/></svg>