<svg width="32" height="32" viewBox="0 0 8.467 8.467" xmlns="http://www.w3.org/2000/svg"><path style="fill:#000;fill-opacity:1;stroke:none;stroke-width:.264583px;stroke-linecap:butt;stroke-linejoin:miter;stroke-opacity:1" d="M7.938 1.058 7.407.53 5.821 2.117l.529.529ZM3.175 1.058l.53-.529 1.587 1.588-.53.529ZM2.646 1.058 2.116.53.53 2.117l.53.529ZM7.938 4.763l-.53.529-1.587-1.588.529-.529zM3.175 4.763l.53.529 1.587-1.588-.53-.529zM2.646 4.763l-.53.529L.53 3.704l.53-.529ZM7.938 6.35l-.53-.53-1.587 1.588.529.53zM3.175 6.35l.53-.53 1.587 1.588-.53.53zM2.646 6.35l-.53-.53L.53 7.409l.53.53Z"/></svg>